<?xml version="1.0" encoding="UTF-8" standalone="no"?>
<!-- Created with Inkscape (http://www.inkscape.org/) -->

<svg
   width="1520.9382"
   height="390.80099"
   viewBox="0 0 402.4149 103.39943"
   version="1.1"
   id="svg5"
   inkscape:version="1.2.2 (732a01da63, 2022-12-09)"
   sodipodi:docname="scroll.svg"
   xml:space="preserve"
   xmlns:inkscape="http://www.inkscape.org/namespaces/inkscape"
   xmlns:sodipodi="http://sodipodi.sourceforge.net/DTD/sodipodi-0.dtd"
   xmlns="http://www.w3.org/2000/svg"
   xmlns:svg="http://www.w3.org/2000/svg"><sodipodi:namedview
     id="namedview7"
     pagecolor="#505050"
     bordercolor="#eeeeee"
     borderopacity="1"
     inkscape:pageshadow="0"
     inkscape:pageopacity="0"
     inkscape:pagecheckerboard="0"
     inkscape:document-units="px"
     showgrid="false"
     inkscape:zoom="0.32026165"
     inkscape:cx="523.00987"
     inkscape:cy="638.5404"
     inkscape:window-width="1620"
     inkscape:window-height="1018"
     inkscape:window-x="-6"
     inkscape:window-y="-6"
     inkscape:window-maximized="1"
     inkscape:current-layer="layer1"
     units="px"
     width="64px"
     inkscape:showpageshadow="0"
     inkscape:deskcolor="#505050" /><defs
     id="defs2" /><g
     inkscape:label="Layer 1"
     inkscape:groupmode="layer"
     id="layer1"
     transform="translate(-3.6365619,88.383656)"><path
       style="fill:#cab79b;fill-opacity:1;stroke-width:0.449792;stroke-linecap:round;stroke-linejoin:round"
       d="M 13.644812,-87.945526 V 14.577091 H 395.69491 V -87.653436 Z"
       id="path33125" /><path
       style="fill:#cab79b;fill-opacity:1;stroke-width:0.449792;stroke-linecap:round;stroke-linejoin:round"
       d="m 13.498772,-88.383656 -6.1338401,7.15614 6.1338401,7.30218 -7.3021801,9.34679 7.7403101,8.470526 -5.5496601,13.143926 4.9654801,8.762617 -5.6957001,6.864051 6.5719601,10.077008 L 7.2188919,-6.1611021 13.936902,2.4554699 3.7138419,14.577091 15.397332,14.13896"
       id="path33670" /><path
       style="fill:#cab79b;fill-opacity:1;stroke-width:0.449792;stroke-linecap:round;stroke-linejoin:round"
       d="m 395.72462,-87.571626 8.44082,9.55707 -8.47053,7.30218 8.61657,7.30218 -8.7934,8.677927 9.5007,9.707232 -9.08762,8.261475 10.1203,9.707232 -10.73991,10.53338 8.26147,8.6745469 -8.26147,8.05493803 8.88108,8.46801097 -9.08762,6.1961081"
       id="path33672" /><path
       style="fill:#cab79b;fill-opacity:1;stroke:#b2976e;stroke-width:1.32292;stroke-linecap:round;stroke-linejoin:round;stroke-dasharray:none;stroke-opacity:1"
       d="M 4.2980219,13.408741 394.89848,14.354312"
       id="path34400" /></g></svg>
