<?xml version="1.0" encoding="UTF-8" standalone="no"?>
<!-- Created with Inkscape (http://www.inkscape.org/) -->

<svg
   width="64"
   height="64"
   viewBox="0 0 16.933333 16.933334"
   version="1.1"
   id="svg5"
   inkscape:version="1.2.2 (732a01da63, 2022-12-09)"
   sodipodi:docname="plant_spot.svg"
   xmlns:inkscape="http://www.inkscape.org/namespaces/inkscape"
   xmlns:sodipodi="http://sodipodi.sourceforge.net/DTD/sodipodi-0.dtd"
   xmlns="http://www.w3.org/2000/svg"
   xmlns:svg="http://www.w3.org/2000/svg">
  <sodipodi:namedview
     id="namedview7"
     pagecolor="#505050"
     bordercolor="#eeeeee"
     borderopacity="1"
     inkscape:pageshadow="0"
     inkscape:pageopacity="0"
     inkscape:pagecheckerboard="0"
     inkscape:document-units="px"
     showgrid="false"
     inkscape:zoom="3.623347"
     inkscape:cx="-11.315505"
     inkscape:cy="75.482697"
     inkscape:window-width="1620"
     inkscape:window-height="1018"
     inkscape:window-x="-6"
     inkscape:window-y="-6"
     inkscape:window-maximized="1"
     inkscape:current-layer="layer1"
     units="px"
     width="64px"
     inkscape:showpageshadow="0"
     inkscape:deskcolor="#505050" />
  <defs
     id="defs2">
    <clipPath
       clipPathUnits="userSpaceOnUse"
       id="clipPath28263">
      <rect
         style="fill:#674c2d;fill-opacity:1;stroke:none;stroke-width:0.797089;stroke-linejoin:round"
         id="rect28265"
         width="13.267808"
         height="13.396894"
         x="1.8456711"
         y="1.9489394"
         ry="5.2516508" />
    </clipPath>
  </defs>
  <g
     inkscape:label="Layer 1"
     inkscape:groupmode="layer"
     id="layer1">
    <rect
       style="fill:#7d6549;fill-opacity:1;stroke:none;stroke-width:1.01239;stroke-linejoin:round"
       id="rect5015"
       width="16.933334"
       height="16.933334"
       x="2.7755576e-17"
       y="0"
       ry="0" />
    <rect
       style="fill:#6e5130;fill-opacity:1;stroke:none;stroke-width:0.822568;stroke-linejoin:round"
       id="rect4533"
       width="13.758333"
       height="13.758333"
       x="1.5875"
       y="1.5875"
       ry="5.3933368" />
    <rect
       style="fill:#674c2d;fill-opacity:1;stroke:none;stroke-width:0.79709;stroke-linejoin:round"
       id="rect25765"
       width="13.267808"
       height="13.396894"
       x="1.8456711"
       y="1.9489394"
       ry="5.2516508" />
    <path
       style="fill:none;fill-opacity:1;stroke:#80684b;stroke-width:0.343958;stroke-linecap:round;stroke-linejoin:round;stroke-dasharray:none;stroke-opacity:1"
       d="m 1.7449617,11.517355 c 0,0 0.4746417,2.044611 2.0263551,3.048661 1.5517133,1.00405 5.1115266,1.168349 6.9188162,0.949283 1.80729,-0.219065 3.924922,-2.263676 4.25352,-3.340747"
       id="path25767"
       sodipodi:nodetypes="cssc" />
    <path
       id="path26631"
       style="color:#000000;fill:#63492b;stroke-linejoin:round;-inkscape-stroke:none"
       d="M 9.042859 1.5079183 A 0.42337583 0.42337583 0 0 0 8.7384848 1.6345256 L 7.9845256 2.4024374 L 7.2264324 1.7110067 A 0.42337583 0.42337583 0 0 0 6.6171672 1.749764 L 6.0332235 2.4432617 L 5.2286215 1.6639811 A 0.42337583 0.42337583 0 0 0 4.6229737 1.6794841 L 3.9377442 2.4179403 L 3.1501953 1.7228923 A 0.42337583 0.42337583 0 0 0 2.5564331 1.7559652 L 1.6267741 2.7770915 L 2.2520589 3.3475993 L 2.9021485 2.6349813 L 3.6855632 3.326412 A 0.42337583 0.42337583 0 0 0 4.2751913 3.2969564 L 4.949052 2.5724528 L 5.7717408 3.3672364 A 0.42337583 0.42337583 0 0 0 6.3887574 3.3357137 L 6.9804525 2.6329143 L 7.7147747 3.3026408 A 0.42337583 0.42337583 0 0 0 8.3028525 3.2871379 L 9.0392416 2.5388631 L 9.7947511 3.3202108 A 0.42337583 0.42337583 0 0 0 10.404533 3.3202108 L 11.03912 2.6603028 L 11.720732 3.3279623 A 0.42337583 0.42337583 0 0 0 12.312427 3.3279623 L 13.01936 2.6349813 L 13.927832 3.5295004 A 0.42337583 0.42337583 0 0 0 14.527279 3.5232992 L 15.383041 2.6541016 L 15.548922 2.4846029 L 14.945341 1.8908407 L 14.777393 2.0603394 L 14.220838 2.6287801 L 13.318567 1.7404623 A 0.42337583 0.42337583 0 0 0 12.724805 1.7383952 L 12.015804 2.4334432 L 11.327991 1.7580322 A 0.42337583 0.42337583 0 0 0 10.726477 1.7657837 L 10.099642 2.4158732 L 9.3456829 1.6365926 A 0.42337583 0.42337583 0 0 0 9.042859 1.5079183 z M 8.990149 3.5470703 A 0.42337583 0.42337583 0 0 0 8.6873251 3.6736776 L 7.933366 4.4415894 L 7.1757895 3.7501587 A 0.42337583 0.42337583 0 0 0 6.5665243 3.7889161 L 5.9825806 4.4824138 L 5.1759115 3.7031332 A 0.42337583 0.42337583 0 0 0 4.5723308 3.7186361 L 3.8845175 4.4570923 L 3.0995524 3.7635946 A 0.42337583 0.42337583 0 0 0 2.5057902 3.7951172 L 1.5740641 4.8183106 L 2.201416 5.3888184 L 2.8515056 4.6736166 L 3.6349203 5.3650473 A 0.42337583 0.42337583 0 0 0 4.2245484 5.3361085 L 4.896342 4.6110881 L 5.7185141 5.4063884 A 0.42337583 0.42337583 0 0 0 6.3381145 5.3748658 L 6.9298096 4.6720663 L 7.6641317 5.3417929 A 0.42337583 0.42337583 0 0 0 8.2501425 5.3262899 L 8.9865317 4.5780152 L 9.7441082 5.3614299 A 0.42337583 0.42337583 0 0 0 10.353373 5.3593628 L 10.98641 4.7010051 L 11.668022 5.3691814 A 0.42337583 0.42337583 0 0 0 12.261784 5.3691814 L 12.968718 4.6736166 L 13.877189 5.5681356 A 0.42337583 0.42337583 0 0 0 14.476636 5.5645183 L 15.330331 4.6932536 L 15.498279 4.5232382 L 14.894698 3.929476 L 14.72675 4.0994914 L 14.168128 4.6679322 L 13.265857 3.7790975 A 0.42337583 0.42337583 0 0 0 12.672095 3.7790975 L 11.964644 4.4725953 L 11.275281 3.7966675 A 0.42337583 0.42337583 0 0 0 10.673767 3.8049357 L 10.046932 4.4570923 L 9.2929729 3.6757447 A 0.42337583 0.42337583 0 0 0 8.990149 3.5470703 z M 8.9648276 5.5097413 A 0.42337583 0.42337583 0 0 0 8.6620037 5.6368653 L 7.9064942 6.4042603 L 7.150468 5.7107626 A 0.42337583 0.42337583 0 0 0 6.5412029 5.7521037 L 5.9572592 6.4450847 L 5.1505901 5.6658041 A 0.42337583 0.42337583 0 0 0 4.5470093 5.6818238 L 3.859196 6.4197632 L 3.074231 5.7247152 A 0.42337583 0.42337583 0 0 0 2.4804688 5.7577881 L 1.5487427 6.7794312 L 2.1755778 7.3494223 L 2.8261841 6.6368043 L 3.6075318 7.3282349 A 0.42337583 0.42337583 0 0 0 4.1992269 7.2987794 L 4.8730876 6.5742758 L 5.6931926 7.3690593 A 0.42337583 0.42337583 0 0 0 6.3122763 7.3380535 L 6.9044882 6.6347372 L 7.6367432 7.3044638 A 0.42337583 0.42337583 0 0 0 8.224821 7.2889608 L 8.9606934 6.5391358 L 9.7187867 7.3220338 A 0.42337583 0.42337583 0 0 0 10.328052 7.3220338 L 10.961088 6.6621257 L 11.6427 7.330302 A 0.42337583 0.42337583 0 0 0 12.236463 7.330302 L 12.943396 6.6368043 L 13.851351 7.5313233 A 0.42337583 0.42337583 0 0 0 14.449247 7.5256389 L 15.304492 6.6564413 L 15.472441 6.4843588 L 14.869377 5.8926636 L 14.701428 6.0626791 L 14.142806 6.6290528 L 13.240019 5.7402182 A 0.42337583 0.42337583 0 0 0 12.646257 5.7402182 L 11.939323 6.4357829 L 11.249959 5.7577881 A 0.42337583 0.42337583 0 0 0 10.648446 5.7676067 L 10.021611 6.418213 L 9.2676515 5.6384156 A 0.42337583 0.42337583 0 0 0 8.9648276 5.5097413 z M 8.7069622 7.5488933 A 0.42337583 0.42337583 0 0 0 8.4041383 7.6760173 L 7.6486288 8.4434124 L 6.8905355 7.7519817 A 0.42337583 0.42337583 0 0 0 6.2812704 7.7912558 L 5.6973267 8.4842367 L 4.8927247 7.7049561 A 0.42337583 0.42337583 0 0 0 4.2870769 7.7204591 L 3.6013306 8.4589153 L 2.8142985 7.7654176 A 0.42337583 0.42337583 0 0 0 2.2226034 7.7969402 L 1.2908773 8.8201336 L 1.9161621 9.3885743 L 2.5662517 8.6759563 L 3.3496664 9.367387 A 0.42337583 0.42337583 0 0 0 3.9392945 9.3379314 L 4.6131552 8.6134278 L 5.4353272 9.4082114 A 0.42337583 0.42337583 0 0 0 6.0528606 9.3772055 L 6.6445557 8.6738892 L 7.3788778 9.3436158 A 0.42337583 0.42337583 0 0 0 7.9669556 9.3281129 L 8.7033448 8.5798381 L 9.4588543 9.3611858 A 0.42337583 0.42337583 0 0 0 10.068119 9.3611858 L 10.703223 8.7012778 L 11.384835 9.3689373 A 0.42337583 0.42337583 0 0 0 11.97653 9.3689373 L 12.683464 8.6759563 L 13.591935 9.5704754 A 0.42337583 0.42337583 0 0 0 14.191382 9.5642742 L 15.046627 8.6950766 L 15.215092 8.5255779 L 14.609444 7.9318157 L 14.443563 8.1013144 L 13.884941 8.6697551 L 12.98267 7.7814373 A 0.42337583 0.42337583 0 0 0 12.388908 7.7793702 L 11.681458 8.4744182 L 10.992094 7.7990072 A 0.42337583 0.42337583 0 0 0 10.39058 7.8067587 L 9.7637452 8.4568482 L 9.0097861 7.6775676 A 0.42337583 0.42337583 0 0 0 8.7069622 7.5488933 z M 8.810315 9.5880453 A 0.42337583 0.42337583 0 0 0 8.5059408 9.7146526 L 7.7519817 10.482564 L 6.9938884 9.7911337 A 0.42337583 0.42337583 0 0 0 6.3846233 9.829891 L 5.8006796 10.523389 L 4.9960775 9.7441082 A 0.42337583 0.42337583 0 0 0 4.3904297 9.7596111 L 3.7052002 10.498067 L 2.9181682 9.8045696 A 0.42337583 0.42337583 0 0 0 2.3244059 9.8360922 L 1.3947469 10.859286 L 2.019515 11.429793 L 2.6701213 10.714592 L 3.4530192 11.406022 A 0.42337583 0.42337583 0 0 0 4.0431641 11.377083 L 4.7170248 10.65258 L 5.5391968 11.447363 A 0.42337583 0.42337583 0 0 0 6.1562134 11.415841 L 6.7499757 10.713041 L 7.4822307 11.382768 A 0.42337583 0.42337583 0 0 0 8.0703085 11.367265 L 8.8066977 10.61899 L 9.5627239 11.402405 A 0.42337583 0.42337583 0 0 0 10.171989 11.400338 L 10.806576 10.74043 L 11.488188 11.410156 A 0.42337583 0.42337583 0 0 0 12.079883 11.410156 L 12.787333 10.714592 L 13.695288 11.609111 A 0.42337583 0.42337583 0 0 0 14.294735 11.605493 L 15.150497 10.734229 L 15.316378 10.564213 L 14.712797 9.9704509 L 14.544849 10.140466 L 13.988294 10.708907 L 13.086023 9.8200725 A 0.42337583 0.42337583 0 0 0 12.492261 9.8200725 L 11.78326 10.51357 L 11.095447 9.8376425 A 0.42337583 0.42337583 0 0 0 10.493933 9.8459107 L 9.8670981 10.498067 L 9.1131389 9.7187867 A 0.42337583 0.42337583 0 0 0 8.810315 9.5880453 z M 8.9395061 11.422042 A 0.42337583 0.42337583 0 0 0 8.6346152 11.548649 L 7.880656 12.316561 L 7.1230795 11.623063 A 0.42337583 0.42337583 0 0 0 6.5138144 11.663888 L 5.931421 12.357385 L 5.1247518 11.578105 A 0.42337583 0.42337583 0 0 0 4.5196208 11.593608 L 3.8338745 12.332064 L 3.0468425 11.636499 A 0.42337583 0.42337583 0 0 0 2.4551473 11.670089 L 1.5234212 12.691215 L 2.1481893 13.261723 L 2.7987956 12.548588 L 3.5822103 13.240019 A 0.42337583 0.42337583 0 0 0 4.1718384 13.21108 L 4.8456991 12.486576 L 5.6678711 13.28136 A 0.42337583 0.42337583 0 0 0 6.2854045 13.249837 L 6.87865 12.547038 L 7.6114218 13.216764 A 0.42337583 0.42337583 0 0 0 8.1989828 13.201262 L 8.935372 12.452987 L 9.6913982 13.234334 A 0.42337583 0.42337583 0 0 0 10.300663 13.234334 L 10.935767 12.574426 L 11.617379 13.242086 A 0.42337583 0.42337583 0 0 0 12.209074 13.242086 L 12.916008 12.548588 L 13.823963 13.443107 A 0.42337583 0.42337583 0 0 0 14.423926 13.437423 L 15.279171 12.568225 L 15.447119 12.396659 L 14.841988 11.804448 L 14.67559 11.974463 L 14.116968 12.540837 L 13.214697 11.652519 A 0.42337583 0.42337583 0 0 0 12.620935 11.652519 L 11.914002 12.347567 L 11.224638 11.670089 A 0.42337583 0.42337583 0 0 0 10.623124 11.679907 L 9.9962892 12.329997 L 9.24233 11.550716 A 0.42337583 0.42337583 0 0 0 8.9395061 11.422042 z M 9.0175375 13.461194 A 0.42337583 0.42337583 0 0 0 8.7126466 13.587801 L 7.9592042 14.355713 L 7.2011109 13.664282 A 0.42337583 0.42337583 0 0 0 6.5918458 13.70304 L 6.0079021 14.396537 L 5.201233 13.617257 A 0.42337583 0.42337583 0 0 0 4.5976522 13.63276 L 3.9103557 14.371216 L 3.1248739 13.677718 A 0.42337583 0.42337583 0 0 0 2.5311117 13.709241 L 1.6014527 14.732434 L 2.2267375 15.300875 L 2.876827 14.58774 L 3.6602417 15.279171 A 0.42337583 0.42337583 0 0 0 4.2498698 15.250232 L 4.9237305 14.525212 L 5.7443523 15.320512 A 0.42337583 0.42337583 0 0 0 6.3634359 15.288989 L 6.9551311 14.58619 L 7.6894532 15.255916 A 0.42337583 0.42337583 0 0 0 8.277531 15.240414 L 9.0118531 14.492139 L 9.7694296 15.273486 A 0.42337583 0.42337583 0 0 0 10.378695 15.273486 L 11.013798 14.613062 L 11.693343 15.281238 A 0.42337583 0.42337583 0 0 0 12.287105 15.281238 L 12.994039 14.58774 L 13.902511 15.482259 A 0.42337583 0.42337583 0 0 0 14.501957 15.476575 L 15.355652 14.607377 L 15.5236 14.437362 L 14.92002 13.8436 L 14.752071 14.013615 L 14.195516 14.582056 L 13.291179 13.693221 A 0.42337583 0.42337583 0 0 0 12.697416 13.691154 L 11.990483 14.386719 L 11.300602 13.710791 A 0.42337583 0.42337583 0 0 0 10.699089 13.718543 L 10.074321 14.369149 L 9.3203614 13.589868 A 0.42337583 0.42337583 0 0 0 9.0175375 13.461194 z "
       clip-path="url(#clipPath28263)" />
  </g>
</svg>
