<?xml version="1.0" encoding="UTF-8" standalone="no"?>
<!-- Created with Inkscape (http://www.inkscape.org/) -->

<svg
   width="64"
   height="64"
   viewBox="0 0 16.933333 16.933334"
   version="1.1"
   id="svg5"
   inkscape:version="1.2.2 (732a01da63, 2022-12-09)"
   sodipodi:docname="energy_up_3.svg"
   xmlns:inkscape="http://www.inkscape.org/namespaces/inkscape"
   xmlns:sodipodi="http://sodipodi.sourceforge.net/DTD/sodipodi-0.dtd"
   xmlns="http://www.w3.org/2000/svg"
   xmlns:svg="http://www.w3.org/2000/svg">
  <sodipodi:namedview
     id="namedview7"
     pagecolor="#505050"
     bordercolor="#eeeeee"
     borderopacity="1"
     inkscape:pageshadow="0"
     inkscape:pageopacity="0"
     inkscape:pagecheckerboard="0"
     inkscape:document-units="px"
     showgrid="false"
     inkscape:zoom="1.8116734"
     inkscape:cx="90.800028"
     inkscape:cy="106.25535"
     inkscape:window-width="1620"
     inkscape:window-height="1018"
     inkscape:window-x="-6"
     inkscape:window-y="-6"
     inkscape:window-maximized="1"
     inkscape:current-layer="layer1"
     units="px"
     width="64px"
     inkscape:showpageshadow="0"
     inkscape:deskcolor="#505050"
     showguides="false" />
  <defs
     id="defs2" />
  <g
     inkscape:groupmode="layer"
     id="layer4"
     inkscape:label="Drop Shadows"
     sodipodi:insensitive="true"
     style="display:none">
    <ellipse
       style="fill:#252525;fill-opacity:1;stroke:none;stroke-width:1.07182;stroke-linejoin:round"
       id="ellipse47282"
       cx="13.894689"
       cy="16.531616"
       rx="1.6135691"
       ry="0.30335101" />
    <ellipse
       style="fill:#7d0d3e;fill-opacity:1;stroke:none;stroke-width:0.765944;stroke-linejoin:round"
       id="ellipse47211"
       cx="2.9185984"
       cy="16.632021"
       rx="0.8240208"
       ry="0.30335101" />
    <ellipse
       style="fill:#156cbe;fill-opacity:1;stroke:none;stroke-width:1.07182;stroke-linejoin:round"
       id="path44885"
       cx="8.7649069"
       cy="16.568127"
       rx="1.6135691"
       ry="0.30335101" />
  </g>
  <g
     inkscape:label="Layer 1"
     inkscape:groupmode="layer"
     id="layer1">
    <path
       id="path68544"
       style="fill:#806600;fill-opacity:1;stroke:none;stroke-width:0.635;stroke-linecap:round;stroke-linejoin:round"
       d="m 8.6735617,5.4910853 c -0.076454,-2.34e-5 -0.152482,4.094e-4 -0.2289266,0.00155 -2.4462283,0.036511 -4.8562138,2.5925534 -4.8927247,5.8420214 -0.036511,3.249467 2.994023,4.417955 5.0751425,4.2354 3.7971301,-0.47464 5.6955111,-1.278256 5.2208701,-5.440495 C 13.388115,6.097393 11.043621,5.4918107 8.6735617,5.4910853 Z M 8.4808086,6.6248663 C 11.511211,7.4281053 15.198873,14.182408 8.8094707,14.364963 2.420069,14.547517 6.7282867,7.1725291 8.4808086,6.6248663 Z" />
    <path
       style="fill:#333333;fill-opacity:1;stroke-width:0.397583;stroke-linecap:round;stroke-linejoin:round"
       d="m -13.302627,25.072287 c -0.647384,-0.225239 -1.472798,-0.337859 -1.472798,-1.238815 0,-0.900957 1.305547,-0.147501 3.107441,-1.544496 1.9692001,-1.526708 3.1840981,-5.141224 2.5247961,-7.674218 -0.9803231,-3.766331 -7.0564801,7.915545 -7.0564801,7.915545 0,0 -1.456613,4.118658 2.897041,2.541984 z"
       id="path25597"
       sodipodi:nodetypes="cssscc" />
    <path
       style="fill:#333333;fill-opacity:1;stroke-width:0.396401;stroke-linecap:round;stroke-linejoin:round"
       d="m -18.725802,25.04011 c 0.64354,-0.225238 1.464054,-0.337858 1.464054,-1.238814 0,-0.900957 -1.297796,-0.147501 -3.088994,-1.544497 -1.95751,-1.526707 -3.165195,-5.141224 -2.509807,-7.674218 0.974503,-3.766331 7.01459,7.915545 7.01459,7.915545 0,0 1.447966,4.118659 -2.879843,2.541984 z"
       id="path25595"
       sodipodi:nodetypes="cssscc" />
    <path
       style="fill:#c51461;fill-opacity:1;stroke:none;stroke-width:0.510792;stroke-linejoin:round"
       d="m -11.729545,8.8482928 c 0,0 -1.952537,-1.045955 -2.098462,-1.922745 -0.114085,-0.685486 -0.04677,-1.76729 1.08254,-1.849914 0.830488,-0.06076 1.23243,0.58265 1.23243,0.58265 0,0 1.53221,-1.238131 2.4148965,-0.34959 0.5180675,0.521503 0.4486467,0.957529 -0.1767495,1.609364 -0.857389,0.893636 -2.454655,1.930235 -2.454655,1.930235 z"
       id="path45232"
       sodipodi:nodetypes="csscssc" />
    <ellipse
       style="fill:#b21258;fill-opacity:1;stroke-width:0.614921;stroke-linecap:round;stroke-linejoin:round"
       id="path25461"
       cx="-15.990756"
       cy="15.86966"
       rx="6.773262"
       ry="6.6928196" />
    <path
       style="fill:#333333;fill-opacity:1;stroke-width:0.396401;stroke-linecap:round;stroke-linejoin:round"
       d="m -21.869807,19.41651 c 0.864599,0.477804 9.510581,1.194511 12.0133671,-0.147892 -0.7280841,1.365156 -8.1226741,3.264996 -12.0133671,0.147892 z"
       id="path25662"
       sodipodi:nodetypes="ccc" />
    <path
       style="fill:#424242;fill-opacity:1;stroke-width:0.396401;stroke-linecap:round;stroke-linejoin:round"
       d="m -21.686088,19.457399 c 0.530921,0.176973 4.183012,0.740071 7.207652,0.611363 -0.498744,0.193061 -5.003526,0.75616 -7.207652,-0.611363 z"
       id="path25664" />
    <path
       style="fill:#333333;fill-opacity:1;stroke-width:0.396401;stroke-linecap:round;stroke-linejoin:round"
       d="m -18.693625,25.072288 c 0.939366,1.105136 5.469039,0.383705 5.309208,0.01609 z"
       id="path26792"
       sodipodi:nodetypes="ccc" />
    <path
       style="fill:#917400;fill-opacity:1;stroke:none;stroke-width:0.635;stroke-linecap:round;stroke-linejoin:round"
       d="m 8.6530844,5.9695328 c 0.1460434,0.036511 4.5638626,2.6652961 4.5090966,5.4766352 -0.05477,2.81134 0.80324,0.474642 0.766729,-0.456386 C 13.8924,10.058754 13.472524,4.8742056 8.6530844,5.9695328 Z"
       id="path68547" />
    <path
       style="fill:#917400;fill-opacity:1;stroke:none;stroke-width:0.635;stroke-linecap:round;stroke-linejoin:round"
       d="M 8.3131088,6.7382651 C 7.5644126,7.2546072 5.9895691,9.2167075 5.499044,10.920637 4.8794333,8.3647428 7.7967669,6.8415336 8.3131088,6.7382651 Z"
       id="path68864" />
    <path
       style="fill:#b21258;fill-opacity:1;stroke:none;stroke-width:0.635;stroke-linecap:round;stroke-linejoin:round"
       d="m 5.5506783,4.6728966 2.2202712,1.5232092 1.9621,0.1290857 L 11.69515,4.7503478 10.326843,1.187587 H 7.2287902 Z"
       id="path68866" />
    <path
       style="fill:#c51461;fill-opacity:1;stroke:none;stroke-width:0.635;stroke-linecap:round;stroke-linejoin:round"
       d="M 5.6409345,4.6551401 7.8133334,4.0892212 7.2656699,1.2048598 Z"
       id="path68868" />
    <path
       style="fill:#c51461;fill-opacity:1;stroke:none;stroke-width:0.635;stroke-linecap:round;stroke-linejoin:round"
       d="M 7.9046106,6.1338319 7.758567,4.0344549 9.7666667,4.1439876 9.7119006,6.3711528 Z"
       id="path68890" />
  </g>
</svg>
