<?xml version="1.0" encoding="UTF-8" standalone="no"?>
<!-- Created with Inkscape (http://www.inkscape.org/) -->

<svg
   width="64"
   height="64"
   viewBox="0 0 16.933333 16.933334"
   version="1.1"
   id="svg5"
   inkscape:version="1.2.2 (732a01da63, 2022-12-09)"
   sodipodi:docname="farm_up_1.svg"
   xmlns:inkscape="http://www.inkscape.org/namespaces/inkscape"
   xmlns:sodipodi="http://sodipodi.sourceforge.net/DTD/sodipodi-0.dtd"
   xmlns="http://www.w3.org/2000/svg"
   xmlns:svg="http://www.w3.org/2000/svg">
  <sodipodi:namedview
     id="namedview7"
     pagecolor="#505050"
     bordercolor="#eeeeee"
     borderopacity="1"
     inkscape:pageshadow="0"
     inkscape:pageopacity="0"
     inkscape:pagecheckerboard="0"
     inkscape:document-units="px"
     showgrid="false"
     inkscape:zoom="5.1241863"
     inkscape:cx="100.69891"
     inkscape:cy="58.253151"
     inkscape:window-width="1620"
     inkscape:window-height="1018"
     inkscape:window-x="-6"
     inkscape:window-y="-6"
     inkscape:window-maximized="1"
     inkscape:current-layer="layer1"
     units="px"
     width="64px"
     inkscape:showpageshadow="0"
     inkscape:deskcolor="#505050"
     showguides="false" />
  <defs
     id="defs2" />
  <g
     inkscape:groupmode="layer"
     id="layer4"
     inkscape:label="Drop Shadows"
     sodipodi:insensitive="true"
     style="display:none">
    <ellipse
       style="fill:#252525;fill-opacity:1;stroke:none;stroke-width:1.07182;stroke-linejoin:round"
       id="ellipse47282"
       cx="13.894689"
       cy="16.531616"
       rx="1.6135691"
       ry="0.30335101" />
    <ellipse
       style="fill:#7d0d3e;fill-opacity:1;stroke:none;stroke-width:0.765944;stroke-linejoin:round"
       id="ellipse47211"
       cx="2.9185984"
       cy="16.632021"
       rx="0.8240208"
       ry="0.30335101" />
    <ellipse
       style="fill:#156cbe;fill-opacity:1;stroke:none;stroke-width:1.07182;stroke-linejoin:round"
       id="path44885"
       cx="8.7649069"
       cy="16.568127"
       rx="1.6135691"
       ry="0.30335101" />
  </g>
  <g
     inkscape:label="Layer 1"
     inkscape:groupmode="layer"
     id="layer1">
    <path
       style="fill:#1a1a1a;stroke-width:0.682013;stroke-linecap:round;stroke-linejoin:round"
       d="m 13.592794,1.6220987 c 1.2103,-0.153492 3.077118,1.8526448 0.242082,1.3993045"
       id="path70770"
       sodipodi:nodetypes="cc" />
    <path
       style="fill:#333333;fill-opacity:1;stroke-width:0.397583;stroke-linecap:round;stroke-linejoin:round"
       d="m -13.302627,25.072287 c -0.647384,-0.225239 -1.472798,-0.337859 -1.472798,-1.238815 0,-0.900957 1.305547,-0.147501 3.107441,-1.544496 1.9692001,-1.526708 3.1840981,-5.141224 2.5247961,-7.674218 -0.9803231,-3.766331 -7.0564801,7.915545 -7.0564801,7.915545 0,0 -1.456613,4.118658 2.897041,2.541984 z"
       id="path25597"
       sodipodi:nodetypes="cssscc" />
    <path
       style="fill:#333333;fill-opacity:1;stroke-width:0.396401;stroke-linecap:round;stroke-linejoin:round"
       d="m -18.725802,25.04011 c 0.64354,-0.225238 1.464054,-0.337858 1.464054,-1.238814 0,-0.900957 -1.297796,-0.147501 -3.088994,-1.544497 -1.95751,-1.526707 -3.165195,-5.141224 -2.509807,-7.674218 0.974503,-3.766331 7.01459,7.915545 7.01459,7.915545 0,0 1.447966,4.118659 -2.879843,2.541984 z"
       id="path25595"
       sodipodi:nodetypes="cssscc" />
    <path
       style="fill:#c51461;fill-opacity:1;stroke:none;stroke-width:0.510792;stroke-linejoin:round"
       d="m -11.729545,8.8482928 c 0,0 -1.952537,-1.045955 -2.098462,-1.922745 -0.114085,-0.685486 -0.04677,-1.76729 1.08254,-1.849914 0.830488,-0.06076 1.23243,0.58265 1.23243,0.58265 0,0 1.53221,-1.238131 2.4148965,-0.34959 0.5180675,0.521503 0.4486467,0.957529 -0.1767495,1.609364 -0.857389,0.893636 -2.454655,1.930235 -2.454655,1.930235 z"
       id="path45232"
       sodipodi:nodetypes="csscssc" />
    <ellipse
       style="fill:#b21258;fill-opacity:1;stroke-width:0.614921;stroke-linecap:round;stroke-linejoin:round"
       id="path25461"
       cx="-15.990756"
       cy="15.86966"
       rx="6.773262"
       ry="6.6928196" />
    <path
       style="fill:#333333;fill-opacity:1;stroke-width:0.396401;stroke-linecap:round;stroke-linejoin:round"
       d="m -21.869807,19.41651 c 0.864599,0.477804 9.510581,1.194511 12.0133671,-0.147892 -0.7280841,1.365156 -8.1226741,3.264996 -12.0133671,0.147892 z"
       id="path25662"
       sodipodi:nodetypes="ccc" />
    <path
       style="fill:#424242;fill-opacity:1;stroke-width:0.396401;stroke-linecap:round;stroke-linejoin:round"
       d="m -21.686088,19.457399 c 0.530921,0.176973 4.183012,0.740071 7.207652,0.611363 -0.498744,0.193061 -5.003526,0.75616 -7.207652,-0.611363 z"
       id="path25664" />
    <path
       style="fill:#333333;fill-opacity:1;stroke-width:0.396401;stroke-linecap:round;stroke-linejoin:round"
       d="m -18.693625,25.072288 c 0.939366,1.105136 5.469039,0.383705 5.309208,0.01609 z"
       id="path26792"
       sodipodi:nodetypes="ccc" />
    <path
       style="fill:#502d16;fill-opacity:1;stroke:none;stroke-width:0.682013;stroke-linecap:round;stroke-linejoin:round"
       d="M 1.9491265,15.326449 14.529768,1.0282734 15.431691,1.9301962 2.6549792,15.679375 Z"
       id="path66908"
       sodipodi:nodetypes="ccccc" />
    <path
       style="fill:#573118;fill-opacity:1;stroke:none;stroke-width:0.682013;stroke-linecap:round;stroke-linejoin:round"
       d="M 12.167154,4.1907583 2.1294318,15.198978 2.5176311,15.587176 13.581309,3.0538892 Z"
       id="path67123"
       sodipodi:nodetypes="ccccc" />
    <path
       style="fill:#1a1a1a;stroke-width:0.682013;stroke-linecap:round;stroke-linejoin:round"
       d="M 7.7735778,2.3451795 C 9.288554,0.03746288 12.818775,0.79401521 13.234702,0.90492934 13.65063,1.0158434 15.314341,3.4004954 15.314341,3.4004954 c 0,0 -5.306239,-0.5165106 -6.6257223,1.6066216"
       id="path70768"
       sodipodi:nodetypes="cscc" />
  </g>
</svg>
