<?xml version="1.0" encoding="UTF-8" standalone="no"?>
<!-- Created with Inkscape (http://www.inkscape.org/) -->

<svg
   width="64"
   height="64"
   viewBox="0 0 16.933333 16.933334"
   version="1.1"
   id="svg5"
   inkscape:version="1.2.2 (732a01da63, 2022-12-09)"
   sodipodi:docname="water_up.svg"
   xmlns:inkscape="http://www.inkscape.org/namespaces/inkscape"
   xmlns:sodipodi="http://sodipodi.sourceforge.net/DTD/sodipodi-0.dtd"
   xmlns="http://www.w3.org/2000/svg"
   xmlns:svg="http://www.w3.org/2000/svg">
  <sodipodi:namedview
     id="namedview7"
     pagecolor="#505050"
     bordercolor="#eeeeee"
     borderopacity="1"
     inkscape:pageshadow="0"
     inkscape:pageopacity="0"
     inkscape:pagecheckerboard="0"
     inkscape:document-units="px"
     showgrid="false"
     inkscape:zoom="5.1241863"
     inkscape:cx="67.718069"
     inkscape:cy="43.226375"
     inkscape:window-width="1620"
     inkscape:window-height="1018"
     inkscape:window-x="-6"
     inkscape:window-y="-6"
     inkscape:window-maximized="1"
     inkscape:current-layer="layer1"
     units="px"
     width="64px"
     inkscape:showpageshadow="0"
     inkscape:deskcolor="#505050"
     showguides="false" />
  <defs
     id="defs2" />
  <g
     inkscape:groupmode="layer"
     id="layer4"
     inkscape:label="Drop Shadows"
     sodipodi:insensitive="true"
     style="display:none">
    <ellipse
       style="fill:#252525;fill-opacity:1;stroke:none;stroke-width:1.07182;stroke-linejoin:round"
       id="ellipse47282"
       cx="13.894689"
       cy="16.531616"
       rx="1.6135691"
       ry="0.30335101" />
    <ellipse
       style="fill:#7d0d3e;fill-opacity:1;stroke:none;stroke-width:0.765944;stroke-linejoin:round"
       id="ellipse47211"
       cx="2.9185984"
       cy="16.632021"
       rx="0.8240208"
       ry="0.30335101" />
    <ellipse
       style="fill:#156cbe;fill-opacity:1;stroke:none;stroke-width:1.07182;stroke-linejoin:round"
       id="path44885"
       cx="8.7649069"
       cy="16.568127"
       rx="1.6135691"
       ry="0.30335101" />
  </g>
  <g
     inkscape:label="Layer 1"
     inkscape:groupmode="layer"
     id="layer1">
    <path
       style="fill:#4d4d4d;stroke-width:0.555625;stroke-linejoin:round"
       d="m 3.5111266,6.7640821 c 0.2581711,-0.877781 7.4353274,-3.149687 7.7451324,-1.703929 0.309806,1.445758 -2.9947845,4.079103 -2.9947845,4.079103 l -5.008519,-2.478442"
       id="path119150" />
    <path
       style="fill:#666666;stroke-width:0.555625;stroke-linejoin:round"
       d="m 3.4078585,6.9189851 c 2.894338,0.493208 5.504815,-0.149027 7.8484005,-1.858831 l 2.271906,7.7451329 c 0.54029,0.972522 -5.6075815,4.966567 -7.6934985,2.788248 -1.050963,-1.097519 -1.990374,-8.7018269 -2.426808,-8.6745499 z"
       id="path119144"
       sodipodi:nodetypes="cccsc" />
    <path
       style="fill:#666666;stroke-width:0.555625;stroke-linejoin:round"
       d="M 12.443846,10.430112 16.368047,4.9052511 15.903339,4.0791031 10.53338,8.1065721"
       id="path119146" />
    <path
       style="fill:#666666;stroke-width:0.555625;stroke-linejoin:round"
       d="m 3.9758345,8.0033041 c -2.8398818,-0.671245 -6.1961058,4.4405429 1.445758,6.5575449 l 0.2065369,-1.910465 c 0,0 -4.1026435,0.390299 -3.4594924,-2.06537 C 2.4252021,9.6054021 4.0579552,9.2421821 4.4123614,8.8552711 4.8425294,8.3856501 3.9758345,8.0033041 3.9758345,8.0033041 Z"
       id="path119148"
       sodipodi:nodetypes="cccssc" />
    <path
       style="fill:#7d7d7d;fill-opacity:1;stroke-width:0.555625;stroke-linejoin:round"
       d="M 8.0807548,10.249392 C 5.0085188,4.9310677 4.3372741,2.0395515 4.5954452,1.6522949 4.8536161,1.2650383 5.4732269,0.64542769 5.8863005,1.0326843 6.2993744,1.4199409 8.9069022,9.1908905 9.2941588,9.6555983 9.6814154,10.120306 8.5712798,11.307894 8.0807548,10.249392 Z"
       id="path119215" />
  </g>
</svg>
