<?xml version="1.0" encoding="UTF-8" standalone="no"?>
<!-- Created with Inkscape (http://www.inkscape.org/) -->

<svg
   width="64"
   height="64"
   viewBox="0 0 16.933333 16.933334"
   version="1.1"
   id="svg5"
   inkscape:version="1.2.2 (732a01da63, 2022-12-09)"
   sodipodi:docname="growth_2.svg"
   xmlns:inkscape="http://www.inkscape.org/namespaces/inkscape"
   xmlns:sodipodi="http://sodipodi.sourceforge.net/DTD/sodipodi-0.dtd"
   xmlns="http://www.w3.org/2000/svg"
   xmlns:svg="http://www.w3.org/2000/svg">
  <sodipodi:namedview
     id="namedview7"
     pagecolor="#505050"
     bordercolor="#eeeeee"
     borderopacity="1"
     inkscape:pageshadow="0"
     inkscape:pageopacity="0"
     inkscape:pagecheckerboard="0"
     inkscape:document-units="px"
     showgrid="false"
     inkscape:zoom="7.2466938"
     inkscape:cx="24.079947"
     inkscape:cy="40.363234"
     inkscape:window-width="1620"
     inkscape:window-height="1018"
     inkscape:window-x="-6"
     inkscape:window-y="-6"
     inkscape:window-maximized="1"
     inkscape:current-layer="layer1"
     units="px"
     width="64px"
     inkscape:showpageshadow="0"
     inkscape:deskcolor="#505050" />
  <defs
     id="defs2" />
  <g
     inkscape:label="Layer 1"
     inkscape:groupmode="layer"
     id="layer1">
    <path
       style="fill:#0e3410;fill-opacity:1;stroke:none;stroke-width:0.15875;stroke-linecap:round;stroke-linejoin:round;stroke-dasharray:none;stroke-opacity:1"
       d="m 5.6355877,5.3519797 c 0.3651091,0.730218 0.091277,1.1866041 0.018256,1.2413705 -0.073022,0.054766 0.8214956,0.3468537 1.0405608,0 C 6.9134702,6.2464968 6.9682365,5.0964033 5.9276758,4.8225714"
       id="path76366" />
    <path
       style="fill:#0e3410;fill-opacity:1;stroke:none;stroke-width:0.15875;stroke-linecap:round;stroke-linejoin:round;stroke-dasharray:none;stroke-opacity:1"
       d="m 6.1613411,10.14447 c 0.405964,0.70832 0.1584754,1.179511 0.08868,1.238334 -0.069796,0.05883 0.8398571,0.29967 1.0388836,-0.05906 0.199027,-0.358728 0.1884316,-1.5100751 -0.8659931,-1.7244092"
       id="path76437" />
    <path
       style="fill:#0e3410;fill-opacity:1;stroke-width:0.635;stroke-linecap:round;stroke-linejoin:round"
       d="M 6.9143814,9.7876809 C 4.4252354,8.137258 2.7474503,9.8234229 1.9482351,11.203655 3.3309629,12.368427 6.0029365,12.08854 6.9143814,9.7876809 Z"
       id="path76439" />
    <path
       style="fill:none;fill-opacity:1;stroke:#09210a;stroke-width:0.15875;stroke-linecap:round;stroke-linejoin:round;stroke-dasharray:none;stroke-opacity:1"
       d="M 6.7874116,9.7895439 C 5.4616685,9.6272034 3.5883431,10.446808 3.1877939,10.798706"
       id="path76441" />
    <path
       style="fill:#0e3410;fill-opacity:1;stroke:none;stroke-width:0.159697;stroke-linecap:round;stroke-linejoin:round;stroke-dasharray:none;stroke-opacity:1"
       d="m 10.567456,7.2013198 c -0.410821,0.70832 -0.160372,1.179511 -0.08974,1.238334 0.07063,0.05883 -0.8499058,0.29967 -1.0513141,-0.05906 C 9.2249924,8.0218658 9.2357142,6.8705187 10.302755,6.6561846"
       id="path76443" />
    <g
       id="g77203">
      <path
         style="fill:#0e3410;fill-opacity:1;stroke-width:0.635;stroke-linecap:round;stroke-linejoin:round"
         d="M 6.4076637,5.0385047 C 4.0161994,3.2494705 2.2454206,4.8376947 1.3691589,6.1703428 2.6835514,7.4117134 5.3671031,7.2839253 6.4076637,5.0385047 Z"
         id="path75096" />
      <path
         style="fill:none;fill-opacity:1;stroke:#09210a;stroke-width:0.15875;stroke-linecap:round;stroke-linejoin:round;stroke-dasharray:none;stroke-opacity:1"
         d="M 6.2807929,5.0331579 C 4.9664003,4.7958369 3.0495779,5.5077997 2.6297024,5.8363977"
         id="path75791" />
    </g>
    <path
       style="fill:#0e3410;fill-opacity:1;stroke-width:0.638788;stroke-linecap:round;stroke-linejoin:round"
       d="M 9.8054049,6.8445307 C 12.324333,5.1941078 14.022193,6.8802727 14.830971,8.2605048 13.431699,9.4252768 10.727755,9.1453898 9.8054049,6.8445307 Z"
       id="path76445" />
    <path
       style="fill:none;fill-opacity:1;stroke:#09210a;stroke-width:0.159697;stroke-linecap:round;stroke-linejoin:round;stroke-dasharray:none;stroke-opacity:1"
       d="M 9.9338941,6.8463937 C 11.275499,6.6840532 13.17124,7.5036578 13.576581,7.8555558"
       id="path76447" />
    <g
       id="g77209"
       transform="matrix(-0.97784934,0,0,1,12.234503,-0.20653682)">
      <path
         style="fill:#0e3410;fill-opacity:1;stroke-width:0.635;stroke-linecap:round;stroke-linejoin:round"
         d="M 6.4076637,5.0385047 C 4.0161994,3.2494705 2.2454206,4.8376947 1.3691589,6.1703428 2.6835514,7.4117134 5.3671031,7.2839253 6.4076637,5.0385047 Z"
         id="path77205" />
      <path
         style="fill:none;fill-opacity:1;stroke:#09210a;stroke-width:0.15875;stroke-linecap:round;stroke-linejoin:round;stroke-dasharray:none;stroke-opacity:1"
         d="M 6.2807929,5.0331579 C 4.9664003,4.7958369 3.0495779,5.5077997 2.6297024,5.8363977"
         id="path77207" />
    </g>
    <g
       id="g77215"
       transform="matrix(-0.97024,-0.12175248,-0.12451047,0.99221829,13.521452,5.5771336)">
      <path
         style="fill:#0e3410;fill-opacity:1;stroke-width:0.635;stroke-linecap:round;stroke-linejoin:round"
         d="M 6.4076637,5.0385047 C 4.0161994,3.2494705 2.2454206,4.8376947 1.3691589,6.1703428 2.6835514,7.4117134 5.3671031,7.2839253 6.4076637,5.0385047 Z"
         id="path77211" />
      <path
         style="fill:none;fill-opacity:1;stroke:#09210a;stroke-width:0.15875;stroke-linecap:round;stroke-linejoin:round;stroke-dasharray:none;stroke-opacity:1"
         d="M 6.2807929,5.0331579 C 4.9664003,4.7958369 3.0495779,5.5077997 2.6297024,5.8363977"
         id="path77213" />
    </g>
    <g
       id="g77221"
       transform="matrix(0.96079738,-0.12175248,0.1232987,0.99221829,3.6429062,2.6598005)">
      <path
         style="fill:#0e3410;fill-opacity:1;stroke-width:0.635;stroke-linecap:round;stroke-linejoin:round"
         d="M 6.4076637,5.0385047 C 4.0161994,3.2494705 2.2454206,4.8376947 1.3691589,6.1703428 2.6835514,7.4117134 5.3671031,7.2839253 6.4076637,5.0385047 Z"
         id="path77217" />
      <path
         style="fill:none;fill-opacity:1;stroke:#09210a;stroke-width:0.15875;stroke-linecap:round;stroke-linejoin:round;stroke-dasharray:none;stroke-opacity:1"
         d="M 6.2807929,5.0331579 C 4.9664003,4.7958369 3.0495779,5.5077997 2.6297024,5.8363977"
         id="path77219" />
    </g>
  </g>
</svg>
