<?xml version="1.0" encoding="UTF-8" standalone="no"?>
<!-- Created with Inkscape (http://www.inkscape.org/) -->

<svg
   width="64"
   height="64"
   viewBox="0 0 16.933333 16.933334"
   version="1.1"
   id="svg5"
   inkscape:version="1.2.2 (732a01da63, 2022-12-09)"
   sodipodi:docname="growth_5.svg"
   xmlns:inkscape="http://www.inkscape.org/namespaces/inkscape"
   xmlns:sodipodi="http://sodipodi.sourceforge.net/DTD/sodipodi-0.dtd"
   xmlns="http://www.w3.org/2000/svg"
   xmlns:svg="http://www.w3.org/2000/svg">
  <sodipodi:namedview
     id="namedview7"
     pagecolor="#505050"
     bordercolor="#eeeeee"
     borderopacity="1"
     inkscape:pageshadow="0"
     inkscape:pageopacity="0"
     inkscape:pagecheckerboard="0"
     inkscape:document-units="px"
     showgrid="false"
     inkscape:zoom="5.1241863"
     inkscape:cx="34.24934"
     inkscape:cy="76.207221"
     inkscape:window-width="1620"
     inkscape:window-height="1018"
     inkscape:window-x="-6"
     inkscape:window-y="-6"
     inkscape:window-maximized="1"
     inkscape:current-layer="layer1"
     units="px"
     width="64px"
     inkscape:showpageshadow="0"
     inkscape:deskcolor="#505050" />
  <defs
     id="defs2" />
  <g
     inkscape:label="Layer 1"
     inkscape:groupmode="layer"
     id="layer1">
    <path
       style="fill:#0e3410;fill-opacity:1;stroke:none;stroke-width:0.15875;stroke-linecap:round;stroke-linejoin:round;stroke-dasharray:none;stroke-opacity:1"
       d="m 5.6355877,5.3519797 c 0.3651091,0.730218 0.091277,1.1866041 0.018256,1.2413705 -0.073022,0.054766 0.8214956,0.3468537 1.0405608,0 C 6.9134702,6.2464968 6.9682365,5.0964033 5.9276758,4.8225714"
       id="path76366" />
    <path
       style="fill:#0e3410;fill-opacity:1;stroke:none;stroke-width:0.15875;stroke-linecap:round;stroke-linejoin:round;stroke-dasharray:none;stroke-opacity:1"
       d="m 6.1613411,10.14447 c 0.405964,0.70832 0.1584754,1.179511 0.08868,1.238334 -0.069796,0.05883 0.8398571,0.29967 1.0388836,-0.05906 0.199027,-0.358728 0.1884316,-1.5100751 -0.8659931,-1.7244092"
       id="path76437" />
    <path
       style="fill:#0e3410;fill-opacity:1;stroke-width:0.635;stroke-linecap:round;stroke-linejoin:round"
       d="M 6.9143814,9.7876809 C 4.4252354,8.137258 2.7474503,9.8234229 1.9482351,11.203655 3.3309629,12.368427 6.0029365,12.08854 6.9143814,9.7876809 Z"
       id="path76439" />
    <path
       style="fill:none;fill-opacity:1;stroke:#09210a;stroke-width:0.15875;stroke-linecap:round;stroke-linejoin:round;stroke-dasharray:none;stroke-opacity:1"
       d="M 6.7874116,9.7895439 C 5.4616685,9.6272034 3.5883431,10.446808 3.1877939,10.798706"
       id="path76441" />
    <path
       style="fill:#0e3410;fill-opacity:1;stroke:none;stroke-width:0.159697;stroke-linecap:round;stroke-linejoin:round;stroke-dasharray:none;stroke-opacity:1"
       d="m 10.567456,7.2013198 c -0.410821,0.70832 -0.160372,1.179511 -0.08974,1.238334 0.07063,0.05883 -0.8499058,0.29967 -1.0513141,-0.05906 C 9.2249924,8.0218658 9.2357142,6.8705187 10.302755,6.6561846"
       id="path76443" />
    <g
       id="g77203">
      <path
         style="fill:#0e3410;fill-opacity:1;stroke-width:0.635;stroke-linecap:round;stroke-linejoin:round"
         d="M 6.4076637,5.0385047 C 4.0161994,3.2494705 2.2454206,4.8376947 1.3691589,6.1703428 2.6835514,7.4117134 5.3671031,7.2839253 6.4076637,5.0385047 Z"
         id="path75096" />
      <path
         style="fill:none;fill-opacity:1;stroke:#09210a;stroke-width:0.15875;stroke-linecap:round;stroke-linejoin:round;stroke-dasharray:none;stroke-opacity:1"
         d="M 6.2807929,5.0331579 C 4.9664003,4.7958369 3.0495779,5.5077997 2.6297024,5.8363977"
         id="path75791" />
    </g>
    <g
       id="g78041">
      <path
         style="fill:#0e3410;fill-opacity:1;stroke-width:0.638788;stroke-linecap:round;stroke-linejoin:round"
         d="M 9.8054049,6.8445307 C 12.324333,5.1941078 14.022193,6.8802727 14.830971,8.2605048 13.431699,9.4252768 10.727755,9.1453898 9.8054049,6.8445307 Z"
         id="path76445" />
      <path
         style="fill:none;fill-opacity:1;stroke:#09210a;stroke-width:0.159697;stroke-linecap:round;stroke-linejoin:round;stroke-dasharray:none;stroke-opacity:1"
         d="M 9.9338941,6.8463937 C 11.275499,6.6840532 13.17124,7.5036578 13.576581,7.8555558"
         id="path76447" />
    </g>
    <g
       id="g77209"
       transform="matrix(-0.97784934,0,0,1,12.234503,-0.20653682)">
      <path
         style="fill:#0e3410;fill-opacity:1;stroke-width:0.635;stroke-linecap:round;stroke-linejoin:round"
         d="M 6.4076637,5.0385047 C 4.0161994,3.2494705 2.2454206,4.8376947 1.3691589,6.1703428 2.6835514,7.4117134 5.3671031,7.2839253 6.4076637,5.0385047 Z"
         id="path77205" />
      <path
         style="fill:none;fill-opacity:1;stroke:#09210a;stroke-width:0.15875;stroke-linecap:round;stroke-linejoin:round;stroke-dasharray:none;stroke-opacity:1"
         d="M 6.2807929,5.0331579 C 4.9664003,4.7958369 3.0495779,5.5077997 2.6297024,5.8363977"
         id="path77207" />
    </g>
    <g
       id="g77215"
       transform="matrix(-0.97024,-0.12175248,-0.12451047,0.99221829,13.521452,5.5771336)">
      <path
         style="fill:#0e3410;fill-opacity:1;stroke-width:0.635;stroke-linecap:round;stroke-linejoin:round"
         d="M 6.4076637,5.0385047 C 4.0161994,3.2494705 2.2454206,4.8376947 1.3691589,6.1703428 2.6835514,7.4117134 5.3671031,7.2839253 6.4076637,5.0385047 Z"
         id="path77211" />
      <path
         style="fill:none;fill-opacity:1;stroke:#09210a;stroke-width:0.15875;stroke-linecap:round;stroke-linejoin:round;stroke-dasharray:none;stroke-opacity:1"
         d="M 6.2807929,5.0331579 C 4.9664003,4.7958369 3.0495779,5.5077997 2.6297024,5.8363977"
         id="path77213" />
    </g>
    <g
       id="g77221"
       transform="matrix(0.96079738,-0.12175248,0.1232987,0.99221829,3.6429062,2.6598005)">
      <path
         style="fill:#0e3410;fill-opacity:1;stroke-width:0.635;stroke-linecap:round;stroke-linejoin:round"
         d="M 6.4076637,5.0385047 C 4.0161994,3.2494705 2.2454206,4.8376947 1.3691589,6.1703428 2.6835514,7.4117134 5.3671031,7.2839253 6.4076637,5.0385047 Z"
         id="path77217" />
      <path
         style="fill:none;fill-opacity:1;stroke:#09210a;stroke-width:0.15875;stroke-linecap:round;stroke-linejoin:round;stroke-dasharray:none;stroke-opacity:1"
         d="M 6.2807929,5.0331579 C 4.9664003,4.7958369 3.0495779,5.5077997 2.6297024,5.8363977"
         id="path77219" />
    </g>
    <g
       id="g77999">
      <path
         style="fill:#0e3410;fill-opacity:1;stroke-width:0.635;stroke-linecap:round;stroke-linejoin:round"
         d="M 6.4076637,5.0385047 C 4.0161994,3.2494705 2.2454206,4.8376947 1.3691589,6.1703428 2.6835514,7.4117134 5.3671031,7.2839253 6.4076637,5.0385047 Z"
         id="path77995" />
      <path
         style="fill:none;fill-opacity:1;stroke:#09210a;stroke-width:0.15875;stroke-linecap:round;stroke-linejoin:round;stroke-dasharray:none;stroke-opacity:1"
         d="M 6.2807929,5.0331579 C 4.9664003,4.7958369 3.0495779,5.5077997 2.6297024,5.8363977"
         id="path77997" />
    </g>
    <g
       id="g78005"
       transform="matrix(-0.97784934,0,0,1,12.234503,-0.20653682)">
      <path
         style="fill:#0e3410;fill-opacity:1;stroke-width:0.635;stroke-linecap:round;stroke-linejoin:round"
         d="M 6.4076637,5.0385047 C 4.0161994,3.2494705 2.2454206,4.8376947 1.3691589,6.1703428 2.6835514,7.4117134 5.3671031,7.2839253 6.4076637,5.0385047 Z"
         id="path78001" />
      <path
         style="fill:none;fill-opacity:1;stroke:#09210a;stroke-width:0.15875;stroke-linecap:round;stroke-linejoin:round;stroke-dasharray:none;stroke-opacity:1"
         d="M 6.2807929,5.0331579 C 4.9664003,4.7958369 3.0495779,5.5077997 2.6297024,5.8363977"
         id="path78003" />
    </g>
    <g
       id="g78035"
       transform="rotate(19.813503,7.8350649,5.5173874)">
      <path
         style="fill:#0e3410;fill-opacity:1;stroke-width:0.635;stroke-linecap:round;stroke-linejoin:round"
         d="M 6.4076637,5.0385047 C 4.0161994,3.2494705 2.2454206,4.8376947 1.3691589,6.1703428 2.6835514,7.4117134 5.3671031,7.2839253 6.4076637,5.0385047 Z"
         id="path78031" />
      <path
         style="fill:none;fill-opacity:1;stroke:#09210a;stroke-width:0.15875;stroke-linecap:round;stroke-linejoin:round;stroke-dasharray:none;stroke-opacity:1"
         d="M 6.2807929,5.0331579 C 4.9664003,4.7958369 3.0495779,5.5077997 2.6297024,5.8363977"
         id="path78033" />
    </g>
    <g
       id="g78047"
       transform="rotate(-30.395342,9.8818186,6.3761754)">
      <path
         style="fill:#0e3410;fill-opacity:1;stroke-width:0.638788;stroke-linecap:round;stroke-linejoin:round"
         d="M 9.8054049,6.8445307 C 12.324333,5.1941078 14.022193,6.8802727 14.830971,8.2605048 13.431699,9.4252768 10.727755,9.1453898 9.8054049,6.8445307 Z"
         id="path78043" />
      <path
         style="fill:none;fill-opacity:1;stroke:#09210a;stroke-width:0.159697;stroke-linecap:round;stroke-linejoin:round;stroke-dasharray:none;stroke-opacity:1"
         d="M 9.9338941,6.8463937 C 11.275499,6.6840532 13.17124,7.5036578 13.576581,7.8555558"
         id="path78045" />
    </g>
    <g
       id="g78055"
       transform="rotate(27.608809,5.1097735,8.6731819)">
      <path
         style="fill:#0e3410;fill-opacity:1;stroke-width:0.635;stroke-linecap:round;stroke-linejoin:round"
         d="M 7.301638,8.600094 C 4.812492,6.9496711 3.1347069,8.635836 2.3354917,10.016068 3.7182195,11.18084 6.3901931,10.900953 7.301638,8.600094 Z"
         id="path78049" />
      <path
         style="fill:none;fill-opacity:1;stroke:#09210a;stroke-width:0.15875;stroke-linecap:round;stroke-linejoin:round;stroke-dasharray:none;stroke-opacity:1"
         d="M 7.1746682,8.601957 C 5.8489251,8.4396165 3.9755997,9.2592211 3.5750505,9.6111191"
         id="path78051" />
    </g>
    <g
       id="g78865"
       transform="matrix(-0.85511675,0.47430441,0.48504855,0.87448722,9.0970522,-3.0095356)">
      <path
         style="fill:#0e3410;fill-opacity:1;stroke-width:0.635;stroke-linecap:round;stroke-linejoin:round"
         d="M 6.4076637,5.0385047 C 4.0161994,3.2494705 2.2454206,4.8376947 1.3691589,6.1703428 2.6835514,7.4117134 5.3671031,7.2839253 6.4076637,5.0385047 Z"
         id="path78861" />
      <path
         style="fill:none;fill-opacity:1;stroke:#09210a;stroke-width:0.15875;stroke-linecap:round;stroke-linejoin:round;stroke-dasharray:none;stroke-opacity:1"
         d="M 6.2807929,5.0331579 C 4.9664003,4.7958369 3.0495779,5.5077997 2.6297024,5.8363977"
         id="path78863" />
    </g>
    <path
       style="fill:#b380ff;fill-opacity:1;stroke:none;stroke-width:0.15875;stroke-linecap:round;stroke-linejoin:round;stroke-dasharray:none;stroke-opacity:1"
       d="M 5.5741996,5.6699835 C 4.8489235,5.9243069 4.1260893,5.4652103 4.0584075,4.8017673 3.9907256,4.1383241 4.6582334,2.7810201 5.2800264,3.3834142 5.9018197,3.985808 6.2255855,4.2989628 6.3060368,4.3179216 6.447958,4.3513662 5.4785404,5.1884308 5.5741996,5.6699835 Z"
       id="path80006"
       sodipodi:nodetypes="csssc" />
    <g
       id="g78871"
       transform="matrix(0.81189562,0.52799694,-0.54712256,0.83687312,8.0164659,-0.62094405)">
      <path
         style="fill:#0e3410;fill-opacity:1;stroke-width:0.635;stroke-linecap:round;stroke-linejoin:round"
         d="M 6.4076637,5.0385047 C 4.0161994,3.2494705 2.2454206,4.8376947 1.3691589,6.1703428 2.6835514,7.4117134 5.3671031,7.2839253 6.4076637,5.0385047 Z"
         id="path78867" />
      <path
         style="fill:none;fill-opacity:1;stroke:#09210a;stroke-width:0.15875;stroke-linecap:round;stroke-linejoin:round;stroke-dasharray:none;stroke-opacity:1"
         d="M 6.2807929,5.0331579 C 4.9664003,4.7958369 3.0495779,5.5077997 2.6297024,5.8363977"
         id="path78869" />
    </g>
    <g
       id="g78877"
       transform="matrix(-0.69766337,0.68516797,0.70068869,0.71346714,7.6208517,1.7365489)">
      <path
         style="fill:#0e3410;fill-opacity:1;stroke-width:0.635;stroke-linecap:round;stroke-linejoin:round"
         d="M 6.4076637,5.0385047 C 4.0161994,3.2494705 2.2454206,4.8376947 1.3691589,6.1703428 2.6835514,7.4117134 5.3671031,7.2839253 6.4076637,5.0385047 Z"
         id="path78873" />
      <path
         style="fill:none;fill-opacity:1;stroke:#09210a;stroke-width:0.15875;stroke-linecap:round;stroke-linejoin:round;stroke-dasharray:none;stroke-opacity:1"
         d="M 6.2807929,5.0331579 C 4.9664003,4.7958369 3.0495779,5.5077997 2.6297024,5.8363977"
         id="path78875" />
    </g>
    <path
       style="fill:#b380ff;fill-opacity:1;stroke:none;stroke-width:0.15875;stroke-linecap:round;stroke-linejoin:round;stroke-dasharray:none;stroke-opacity:1"
       d="M 6.9422219,3.0142665 C 7.6671723,2.7590163 8.3905927,3.2171885 8.4591226,3.8805444 8.5276524,4.5439006 7.8618802,5.9020566 7.2393177,5.3004579 6.6167548,4.6988595 6.2946701,4.3712937 6.2121136,4.3672628 6.0680391,4.3593067 6.7790866,3.5548031 6.9422219,3.0142665 Z"
       id="path80008"
       sodipodi:nodetypes="csscc" />
    <path
       style="fill:#ff5599;fill-opacity:1;stroke:none;stroke-width:0.15875;stroke-linecap:round;stroke-linejoin:round;stroke-dasharray:none;stroke-opacity:1"
       d="M 4.9746108,3.5780685 C 4.7646729,2.8387229 5.2666978,2.1450156 5.9330218,2.1176324 6.5993459,2.0902492 7.9137385,2.8387229 7.2747975,3.4228972 6.6358568,4.0070718 6.3036712,4.3112805 6.2798755,4.3904361 6.2378983,4.5300717 5.4610724,3.511745 4.9746108,3.5780685 Z"
       id="path79764"
       sodipodi:nodetypes="csssc" />
    <path
       style="fill:#ff5599;fill-opacity:1;stroke:none;stroke-width:0.15875;stroke-linecap:round;stroke-linejoin:round;stroke-dasharray:none;stroke-opacity:1"
       d="M 7.5426144,5.1043959 C 7.7534972,5.8434725 7.2523594,6.537821 6.586071,6.5660559 5.9197824,6.5942908 4.6044342,5.8474979 5.2426279,5.2625073 5.8808213,4.6775164 6.2272897,4.3758584 6.2363123,4.2936974 6.2529782,4.1503691 7.0129483,4.9088281 7.5426144,5.1043959 Z"
       id="path79766"
       sodipodi:nodetypes="csscc" />
    <ellipse
       style="fill:#ffaacc;fill-opacity:1;stroke:none;stroke-width:0.15875;stroke-linecap:round;stroke-linejoin:round;stroke-dasharray:none;stroke-opacity:1"
       id="path79883"
       cx="6.2541943"
       cy="4.3114572"
       rx="0.49697933"
       ry="0.40016517" />
    <path
       style="fill:#ff5599;fill-opacity:1;stroke:none;stroke-width:0.152438;stroke-linecap:round;stroke-linejoin:round;stroke-dasharray:none;stroke-opacity:1"
       d="M 9.2248713,5.5468435 C 9.1511854,4.8373493 9.7677698,4.3072677 10.426332,4.4117751 c 0.658561,0.1045074 1.814083,1.0365385 1.082779,1.4409801 -0.731305,0.404442 -1.111598,0.6151604 -1.149102,0.6821425 -0.06616,0.118161 -0.6460547,-0.9536655 -1.1351377,-0.9880542 z"
       id="path79937"
       sodipodi:nodetypes="csssc" />
    <path
       style="fill:#b380ff;fill-opacity:1;stroke:none;stroke-width:0.15875;stroke-linecap:round;stroke-linejoin:round;stroke-dasharray:none;stroke-opacity:1"
       d="M 9.4976442,7.6493503 C 8.7325989,7.7229134 8.1404765,7.1043263 8.2333613,6.4439401 8.326246,5.7835538 9.298879,4.6251817 9.758633,5.3587561 c 0.459755,0.7335743 0.699269,1.1150492 0.772855,1.152691 0.129811,0.066403 -1.0116082,0.647445 -1.0338438,1.1379032 z"
       id="path80010"
       sodipodi:nodetypes="csssc" />
    <path
       style="fill:#ff5599;fill-opacity:1;stroke:none;stroke-width:0.152438;stroke-linecap:round;stroke-linejoin:round;stroke-dasharray:none;stroke-opacity:1"
       d="m 11.471032,7.4256882 c 0.07466,0.7094342 -0.541167,1.240268 -1.199847,1.1365377 C 9.6125059,8.4584958 8.4557462,7.5277997 9.1864634,7.1224747 9.9171804,6.7171493 10.31103,6.5115093 10.334579,6.4389425 c 0.04199,-0.1264112 0.651837,0.7070851 1.136453,0.9867457 z"
       id="path79939"
       sodipodi:nodetypes="csscc" />
    <path
       style="fill:#b380ff;fill-opacity:1;stroke:none;stroke-width:0.15875;stroke-linecap:round;stroke-linejoin:round;stroke-dasharray:none;stroke-opacity:1"
       d="m 11.460881,5.3976802 c 0.76495,-0.074541 1.357864,0.5432889 1.265823,1.2037932 -0.09204,0.6605044 -1.063192,1.8201188 -1.523883,1.0871329 -0.460692,-0.7329859 -0.695129,-1.1280521 -0.774328,-1.1517021 -0.137995,-0.042168 0.744762,-0.65336 1.032388,-1.139224 z"
       id="path80012"
       sodipodi:nodetypes="csscc" />
    <ellipse
       style="fill:#ffaacc;fill-opacity:1;stroke:none;stroke-width:0.152438;stroke-linecap:round;stroke-linejoin:round;stroke-dasharray:none;stroke-opacity:1"
       id="ellipse79941"
       cx="11.405337"
       cy="4.3279119"
       rx="0.49697933"
       ry="0.36897397"
       transform="rotate(11.187156)" />
    <path
       style="fill:#b380ff;fill-opacity:1;stroke:none;stroke-width:0.15875;stroke-linecap:round;stroke-linejoin:round;stroke-dasharray:none;stroke-opacity:1"
       d="M 6.022034,10.666698 C 5.369604,11.07295 4.5641005,10.782393 4.3534785,10.149641 4.1428564,9.5168883 4.4985631,8.0467476 5.2366783,8.4991755 5.9747944,8.9516029 6.3590173,9.1866833 6.4416663,9.1876559 6.5874652,9.1893718 5.8237415,10.217561 6.022034,10.666698 Z"
       id="path80014"
       sodipodi:nodetypes="csssc" />
    <path
       style="fill:#ff5599;fill-opacity:1;stroke:none;stroke-width:0.143045;stroke-linecap:round;stroke-linejoin:round;stroke-dasharray:none;stroke-opacity:1"
       d="M 5.0597924,8.8317367 C 4.666598,8.2266171 4.8886312,7.5011456 5.4439706,7.3266474 5.9993092,7.1521498 7.3289028,7.5161451 6.9591607,8.1758418 6.5894178,8.8355395 6.3973343,9.1789538 6.4003106,9.2541785 6.4055607,9.3868801 5.45171,8.6634528 5.0597924,8.8317367 Z"
       id="path79943"
       sodipodi:nodetypes="csssc" />
    <path
       style="fill:#b380ff;fill-opacity:1;stroke:none;stroke-width:0.15875;stroke-linecap:round;stroke-linejoin:round;stroke-dasharray:none;stroke-opacity:1"
       d="M 6.7784931,7.7767003 C 7.4304027,7.3696146 8.2362782,7.6591409 8.4477084,8.2916239 8.6591395,8.9241066 8.3053121,10.394701 7.5666195,9.9432171 6.8279259,9.4917334 6.442203,9.2422221 6.3607521,9.2562775 6.2184061,9.2799071 6.7370636,8.3397954 6.7784931,7.7767003 Z"
       id="path80016"
       sodipodi:nodetypes="csscc" />
    <path
       style="fill:#ff5599;fill-opacity:1;stroke:none;stroke-width:0.143045;stroke-linecap:round;stroke-linejoin:round;stroke-dasharray:none;stroke-opacity:1"
       d="M 7.6761643,9.5993686 C 8.0700786,10.204038 7.8489837,10.929874 7.2939226,11.105117 6.7388623,11.280358 5.4089515,10.918062 5.7778239,10.257813 6.1466959,9.5975638 6.3515999,9.2531776 6.335257,9.1786337 6.3075308,9.0483846 7.1713127,9.5462763 7.6761643,9.5993686 Z"
       id="path79945"
       sodipodi:nodetypes="csscc" />
    <ellipse
       style="fill:#ffaacc;fill-opacity:1;stroke:none;stroke-width:0.143168;stroke-linecap:round;stroke-linejoin:round;stroke-dasharray:none;stroke-opacity:1"
       id="ellipse79947"
       cx="3.15505"
       cy="10.536267"
       rx="0.43486345"
       ry="0.37195036"
       transform="matrix(0.96618758,-0.25784019,0.31388589,0.94946071,0,0)" />
  </g>
</svg>
