<?xml version="1.0" encoding="UTF-8" standalone="no"?>
<!-- Created with Inkscape (http://www.inkscape.org/) -->

<svg
   width="64"
   height="64"
   viewBox="0 0 16.933333 16.933334"
   version="1.1"
   id="svg5"
   inkscape:version="1.2.2 (732a01da63, 2022-12-09)"
   sodipodi:docname="title.svg"
   xmlns:inkscape="http://www.inkscape.org/namespaces/inkscape"
   xmlns:sodipodi="http://sodipodi.sourceforge.net/DTD/sodipodi-0.dtd"
   xmlns="http://www.w3.org/2000/svg"
   xmlns:svg="http://www.w3.org/2000/svg">
  <sodipodi:namedview
     id="namedview7"
     pagecolor="#505050"
     bordercolor="#eeeeee"
     borderopacity="1"
     inkscape:pageshadow="0"
     inkscape:pageopacity="0"
     inkscape:pagecheckerboard="0"
     inkscape:document-units="px"
     showgrid="false"
     inkscape:zoom="1.8116734"
     inkscape:cx="312.41833"
     inkscape:cy="63.753211"
     inkscape:window-width="1620"
     inkscape:window-height="1018"
     inkscape:window-x="-6"
     inkscape:window-y="-6"
     inkscape:window-maximized="1"
     inkscape:current-layer="layer1"
     units="px"
     width="64px"
     inkscape:showpageshadow="0"
     inkscape:deskcolor="#505050" />
  <defs
     id="defs2" />
  <g
     inkscape:label="Layer 1"
     inkscape:groupmode="layer"
     id="layer1">
    <path
       style="fill:none;stroke:#ffffff;stroke-width:0.873125;stroke-linejoin:round"
       d="M 7.6418638,-14.044506 C -4.3372742,2.6849793 0.72287902,20.240613 8.4680112,11.049722"
       id="path22111" />
    <path
       style="fill:none;stroke:#ffffff;stroke-width:0.873125;stroke-linejoin:round"
       d="m 13.321628,12.702017 c -4.5438114,1.549026 -3.098053,-7.4353271 0.929415,-11.256259 1.652295,3.4078582 0.826148,9.810501 -1.239221,11.256259"
       id="path22113" />
    <path
       style="fill:none;stroke:#ffffff;stroke-width:0.873125;stroke-linejoin:round"
       d="m 14.664117,8.4680112 c 0.722879,3.3045898 2.168637,5.0601528 3.407858,4.8536168"
       id="path22115" />
    <path
       style="fill:none;stroke:#ffffff;stroke-width:0.873125;stroke-linejoin:round"
       d="M 20.550418,13.115091 C 19.827539,1.445758 20.447149,0.72287902 20.447149,0.72287902"
       id="path22117" />
    <path
       style="fill:none;stroke:#ffffff;stroke-width:0.873125;stroke-linejoin:round"
       d="m 20.034076,3.8209319 c 0.206537,-2.168637 5.163421,-8.9843536 4.440542,0.2065369"
       id="path22119" />
    <path
       style="fill:none;stroke:#ffffff;stroke-width:0.873125;stroke-linejoin:round"
       d="M 28.811893,-0.61961058 C 26.643254,6.0928373 27.159596,8.8810851 29.121699,12.392212 30.567455,6.0928373 29.947844,-8.2614743 27.056328,-13.631433"
       id="path22121" />
    <path
       style="fill:none;stroke:#ffffff;stroke-width:0.873125;stroke-linejoin:round"
       d="M 32.632825,0.82614746 C 31.393602,5.9895689 34.801462,12.598749 34.801462,12.598749"
       id="path22123" />
    <path
       style="fill:none;stroke:#ffffff;stroke-width:0.873125;stroke-linejoin:round"
       d="M 34.466293,12.194642 C 35.269533,7.8133334 35.342556,6.2798755 35.342556,6.2798755 34.831402,8.6165732 37.241121,11.31838 37.241121,11.31838 38.701558,2.7748287 37.533209,0.65719626 37.533209,0.65719626"
       id="path22125" />
    <path
       style="fill:none;stroke:#ffffff;stroke-width:0.873125;stroke-linejoin:round"
       d="m 41.622431,11.537446 c -1.314392,-1.314393 -1.533459,-6.6449849 0.87626,-10.5151407 1.241371,2.4097196 1.89857,6.9370727 -0.87626,10.5151407 z"
       id="path22127" />
    <path
       style="fill:none;stroke:#ffffff;stroke-width:0.873125;stroke-linejoin:round"
       d="M 46.222805,0.21906542 C 45.565609,3.7971339 46.295827,10.003988 46.295827,11.391402"
       id="path22129" />
    <path
       style="fill:none;stroke:#ffffff;stroke-width:0.873125;stroke-linejoin:round"
       d="m 45.930718,2.6287851 c 1.314392,-3.35900318 4.600374,-6.0608102 3.578069,0.80324"
       id="path22131" />
    <path
       style="fill:none;stroke:#ffffff;stroke-width:0.873125;stroke-linejoin:round"
       d="M 53.699583,-15.180459 C 52.770168,-5.8863007 51.427678,6.9189848 53.183241,10.53338"
       id="path22133" />
    <path
       style="fill:none;stroke:#ffffff;stroke-width:0.873125;stroke-linejoin:round"
       d="m 52.150556,-2.7882478 c 0.10327,5.4732271 2.478445,10.53338 4.750348,12.8052858"
       id="path22135" />
    <path
       style="fill:none;stroke:#ffffff;stroke-width:0.873125;stroke-linejoin:round"
       d="m 52.253826,-0.10326843 c 1.9621,-4.64707937 4.027469,-6.71244787 4.543811,-0.82614744"
       id="path22137" />
    <path
       style="fill:none;stroke:#ffffff;stroke-width:0.873125;stroke-linejoin:round"
       d="M 82.19255,-16.978798 C 69.210606,-5.6724246 66.917942,15.903338 76.625177,10.120306"
       id="path22139"
       sodipodi:nodetypes="cc" />
    <path
       style="fill:none;stroke:#ffffff;stroke-width:0.873125;stroke-linejoin:round"
       d="M 79.516692,2.0653686 C 78.484007,6.8157163 78.277471,15.80007 80.962449,10.636648"
       id="path22141" />
    <path
       style="fill:none;stroke:#ffffff;stroke-width:0.873125;stroke-linejoin:round"
       d="M 83.234355,2.891516 C 81.168986,9.6039641 74.353271,35.834146 71.461754,17.865439"
       id="path22143" />
    <path
       style="fill:none;stroke:#ffffff;stroke-width:0.873125;stroke-linejoin:round"
       d="M 88.087972,3.3045898 C 84.267039,6.1961058 81.478791,14.354312 85.60953,11.87587"
       id="path22145" />
    <path
       style="fill:none;stroke:#ffffff;stroke-width:0.873125;stroke-linejoin:round"
       d="M 96.76252,-14.45758 C 88.707581,6.7124481 90.050072,11.669333 90.359878,12.392212"
       id="path22147" />
    <path
       style="fill:none;stroke:#ffffff;stroke-width:0.873125;stroke-linejoin:round"
       d="m 94.077542,8.4163772 c 3.562759,-5.4215928 0.267601,-9.659607 -0.309807,-3.356224 -0.619609,6.7640818 -0.413072,9.0359878 2.065369,5.9895688"
       id="path22149"
       sodipodi:nodetypes="csc" />
  </g>
</svg>
