<?xml version="1.0" encoding="UTF-8" standalone="no"?>
<!-- Created with Inkscape (http://www.inkscape.org/) -->

<svg
   width="64"
   height="64"
   viewBox="0 0 16.933333 16.933334"
   version="1.1"
   id="svg5"
   inkscape:version="1.2.2 (732a01da63, 2022-12-09)"
   sodipodi:docname="growth_3_more_simple.svg"
   xmlns:inkscape="http://www.inkscape.org/namespaces/inkscape"
   xmlns:sodipodi="http://sodipodi.sourceforge.net/DTD/sodipodi-0.dtd"
   xmlns="http://www.w3.org/2000/svg"
   xmlns:svg="http://www.w3.org/2000/svg">
  <sodipodi:namedview
     id="namedview7"
     pagecolor="#505050"
     bordercolor="#eeeeee"
     borderopacity="1"
     inkscape:pageshadow="0"
     inkscape:pageopacity="0"
     inkscape:pagecheckerboard="0"
     inkscape:document-units="px"
     showgrid="false"
     inkscape:zoom="7.2466938"
     inkscape:cx="44.089071"
     inkscape:cy="19.66414"
     inkscape:window-width="1620"
     inkscape:window-height="1018"
     inkscape:window-x="-6"
     inkscape:window-y="-6"
     inkscape:window-maximized="1"
     inkscape:current-layer="layer1"
     units="px"
     width="64px"
     inkscape:showpageshadow="0"
     inkscape:deskcolor="#505050" />
  <defs
     id="defs2" />
  <g
     inkscape:label="Layer 1"
     inkscape:groupmode="layer"
     id="layer1">
    <g
       id="g15314">
      <path
         style="fill:#4f8400;fill-opacity:1;stroke:none;stroke-width:0.132292;stroke-linecap:round;stroke-linejoin:round;stroke-dasharray:none;stroke-opacity:1"
         d="M 8.7717447,8.397508 C 9.1952067,8.0415267 9.764916,7.1643475 9.9771417,6.6714503 10.02704,6.5555604 8.7218733,4.5074853 8.8486624,4.4833271 9.0218763,4.4503232 9.4389569,3.8709812 9.3723163,4.4924698 9.303593,5.1333827 10.93749,6.7316103 11.004905,6.7765536 c 0,0 -1.5029424,0.7173094 -1.0283006,1.4840384"
         id="path10654"
         sodipodi:nodetypes="cssscc" />
      <path
         style="fill:#705331;fill-opacity:1;stroke-width:0.989695;stroke-linejoin:round"
         d="M 10.679772,8.6441014 C 10.586481,8.842093 10.092061,9.1308311 9.4577071,9.081333 8.8233536,9.031835 8.5155048,8.9245898 8.2356423,8.726598 7.9557809,8.5286062 8.8070564,8.4150269 9.1837949,7.9910492 c 0.03043,0.1885278 0.4222012,0.2909826 0.6954666,0.084756"
         id="path5195"
         sodipodi:nodetypes="csscc" />
      <path
         style="fill:#4f8400;fill-opacity:1;stroke-width:0.514879;stroke-linejoin:round"
         d="M 12.443845,3.7822062 C 11.114264,4.28564 10.507562,5.3312326 10.133214,7.2416987 11.940412,7.0351618 12.856919,5.4990438 12.443845,3.7822062 Z"
         id="path9673" />
      <path
         style="fill:none;fill-opacity:1;stroke:#447200;stroke-width:0.132292;stroke-linecap:round;stroke-linejoin:round;stroke-dasharray:none;stroke-opacity:1"
         d="M 10.218846,7.1679383 C 10.547444,6.7937016 11.689531,4.5657439 12.420934,3.8327085"
         id="path10652"
         sodipodi:nodetypes="cc" />
      <path
         style="fill:#4f8400;fill-opacity:1;stroke-width:0.515661;stroke-linejoin:round"
         d="m 14.109113,5.961952 c -0.854347,1.1403136 -2.027706,1.4328556 -3.96682,1.2600779 0.702454,-1.6833297 2.433301,-2.1373703 3.96682,-1.2600779 z"
         id="path9813" />
      <path
         style="fill:none;fill-opacity:1;stroke:#447200;stroke-width:0.132292;stroke-linecap:round;stroke-linejoin:round;stroke-dasharray:none;stroke-opacity:1"
         d="m 10.191463,7.1496828 c 0.328598,-0.3742367 2.8519,-1.4533331 3.828566,-1.1795013"
         id="path9817"
         sodipodi:nodetypes="cc" />
      <path
         style="fill:#4f8400;fill-opacity:1;stroke-width:0.515661;stroke-linejoin:round"
         d="m 13.874579,9.0161889 c -1.402823,0.249623 -2.45977,-0.3379255 -3.758371,-1.7883224 1.662672,-0.7500381 3.237168,0.1002266 3.758371,1.7883224 z"
         id="path9815" />
      <path
         style="fill:none;fill-opacity:1;stroke:#447200;stroke-width:0.132292;stroke-linecap:round;stroke-linejoin:round;stroke-dasharray:none;stroke-opacity:1"
         d="m 10.227974,7.1679383 c 1.232242,-0.4016199 1.856978,1.138941 3.582118,1.7596264"
         id="path10650"
         sodipodi:nodetypes="cc" />
      <path
         style="fill:#ff6600;fill-opacity:1;stroke:none;stroke-width:0.20913;stroke-linecap:round;stroke-linejoin:round;stroke-dasharray:none;stroke-opacity:1"
         d="M 8.8579202,4.5232126 C 7.9419148,5.9483628 9.0522244,8.1685965 9.3159229,8.3336138 9.8849569,7.4485205 10.107019,5.5883246 8.8579202,4.5232126 Z"
         id="path12384" />
      <path
         style="fill:#ff6600;fill-opacity:1;stroke:none;stroke-width:0.20913;stroke-linecap:round;stroke-linejoin:round;stroke-dasharray:none;stroke-opacity:1"
         d="M 8.7990486,4.5009168 C 9.8104089,5.8486307 12.092381,5.3140453 12.312424,5.0862227 11.684358,4.2490699 10.093233,3.5006687 8.7990486,4.5009168 Z"
         id="path12386" />
      <path
         style="fill:#ff6600;fill-opacity:1;stroke:none;stroke-width:0.20913;stroke-linecap:round;stroke-linejoin:round;stroke-dasharray:none;stroke-opacity:1"
         d="M 8.9795183,4.4217665 C 7.718095,3.3483023 5.6013675,4.4136647 5.4332218,4.6883289 6.2166226,5.3551644 7.9212651,5.7058757 8.9795183,4.4217665 Z"
         id="path12388" />
      <path
         style="fill:#ff6600;fill-opacity:1;stroke:none;stroke-width:0.20913;stroke-linecap:round;stroke-linejoin:round;stroke-dasharray:none;stroke-opacity:1"
         d="M 8.9235269,4.4226427 C 9.7530633,2.9369118 8.6520582,2.1183793 8.3791089,1.9719876 7.8637777,2.8947141 7.6137867,3.4463367 8.9235269,4.4226427 Z"
         id="path12390"
         sodipodi:nodetypes="ccc" />
      <ellipse
         style="fill:#ff7f2a;fill-opacity:1;stroke:none;stroke-width:0.132292;stroke-linecap:round;stroke-linejoin:round;stroke-dasharray:none;stroke-opacity:1"
         id="path12444"
         cx="8.9488554"
         cy="4.5147667"
         rx="0.31948671"
         ry="0.29366958" />
      <path
         style="fill:#ff7f2a;fill-opacity:1;stroke:none;stroke-width:0.132292;stroke-linecap:round;stroke-linejoin:round;stroke-dasharray:none;stroke-opacity:1"
         d="m 8.3841058,1.9943716 0.5421593,2.3493569 c 0,0 -0.7123885,-0.3781721 -0.903599,-0.9100532 C 7.8246637,2.8829016 8.3457008,1.9272001 8.3970143,1.9491916"
         id="path15289"
         sodipodi:nodetypes="ccsc" />
      <path
         style="fill:#ff7f2a;fill-opacity:1;stroke:none;stroke-width:0.132292;stroke-linecap:round;stroke-linejoin:round;stroke-dasharray:none;stroke-opacity:1"
         d="M 8.7068197,4.4663597 C 8.0033034,4.4276339 5.4538641,4.6793508 5.4538641,4.6793508 c 0,0 0.6646154,-0.5790778 1.7168376,-0.697062 1.2979371,-0.1455359 1.6396725,0.2741636 1.7491091,0.3614397"
         id="path15291"
         sodipodi:nodetypes="ccsc" />
      <path
         style="fill:#ff7f2a;fill-opacity:1;stroke:none;stroke-width:0.132292;stroke-linecap:round;stroke-linejoin:round;stroke-dasharray:none;stroke-opacity:1"
         d="M 9.0811675,4.3824539 C 9.4167902,4.1759173 9.5830084,3.9812623 10.443669,4.0388114 c 1.009516,0.067502 1.73078,0.793416 1.83882,1.0471588 0.10538,0.2474963 -2.8721534,-0.5034336 -3.2013215,-0.7035163 z"
         id="path15293"
         sodipodi:nodetypes="cssc" />
      <path
         style="fill:#ff7f2a;fill-opacity:1;stroke:none;stroke-width:0.132292;stroke-linecap:round;stroke-linejoin:round;stroke-dasharray:none;stroke-opacity:1"
         d="M 8.9634269,4.8194392 C 9.0181929,5.4492524 9.328536,8.3244861 9.328536,8.3244861 9.2582999,8.3806749 8.5935044,7.0127643 8.5344238,6.1794704 8.4714934,5.291877 8.7642538,4.5837553 8.8265111,4.5456074"
         id="path15295"
         sodipodi:nodetypes="ccsc" />
    </g>
    <g
       id="g15350">
      <path
         style="fill:#4f8400;fill-opacity:1;stroke:none;stroke-width:0.132292;stroke-linecap:round;stroke-linejoin:round;stroke-dasharray:none;stroke-opacity:1"
         d="M 8.7717447,8.397508 C 9.1952067,8.0415267 9.764916,7.1643475 9.9771417,6.6714503 10.02704,6.5555604 8.7218733,4.5074853 8.8486624,4.4833271 9.0218763,4.4503232 9.4389569,3.8709812 9.3723163,4.4924698 9.303593,5.1333827 10.93749,6.7316103 11.004905,6.7765536 c 0,0 -1.5029424,0.7173094 -1.0283006,1.4840384"
         id="path15316"
         sodipodi:nodetypes="cssscc" />
      <path
         style="fill:#705331;fill-opacity:1;stroke-width:0.989695;stroke-linejoin:round"
         d="M 10.679772,8.6441014 C 10.586481,8.842093 10.092061,9.1308311 9.4577071,9.081333 8.8233536,9.031835 8.5155048,8.9245898 8.2356423,8.726598 7.9557809,8.5286062 8.8070564,8.4150269 9.1837949,7.9910492 c 0.03043,0.1885278 0.4222012,0.2909826 0.6954666,0.084756"
         id="path15318"
         sodipodi:nodetypes="csscc" />
      <path
         style="fill:#4f8400;fill-opacity:1;stroke-width:0.514879;stroke-linejoin:round"
         d="M 12.443845,3.7822062 C 11.114264,4.28564 10.507562,5.3312326 10.133214,7.2416987 11.940412,7.0351618 12.856919,5.4990438 12.443845,3.7822062 Z"
         id="path15320" />
      <path
         style="fill:none;fill-opacity:1;stroke:#447200;stroke-width:0.132292;stroke-linecap:round;stroke-linejoin:round;stroke-dasharray:none;stroke-opacity:1"
         d="M 10.218846,7.1679383 C 10.547444,6.7937016 11.689531,4.5657439 12.420934,3.8327085"
         id="path15322"
         sodipodi:nodetypes="cc" />
      <path
         style="fill:#4f8400;fill-opacity:1;stroke-width:0.515661;stroke-linejoin:round"
         d="m 14.109113,5.961952 c -0.854347,1.1403136 -2.027706,1.4328556 -3.96682,1.2600779 0.702454,-1.6833297 2.433301,-2.1373703 3.96682,-1.2600779 z"
         id="path15324" />
      <path
         style="fill:none;fill-opacity:1;stroke:#447200;stroke-width:0.132292;stroke-linecap:round;stroke-linejoin:round;stroke-dasharray:none;stroke-opacity:1"
         d="m 10.191463,7.1496828 c 0.328598,-0.3742367 2.8519,-1.4533331 3.828566,-1.1795013"
         id="path15326"
         sodipodi:nodetypes="cc" />
      <path
         style="fill:#4f8400;fill-opacity:1;stroke-width:0.515661;stroke-linejoin:round"
         d="m 13.874579,9.0161889 c -1.402823,0.249623 -2.45977,-0.3379255 -3.758371,-1.7883224 1.662672,-0.7500381 3.237168,0.1002266 3.758371,1.7883224 z"
         id="path15328" />
      <path
         style="fill:none;fill-opacity:1;stroke:#447200;stroke-width:0.132292;stroke-linecap:round;stroke-linejoin:round;stroke-dasharray:none;stroke-opacity:1"
         d="m 10.227974,7.1679383 c 1.232242,-0.4016199 1.856978,1.138941 3.582118,1.7596264"
         id="path15330"
         sodipodi:nodetypes="cc" />
      <path
         style="fill:#ff6600;fill-opacity:1;stroke:none;stroke-width:0.20913;stroke-linecap:round;stroke-linejoin:round;stroke-dasharray:none;stroke-opacity:1"
         d="M 8.8579202,4.5232126 C 7.9419148,5.9483628 9.0522244,8.1685965 9.3159229,8.3336138 9.8849569,7.4485205 10.107019,5.5883246 8.8579202,4.5232126 Z"
         id="path15332" />
      <path
         style="fill:#ff6600;fill-opacity:1;stroke:none;stroke-width:0.20913;stroke-linecap:round;stroke-linejoin:round;stroke-dasharray:none;stroke-opacity:1"
         d="M 8.7990486,4.5009168 C 9.8104089,5.8486307 12.092381,5.3140453 12.312424,5.0862227 11.684358,4.2490699 10.093233,3.5006687 8.7990486,4.5009168 Z"
         id="path15334" />
      <path
         style="fill:#ff6600;fill-opacity:1;stroke:none;stroke-width:0.20913;stroke-linecap:round;stroke-linejoin:round;stroke-dasharray:none;stroke-opacity:1"
         d="M 8.9795183,4.4217665 C 7.718095,3.3483023 5.6013675,4.4136647 5.4332218,4.6883289 6.2166226,5.3551644 7.9212651,5.7058757 8.9795183,4.4217665 Z"
         id="path15336" />
      <path
         style="fill:#ff6600;fill-opacity:1;stroke:none;stroke-width:0.20913;stroke-linecap:round;stroke-linejoin:round;stroke-dasharray:none;stroke-opacity:1"
         d="M 8.9235269,4.4226427 C 9.7530633,2.9369118 8.6520582,2.1183793 8.3791089,1.9719876 7.8637777,2.8947141 7.6137867,3.4463367 8.9235269,4.4226427 Z"
         id="path15338"
         sodipodi:nodetypes="ccc" />
      <ellipse
         style="fill:#ff7f2a;fill-opacity:1;stroke:none;stroke-width:0.132292;stroke-linecap:round;stroke-linejoin:round;stroke-dasharray:none;stroke-opacity:1"
         id="ellipse15340"
         cx="8.9488554"
         cy="4.5147667"
         rx="0.31948671"
         ry="0.29366958" />
      <path
         style="fill:#ff7f2a;fill-opacity:1;stroke:none;stroke-width:0.132292;stroke-linecap:round;stroke-linejoin:round;stroke-dasharray:none;stroke-opacity:1"
         d="m 8.3841058,1.9943716 0.5421593,2.3493569 c 0,0 -0.7123885,-0.3781721 -0.903599,-0.9100532 C 7.8246637,2.8829016 8.3457008,1.9272001 8.3970143,1.9491916"
         id="path15342"
         sodipodi:nodetypes="ccsc" />
      <path
         style="fill:#ff7f2a;fill-opacity:1;stroke:none;stroke-width:0.132292;stroke-linecap:round;stroke-linejoin:round;stroke-dasharray:none;stroke-opacity:1"
         d="M 8.7068197,4.4663597 C 8.0033034,4.4276339 5.4538641,4.6793508 5.4538641,4.6793508 c 0,0 0.6646154,-0.5790778 1.7168376,-0.697062 1.2979371,-0.1455359 1.6396725,0.2741636 1.7491091,0.3614397"
         id="path15344"
         sodipodi:nodetypes="ccsc" />
      <path
         style="fill:#ff7f2a;fill-opacity:1;stroke:none;stroke-width:0.132292;stroke-linecap:round;stroke-linejoin:round;stroke-dasharray:none;stroke-opacity:1"
         d="M 9.0811675,4.3824539 C 9.4167902,4.1759173 9.5830084,3.9812623 10.443669,4.0388114 c 1.009516,0.067502 1.73078,0.793416 1.83882,1.0471588 0.10538,0.2474963 -2.8721534,-0.5034336 -3.2013215,-0.7035163 z"
         id="path15346"
         sodipodi:nodetypes="cssc" />
      <path
         style="fill:#ff7f2a;fill-opacity:1;stroke:none;stroke-width:0.132292;stroke-linecap:round;stroke-linejoin:round;stroke-dasharray:none;stroke-opacity:1"
         d="M 8.9634269,4.8194392 C 9.0181929,5.4492524 9.328536,8.3244861 9.328536,8.3244861 9.2582999,8.3806749 8.5935044,7.0127643 8.5344238,6.1794704 8.4714934,5.291877 8.7642538,4.5837553 8.8265111,4.5456074"
         id="path15348"
         sodipodi:nodetypes="ccsc" />
    </g>
    <g
       id="g15386"
       transform="matrix(-0.88953448,0,0,1,14.282459,4.7829283)">
      <path
         style="fill:#4f8400;fill-opacity:1;stroke:none;stroke-width:0.132292;stroke-linecap:round;stroke-linejoin:round;stroke-dasharray:none;stroke-opacity:1"
         d="M 8.7717447,8.397508 C 9.1952067,8.0415267 9.764916,7.1643475 9.9771417,6.6714503 10.02704,6.5555604 8.7218733,4.5074853 8.8486624,4.4833271 9.0218763,4.4503232 9.4389569,3.8709812 9.3723163,4.4924698 9.303593,5.1333827 10.93749,6.7316103 11.004905,6.7765536 c 0,0 -1.5029424,0.7173094 -1.0283006,1.4840384"
         id="path15352"
         sodipodi:nodetypes="cssscc" />
      <path
         style="fill:#705331;fill-opacity:1;stroke-width:0.989695;stroke-linejoin:round"
         d="M 10.679772,8.6441014 C 10.586481,8.842093 10.092061,9.1308311 9.4577071,9.081333 8.8233536,9.031835 8.5155048,8.9245898 8.2356423,8.726598 7.9557809,8.5286062 8.8070564,8.4150269 9.1837949,7.9910492 c 0.03043,0.1885278 0.4222012,0.2909826 0.6954666,0.084756"
         id="path15354"
         sodipodi:nodetypes="csscc" />
      <path
         style="fill:#4f8400;fill-opacity:1;stroke-width:0.514879;stroke-linejoin:round"
         d="M 12.443845,3.7822062 C 11.114264,4.28564 10.507562,5.3312326 10.133214,7.2416987 11.940412,7.0351618 12.856919,5.4990438 12.443845,3.7822062 Z"
         id="path15356" />
      <path
         style="fill:none;fill-opacity:1;stroke:#447200;stroke-width:0.132292;stroke-linecap:round;stroke-linejoin:round;stroke-dasharray:none;stroke-opacity:1"
         d="M 10.218846,7.1679383 C 10.547444,6.7937016 11.689531,4.5657439 12.420934,3.8327085"
         id="path15358"
         sodipodi:nodetypes="cc" />
      <path
         style="fill:#4f8400;fill-opacity:1;stroke-width:0.515661;stroke-linejoin:round"
         d="m 14.109113,5.961952 c -0.854347,1.1403136 -2.027706,1.4328556 -3.96682,1.2600779 0.702454,-1.6833297 2.433301,-2.1373703 3.96682,-1.2600779 z"
         id="path15360" />
      <path
         style="fill:none;fill-opacity:1;stroke:#447200;stroke-width:0.132292;stroke-linecap:round;stroke-linejoin:round;stroke-dasharray:none;stroke-opacity:1"
         d="m 10.191463,7.1496828 c 0.328598,-0.3742367 2.8519,-1.4533331 3.828566,-1.1795013"
         id="path15362"
         sodipodi:nodetypes="cc" />
      <path
         style="fill:#4f8400;fill-opacity:1;stroke-width:0.515661;stroke-linejoin:round"
         d="m 13.874579,9.0161889 c -1.402823,0.249623 -2.45977,-0.3379255 -3.758371,-1.7883224 1.662672,-0.7500381 3.237168,0.1002266 3.758371,1.7883224 z"
         id="path15364" />
      <path
         style="fill:none;fill-opacity:1;stroke:#447200;stroke-width:0.132292;stroke-linecap:round;stroke-linejoin:round;stroke-dasharray:none;stroke-opacity:1"
         d="m 10.227974,7.1679383 c 1.232242,-0.4016199 1.856978,1.138941 3.582118,1.7596264"
         id="path15366"
         sodipodi:nodetypes="cc" />
      <path
         style="fill:#ff6600;fill-opacity:1;stroke:none;stroke-width:0.20913;stroke-linecap:round;stroke-linejoin:round;stroke-dasharray:none;stroke-opacity:1"
         d="M 8.8579202,4.5232126 C 7.9419148,5.9483628 9.0522244,8.1685965 9.3159229,8.3336138 9.8849569,7.4485205 10.107019,5.5883246 8.8579202,4.5232126 Z"
         id="path15368" />
      <path
         style="fill:#ff6600;fill-opacity:1;stroke:none;stroke-width:0.20913;stroke-linecap:round;stroke-linejoin:round;stroke-dasharray:none;stroke-opacity:1"
         d="M 8.7990486,4.5009168 C 9.8104089,5.8486307 12.092381,5.3140453 12.312424,5.0862227 11.684358,4.2490699 10.093233,3.5006687 8.7990486,4.5009168 Z"
         id="path15370" />
      <path
         style="fill:#ff6600;fill-opacity:1;stroke:none;stroke-width:0.20913;stroke-linecap:round;stroke-linejoin:round;stroke-dasharray:none;stroke-opacity:1"
         d="M 8.9795183,4.4217665 C 7.718095,3.3483023 5.6013675,4.4136647 5.4332218,4.6883289 6.2166226,5.3551644 7.9212651,5.7058757 8.9795183,4.4217665 Z"
         id="path15372" />
      <path
         style="fill:#ff6600;fill-opacity:1;stroke:none;stroke-width:0.20913;stroke-linecap:round;stroke-linejoin:round;stroke-dasharray:none;stroke-opacity:1"
         d="M 8.9235269,4.4226427 C 9.7530633,2.9369118 8.6520582,2.1183793 8.3791089,1.9719876 7.8637777,2.8947141 7.6137867,3.4463367 8.9235269,4.4226427 Z"
         id="path15374"
         sodipodi:nodetypes="ccc" />
      <ellipse
         style="fill:#ff7f2a;fill-opacity:1;stroke:none;stroke-width:0.132292;stroke-linecap:round;stroke-linejoin:round;stroke-dasharray:none;stroke-opacity:1"
         id="ellipse15376"
         cx="8.9488554"
         cy="4.5147667"
         rx="0.31948671"
         ry="0.29366958" />
      <path
         style="fill:#ff7f2a;fill-opacity:1;stroke:none;stroke-width:0.132292;stroke-linecap:round;stroke-linejoin:round;stroke-dasharray:none;stroke-opacity:1"
         d="m 8.3841058,1.9943716 0.5421593,2.3493569 c 0,0 -0.7123885,-0.3781721 -0.903599,-0.9100532 C 7.8246637,2.8829016 8.3457008,1.9272001 8.3970143,1.9491916"
         id="path15378"
         sodipodi:nodetypes="ccsc" />
      <path
         style="fill:#ff7f2a;fill-opacity:1;stroke:none;stroke-width:0.132292;stroke-linecap:round;stroke-linejoin:round;stroke-dasharray:none;stroke-opacity:1"
         d="M 8.7068197,4.4663597 C 8.0033034,4.4276339 5.4538641,4.6793508 5.4538641,4.6793508 c 0,0 0.6646154,-0.5790778 1.7168376,-0.697062 1.2979371,-0.1455359 1.6396725,0.2741636 1.7491091,0.3614397"
         id="path15380"
         sodipodi:nodetypes="ccsc" />
      <path
         style="fill:#ff7f2a;fill-opacity:1;stroke:none;stroke-width:0.132292;stroke-linecap:round;stroke-linejoin:round;stroke-dasharray:none;stroke-opacity:1"
         d="M 9.0811675,4.3824539 C 9.4167902,4.1759173 9.5830084,3.9812623 10.443669,4.0388114 c 1.009516,0.067502 1.73078,0.793416 1.83882,1.0471588 0.10538,0.2474963 -2.8721534,-0.5034336 -3.2013215,-0.7035163 z"
         id="path15382"
         sodipodi:nodetypes="cssc" />
      <path
         style="fill:#ff7f2a;fill-opacity:1;stroke:none;stroke-width:0.132292;stroke-linecap:round;stroke-linejoin:round;stroke-dasharray:none;stroke-opacity:1"
         d="M 8.9634269,4.8194392 C 9.0181929,5.4492524 9.328536,8.3244861 9.328536,8.3244861 9.2582999,8.3806749 8.5935044,7.0127643 8.5344238,6.1794704 8.4714934,5.291877 8.7642538,4.5837553 8.8265111,4.5456074"
         id="path15384"
         sodipodi:nodetypes="ccsc" />
    </g>
  </g>
</svg>
