<?xml version="1.0" encoding="UTF-8" standalone="no"?>
<!-- Created with Inkscape (http://www.inkscape.org/) -->

<svg
   width="64"
   height="64"
   viewBox="0 0 16.933333 16.933334"
   version="1.1"
   id="svg5"
   inkscape:version="1.2.2 (732a01da63, 2022-12-09)"
   sodipodi:docname="growth_3.svg"
   xmlns:inkscape="http://www.inkscape.org/namespaces/inkscape"
   xmlns:sodipodi="http://sodipodi.sourceforge.net/DTD/sodipodi-0.dtd"
   xmlns="http://www.w3.org/2000/svg"
   xmlns:svg="http://www.w3.org/2000/svg">
  <sodipodi:namedview
     id="namedview7"
     pagecolor="#505050"
     bordercolor="#eeeeee"
     borderopacity="1"
     inkscape:pageshadow="0"
     inkscape:pageopacity="0"
     inkscape:pagecheckerboard="0"
     inkscape:document-units="px"
     showgrid="false"
     inkscape:zoom="10.248373"
     inkscape:cx="23.369564"
     inkscape:cy="11.757964"
     inkscape:window-width="1620"
     inkscape:window-height="1018"
     inkscape:window-x="-6"
     inkscape:window-y="-6"
     inkscape:window-maximized="1"
     inkscape:current-layer="layer1"
     units="px"
     width="64px"
     inkscape:showpageshadow="0"
     inkscape:deskcolor="#505050" />
  <defs
     id="defs2" />
  <g
     inkscape:label="Layer 1"
     inkscape:groupmode="layer"
     id="layer1">
    <path
       style="fill:#4f8400;fill-opacity:1;stroke:none;stroke-width:0.132292;stroke-linecap:round;stroke-linejoin:round;stroke-dasharray:none;stroke-opacity:1"
       d="M 8.7717447,8.397508 C 9.1952067,8.0415267 9.764916,7.1643475 9.9771417,6.6714503 10.02704,6.5555604 8.7218733,4.5074853 8.8486624,4.4833271 9.0218763,4.4503232 9.4389569,3.8709812 9.3723163,4.4924698 9.303593,5.1333827 10.93749,6.7316103 11.004905,6.7765536 c 0,0 -1.5029424,0.7173094 -1.0283006,1.4840384"
       id="path10654"
       sodipodi:nodetypes="cssscc" />
    <path
       style="fill:#705331;fill-opacity:1;stroke-width:0.989695;stroke-linejoin:round"
       d="M 10.679772,8.6441014 C 10.586481,8.842093 10.092061,9.1308311 9.4577071,9.081333 8.8233536,9.031835 8.5155048,8.9245898 8.2356423,8.726598 7.9557809,8.5286062 8.8070564,8.4150269 9.1837949,7.9910492 c 0.03043,0.1885278 0.4222012,0.2909826 0.6954666,0.084756"
       id="path5195"
       sodipodi:nodetypes="csscc" />
    <path
       style="fill:#4f8400;fill-opacity:1;stroke-width:0.514879;stroke-linejoin:round"
       d="M 12.443845,3.7822062 C 11.114264,4.28564 10.507562,5.3312326 10.133214,7.2416987 11.940412,7.0351618 12.856919,5.4990438 12.443845,3.7822062 Z"
       id="path9673" />
    <path
       style="fill:none;fill-opacity:1;stroke:#447200;stroke-width:0.132292;stroke-linecap:round;stroke-linejoin:round;stroke-dasharray:none;stroke-opacity:1"
       d="M 10.218846,7.1679383 C 10.547444,6.7937016 11.689531,4.5657439 12.420934,3.8327085"
       id="path10652"
       sodipodi:nodetypes="cc" />
    <path
       style="fill:#4f8400;fill-opacity:1;stroke-width:0.515661;stroke-linejoin:round"
       d="m 14.109113,5.961952 c -0.854347,1.1403136 -2.027706,1.4328556 -3.96682,1.2600779 0.702454,-1.6833297 2.433301,-2.1373703 3.96682,-1.2600779 z"
       id="path9813" />
    <path
       style="fill:none;fill-opacity:1;stroke:#447200;stroke-width:0.132292;stroke-linecap:round;stroke-linejoin:round;stroke-dasharray:none;stroke-opacity:1"
       d="m 10.191463,7.1496828 c 0.328598,-0.3742367 2.8519,-1.4533331 3.828566,-1.1795013"
       id="path9817"
       sodipodi:nodetypes="cc" />
    <path
       style="fill:#4f8400;fill-opacity:1;stroke-width:0.515661;stroke-linejoin:round"
       d="m 13.874579,9.0161889 c -1.402823,0.249623 -2.45977,-0.3379255 -3.758371,-1.7883224 1.662672,-0.7500381 3.237168,0.1002266 3.758371,1.7883224 z"
       id="path9815" />
    <path
       style="fill:none;fill-opacity:1;stroke:#447200;stroke-width:0.132292;stroke-linecap:round;stroke-linejoin:round;stroke-dasharray:none;stroke-opacity:1"
       d="m 10.227974,7.1679383 c 1.232242,-0.4016199 1.856978,1.138941 3.582118,1.7596264"
       id="path10650"
       sodipodi:nodetypes="cc" />
    <path
       style="fill:#4f8400;fill-opacity:1;stroke:none;stroke-width:0.125288;stroke-linecap:round;stroke-linejoin:round;stroke-dasharray:none;stroke-opacity:1"
       d="M 7.5893975,6.6347487 C 7.1664934,6.3150427 6.2881378,5.446098 6.0761914,5.0034282 5.8631624,4.5584968 5.4107452,5.1673801 5.4107452,5.1673801 c 0,0 1.4493964,0.6558071 0.9753799,1.3444047"
       id="path10725"
       sodipodi:nodetypes="cscc" />
    <path
       style="fill:#4f8400;fill-opacity:1;stroke-width:0.487619;stroke-linejoin:round"
       d="M 3.9221349,2.4897567 C 5.2499643,2.9418894 5.855867,3.8809338 6.2297219,5.596719 4.4249047,5.4112287 3.5096051,4.0316446 3.9221349,2.4897567 Z"
       id="path10729" />
    <path
       style="fill:none;fill-opacity:1;stroke:#447200;stroke-width:0.125288;stroke-linecap:round;stroke-linejoin:round;stroke-dasharray:none;stroke-opacity:1"
       d="M 6.1442027,5.530475 C 5.8160376,5.1943738 4.6754552,3.1934501 3.9450157,2.5351127"
       id="path10731"
       sodipodi:nodetypes="cc" />
    <path
       style="fill:#4f8400;fill-opacity:1;stroke-width:0.48836;stroke-linejoin:round"
       d="M 2.2590608,4.4473814 C 3.1122822,5.4714945 4.2840954,5.7342258 6.2206548,5.5790545 5.5191262,4.0672599 3.7905595,3.6594871 2.2590608,4.4473814 Z"
       id="path10733" />
    <path
       style="fill:none;fill-opacity:1;stroke:#447200;stroke-width:0.125288;stroke-linecap:round;stroke-linejoin:round;stroke-dasharray:none;stroke-opacity:1"
       d="M 6.1715496,5.5140797 C 5.8433845,5.1779786 3.3234067,4.2088446 2.3480274,4.4547723"
       id="path10735"
       sodipodi:nodetypes="cc" />
    <path
       style="fill:#4f8400;fill-opacity:1;stroke-width:0.48836;stroke-linejoin:round"
       d="M 2.4932858,7.1903846 C 3.8942607,7.4145705 4.9498153,6.8868945 6.2467055,5.5842963 4.5862239,4.9106888 3.0138021,5.6743096 2.4932858,7.1903846 Z"
       id="path10737" />
    <path
       style="fill:none;fill-opacity:1;stroke:#447200;stroke-width:0.125288;stroke-linecap:round;stroke-linejoin:round;stroke-dasharray:none;stroke-opacity:1"
       d="M 6.1350867,5.530475 C 4.9044681,5.1697811 4.2805551,6.5533553 2.5576878,7.1107914"
       id="path10739"
       sodipodi:nodetypes="cc" />
    <path
       style="fill:#4f8400;fill-opacity:1;stroke:none;stroke-width:0.129635;stroke-linecap:round;stroke-linejoin:round;stroke-dasharray:none;stroke-opacity:1"
       d="M 8.180673,11.268455 C 7.7374856,10.941844 6.8170024,10.054132 6.5948906,9.6019019 6.3716444,9.147361 5.8975284,9.7693948 5.8975284,9.7693948 c 0,0 1.5189122,0.6699712 1.022161,1.3734402"
       id="path10741"
       sodipodi:nodetypes="cscc" />
    <path
       style="fill:#705331;fill-opacity:1;stroke-width:0.969816;stroke-linejoin:round"
       d="m 6.1837673,11.494703 c 0.097636,0.181657 0.6150873,0.446572 1.2789903,0.401158 0.6639025,-0.04541 0.9860912,-0.143811 1.2789901,-0.325468 0.2928977,-0.181656 -0.5980313,-0.285864 -0.9923188,-0.674862 -0.031848,0.172974 -0.4418678,0.266975 -0.7278622,0.07776"
       id="path10743"
       sodipodi:nodetypes="csscc" />
    <path
       style="fill:#4f8400;fill-opacity:1;stroke-width:0.504537;stroke-linejoin:round"
       d="M 4.3375215,7.033941 C 5.7290361,7.4958387 6.3639991,8.4551642 6.7557848,10.208006 4.8644051,10.01851 3.905206,8.60913 4.3375215,7.033941 Z"
       id="path10745" />
    <path
       style="fill:none;fill-opacity:1;stroke:#447200;stroke-width:0.129635;stroke-linecap:round;stroke-linejoin:round;stroke-dasharray:none;stroke-opacity:1"
       d="M 6.6661639,10.140331 C 6.3222594,9.7969715 5.1269725,7.7528325 4.3614997,7.0802765"
       id="path10747"
       sodipodi:nodetypes="cc" />
    <path
       style="fill:#4f8400;fill-opacity:1;stroke-width:0.505304;stroke-linejoin:round"
       d="M 2.5946832,9.0338458 C 3.4888267,10.080078 4.7168423,10.348483 6.7462828,10.189961 6.0111075,8.6455145 4.1996355,8.2289348 2.5946832,9.0338458 Z"
       id="path10749" />
    <path
       style="fill:none;fill-opacity:1;stroke:#447200;stroke-width:0.129635;stroke-linecap:round;stroke-linejoin:round;stroke-dasharray:none;stroke-opacity:1"
       d="M 6.6948224,10.123582 C 6.3509179,9.7802222 3.7100772,8.7901571 2.6879168,9.0413963"
       id="path10751"
       sodipodi:nodetypes="cc" />
    <path
       style="fill:#4f8400;fill-opacity:1;stroke-width:0.505304;stroke-linejoin:round"
       d="M 2.8401421,11.836092 C 4.3083104,12.065119 5.4144914,11.526047 6.7735829,10.195316 5.0334615,9.5071595 3.3856233,10.287273 2.8401421,11.836092 Z"
       id="path10753" />
    <path
       style="fill:none;fill-opacity:1;stroke:#447200;stroke-width:0.129635;stroke-linecap:round;stroke-linejoin:round;stroke-dasharray:none;stroke-opacity:1"
       d="M 6.6566107,10.140331 C 5.3669693,9.7718476 4.7131322,11.185304 2.9076329,11.754779"
       id="path10755"
       sodipodi:nodetypes="cc" />
    <path
       style="fill:#aa8800;fill-opacity:1;stroke:none;stroke-width:0.20913;stroke-linecap:round;stroke-linejoin:round;stroke-dasharray:none;stroke-opacity:1"
       d="M 8.8579202,4.5232126 C 7.9419148,5.9483628 9.0522244,8.1685965 9.3159229,8.3336138 9.8849569,7.4485205 10.107019,5.5883246 8.8579202,4.5232126 Z"
       id="path12384" />
    <path
       style="fill:#aa8800;fill-opacity:1;stroke:none;stroke-width:0.20913;stroke-linecap:round;stroke-linejoin:round;stroke-dasharray:none;stroke-opacity:1"
       d="M 8.7990486,4.5009168 C 9.8104089,5.8486307 12.092381,5.3140453 12.312424,5.0862227 11.684358,4.2490699 10.093233,3.5006687 8.7990486,4.5009168 Z"
       id="path12386" />
    <path
       style="fill:#aa8800;fill-opacity:1;stroke:none;stroke-width:0.20913;stroke-linecap:round;stroke-linejoin:round;stroke-dasharray:none;stroke-opacity:1"
       d="M 8.9795183,4.4217665 C 7.718095,3.3483023 5.6013675,4.4136647 5.4332218,4.6883289 6.2166226,5.3551644 7.9212651,5.7058757 8.9795183,4.4217665 Z"
       id="path12388" />
    <path
       style="fill:#aa8800;fill-opacity:1;stroke:none;stroke-width:0.20913;stroke-linecap:round;stroke-linejoin:round;stroke-dasharray:none;stroke-opacity:1"
       d="M 8.9235269,4.4226427 C 9.7530633,2.9369118 8.6520582,2.1183793 8.3791089,1.9719876 7.8637777,2.8947141 7.6137867,3.4463367 8.9235269,4.4226427 Z"
       id="path12390"
       sodipodi:nodetypes="ccc" />
    <ellipse
       style="fill:#d4aa00;fill-opacity:1;stroke:none;stroke-width:0.132292;stroke-linecap:round;stroke-linejoin:round;stroke-dasharray:none;stroke-opacity:1"
       id="path12444"
       cx="8.9488554"
       cy="4.5147667"
       rx="0.31948671"
       ry="0.29366958" />
    <path
       style="fill:#d4aa00;fill-opacity:1;stroke:none;stroke-width:0.132292;stroke-linecap:round;stroke-linejoin:round;stroke-dasharray:none;stroke-opacity:1"
       d="M 7.1513387,3.9887431 C 6.5170494,3.9912183 5.4851654,4.5930782 5.4474098,4.6793508 6.466362,4.2083713 7.4308826,3.984098 8.4873741,4.1823715 8.5841881,4.2210975 8.4809241,3.8467491 7.1513387,3.9887431 Z"
       id="path12613"
       sodipodi:nodetypes="cccc" />
    <path
       style="fill:#d4aa00;fill-opacity:1;stroke:none;stroke-width:0.132292;stroke-linecap:round;stroke-linejoin:round;stroke-dasharray:none;stroke-opacity:1"
       d="M 9.5252153,4.1480752 C 10.955211,3.9109056 12.27349,4.9246506 12.276035,5.0214273 11.988421,4.7933616 11.093604,3.5349189 9.5252153,4.1480752 Z"
       id="path12615"
       sodipodi:nodetypes="ccc" />
    <path
       style="fill:#d4aa00;fill-opacity:1;stroke:none;stroke-width:0.132292;stroke-linecap:round;stroke-linejoin:round;stroke-dasharray:none;stroke-opacity:1"
       d="m 8.39056,1.9879173 c 0,0 -0.4582536,0.6841532 -0.4066193,1.1036813 C 8.1452973,2.9818759 8.3841059,2.1557285 8.39056,1.9879173 Z"
       id="path12617" />
    <path
       style="fill:#d4aa00;fill-opacity:1;stroke:none;stroke-width:0.132292;stroke-linecap:round;stroke-linejoin:round;stroke-dasharray:none;stroke-opacity:1"
       d="M 8.7626168,4.728162 C 8.5275347,5.0019938 8.3464515,5.9421497 8.6165732,6.7545171 8.8356386,6.3802803 8.954299,5.5952959 8.7808722,4.7829283"
       id="path12619"
       sodipodi:nodetypes="ccc" />
    <path
       style="fill:#ffffff;fill-opacity:1;stroke:none;stroke-width:0.132292;stroke-linecap:round;stroke-linejoin:round;stroke-dasharray:none;stroke-opacity:1"
       d="M 8.5070405,4.1896262 C 8.0506544,4.1257323 7.5851404,4.2261371 7.4254051,4.2763397 7.2656697,4.326542 8.2834113,4.3630529 8.5070405,4.1896262 Z"
       id="path12621" />
    <path
       style="fill:#ffffff;fill-opacity:1;stroke:none;stroke-width:0.132292;stroke-linecap:round;stroke-linejoin:round;stroke-dasharray:none;stroke-opacity:1"
       d="M 12.062595,4.7903416 C 11.693871,4.513911 11.237781,4.3769239 11.07367,4.3437077 c -0.16411,-0.033216 0.70934,0.4904394 0.988925,0.4466339 z"
       id="path12686" />
  </g>
</svg>
