<?xml version="1.0" encoding="UTF-8" standalone="no"?>
<!-- Created with Inkscape (http://www.inkscape.org/) -->

<svg
   width="64"
   height="64"
   viewBox="0 0 16.933333 16.933334"
   version="1.1"
   id="svg5"
   inkscape:version="1.2.2 (732a01da63, 2022-12-09)"
   sodipodi:docname="growth5.svg"
   xmlns:inkscape="http://www.inkscape.org/namespaces/inkscape"
   xmlns:sodipodi="http://sodipodi.sourceforge.net/DTD/sodipodi-0.dtd"
   xmlns="http://www.w3.org/2000/svg"
   xmlns:svg="http://www.w3.org/2000/svg">
  <sodipodi:namedview
     id="namedview7"
     pagecolor="#505050"
     bordercolor="#eeeeee"
     borderopacity="1"
     inkscape:pageshadow="0"
     inkscape:pageopacity="0"
     inkscape:pagecheckerboard="0"
     inkscape:document-units="px"
     showgrid="false"
     inkscape:zoom="7.2466938"
     inkscape:cx="28.702745"
     inkscape:cy="42.433144"
     inkscape:window-width="1620"
     inkscape:window-height="1018"
     inkscape:window-x="-6"
     inkscape:window-y="-6"
     inkscape:window-maximized="1"
     inkscape:current-layer="layer1"
     units="px"
     width="64px"
     inkscape:showpageshadow="0"
     inkscape:deskcolor="#505050"
     inkscape:lockguides="false" />
  <defs
     id="defs2" />
  <g
     inkscape:label="Layer 1"
     inkscape:groupmode="layer"
     id="layer1">
    <path
       style="fill:#806600;fill-opacity:1;stroke-width:0.15875;stroke-linecap:round;stroke-linejoin:round"
       d="m 3.5369437,10.946078 c 0.5421593,0.309806 1.1875871,1.368308 1.6781119,2.323541 0.1678113,0.06454 0.5679764,0.07745 0.6583363,0.02582 0.09036,-0.05164 -1.0197757,-2.439721 -1.561935,-2.659166 -0.5421592,-0.219445 -0.7745132,0.309805 -0.7745132,0.309805 z"
       id="path82963" />
    <path
       style="fill:#806600;fill-opacity:1;stroke-width:0.15875;stroke-linecap:round;stroke-linejoin:round"
       d="m 6.7584094,10.948597 c -0.20081,0.328598 -1.1135826,0.693707 -2.099377,0.09128 0.7849843,-0.766729 1.5699691,-0.529407 2.099377,-0.09128 z"
       id="path82965" />
    <path
       style="fill:#917400;fill-opacity:1;stroke-width:0.0609905;stroke-linecap:round;stroke-linejoin:round"
       d="m 4.9260295,10.880101 c 0.4186601,0.09366 1.5511886,0.10605 1.6065875,0.05206 -0.3367481,-0.26051 -0.983818,-0.465431 -1.6065875,-0.05206 z"
       id="path83036" />
    <path
       style="fill:#806600;fill-opacity:1;stroke-width:0.15923;stroke-linecap:round;stroke-linejoin:round"
       d="m 12.901991,8.8101903 c -0.545441,0.3098054 -1.194776,1.3683067 -1.68827,2.3235397 -0.168826,0.06454 -0.571413,0.07745 -0.66232,0.02582 -0.09091,-0.05164 1.025948,-2.4397196 1.571389,-2.659165 0.545441,-0.2194454 0.779201,0.3098053 0.779201,0.3098053 z"
       id="path83038" />
    <path
       style="fill:#806600;fill-opacity:1;stroke-width:0.15923;stroke-linecap:round;stroke-linejoin:round"
       d="M 9.6610257,8.8127092 C 9.8630512,9.1413069 10.781348,9.506416 11.773111,8.9039862 10.983374,8.137257 10.193638,8.3745789 9.6610257,8.8127092 Z"
       id="path83040" />
    <path
       style="fill:#917400;fill-opacity:1;stroke-width:0.0611748;stroke-linecap:round;stroke-linejoin:round"
       d="M 11.504497,8.7442133 C 11.083303,8.8378763 9.9439187,8.8502627 9.8881844,8.7962713 10.226971,8.5357613 10.877958,8.3308407 11.504497,8.7442133 Z"
       id="path83042" />
    <path
       style="fill:#806600;fill-opacity:1;stroke-width:0.15923;stroke-linecap:round;stroke-linejoin:round"
       d="m 12.901991,8.8101903 c -0.545441,0.3098054 -1.194776,1.3683067 -1.68827,2.3235397 -0.168826,0.06454 -0.571413,0.07745 -0.66232,0.02582 -0.09091,-0.05164 1.025948,-2.4397196 1.571389,-2.659165 0.545441,-0.2194454 0.779201,0.3098053 0.779201,0.3098053 z"
       id="path83080" />
    <path
       style="fill:#806600;fill-opacity:1;stroke-width:0.15923;stroke-linecap:round;stroke-linejoin:round"
       d="M 9.6610257,8.8127092 C 9.8630512,9.1413069 10.781348,9.506416 11.773111,8.9039862 10.983374,8.137257 10.193638,8.3745789 9.6610257,8.8127092 Z"
       id="path83082" />
    <path
       style="fill:#917400;fill-opacity:1;stroke-width:0.0611748;stroke-linecap:round;stroke-linejoin:round"
       d="M 11.504497,8.7442133 C 11.083303,8.8378763 9.9439187,8.8502627 9.8881844,8.7962713 10.226971,8.5357613 10.877958,8.3308407 11.504497,8.7442133 Z"
       id="path83084" />
    <path
       style="fill:#806600;fill-opacity:1;stroke-width:0.168432;stroke-linecap:round;stroke-linejoin:round"
       d="m 10.087926,6.4091993 c 0.610306,0.3098054 1.336861,1.3683068 1.889042,2.3235398 0.188903,0.06454 0.639366,0.07745 0.741084,0.02582 C 12.819773,8.7069221 11.570097,6.3188394 10.959791,6.099394 10.349485,5.8799486 10.087926,6.4091993 10.087926,6.4091993 Z"
       id="path83086" />
    <path
       style="fill:#806600;fill-opacity:1;stroke-width:0.168432;stroke-linecap:round;stroke-linejoin:round"
       d="M 13.714312,6.4117182 C 13.488262,6.7403159 12.46076,7.105425 11.351054,6.5029952 12.234708,5.736266 13.118361,5.9735879 13.714312,6.4117182 Z"
       id="path83088" />
    <path
       style="fill:#917400;fill-opacity:1;stroke-width:0.0647101;stroke-linecap:round;stroke-linejoin:round"
       d="m 11.651612,6.3432223 c 0.471284,0.093663 1.746165,0.1060494 1.808528,0.052058 -0.379076,-0.26051 -1.107479,-0.4654306 -1.808528,-0.052058 z"
       id="path83090" />
    <g
       id="g83145"
       transform="translate(0,2.1166275)">
      <path
         style="fill:#806600;fill-opacity:1;stroke-width:0.174761;stroke-linecap:round;stroke-linejoin:round"
         d="M 6.2735571,6.5833623 C 5.6165207,6.8931677 4.8343344,7.9516696 4.2398733,8.9069026 c -0.2033685,0.06454 -0.6883239,0.07745 -0.79783,0.02582 C 3.3325373,8.8810856 4.6778974,6.4930024 5.3349338,6.273557 5.9919701,6.0541116 6.2735571,6.5833623 6.2735571,6.5833623 Z"
         id="path83074" />
      <path
         style="fill:#806600;fill-opacity:1;stroke-width:0.174761;stroke-linecap:round;stroke-linejoin:round"
         d="M 2.3695012,6.5858812 C 2.6128604,6.9144789 3.7190387,7.279588 4.9137112,6.6771582 3.962398,5.910429 3.0110843,6.1477509 2.3695012,6.5858812 Z"
         id="path83076" />
      <path
         style="fill:#917400;fill-opacity:1;stroke-width:0.0671419;stroke-linecap:round;stroke-linejoin:round"
         d="m 4.5901406,6.5173853 c -0.5073692,0.093663 -1.879867,0.1060494 -1.9470043,0.052058 0.408101,-0.26051 1.1922773,-0.4654306 1.9470043,-0.052058 z"
         id="path83078" />
    </g>
    <g
       id="g83158"
       transform="translate(0,2.1166275)">
      <path
         style="fill:#806600;fill-opacity:1;stroke-width:0.168432;stroke-linecap:round;stroke-linejoin:round"
         d="m 10.087926,4.2925718 c 0.610306,0.3098054 1.336861,1.3683068 1.889042,2.3235398 0.188903,0.06454 0.639366,0.07745 0.741084,0.02582 0.101721,-0.051637 -1.147955,-2.4397197 -1.758261,-2.6591651 -0.610306,-0.2194454 -0.871865,0.3098053 -0.871865,0.3098053 z"
         id="path83092" />
      <path
         style="fill:#806600;fill-opacity:1;stroke-width:0.168432;stroke-linecap:round;stroke-linejoin:round"
         d="m 13.714312,4.2950907 c -0.22605,0.3285977 -1.253552,0.6937068 -2.363258,0.091277 0.883654,-0.7667292 1.767307,-0.5294073 2.363258,-0.091277 z"
         id="path83094" />
      <path
         style="fill:#917400;fill-opacity:1;stroke-width:0.0647101;stroke-linecap:round;stroke-linejoin:round"
         d="m 11.651612,4.2265948 c 0.471284,0.093663 1.746165,0.1060494 1.808528,0.052058 -0.379076,-0.26051 -1.107479,-0.4654306 -1.808528,-0.052058 z"
         id="path83096" />
    </g>
    <g
       id="g83153"
       transform="matrix(-0.75902977,0,0,0.85176,8.6601999,0.96709443)">
      <path
         style="fill:#806600;fill-opacity:1;stroke-width:0.174761;stroke-linecap:round;stroke-linejoin:round"
         d="M 6.2735571,6.5833623 C 5.6165207,6.8931677 4.8343344,7.9516696 4.2398733,8.9069026 c -0.2033685,0.06454 -0.6883239,0.07745 -0.79783,0.02582 C 3.3325373,8.8810856 4.6778974,6.4930024 5.3349338,6.273557 5.9919701,6.0541116 6.2735571,6.5833623 6.2735571,6.5833623 Z"
         id="path83147" />
      <path
         style="fill:#806600;fill-opacity:1;stroke-width:0.174761;stroke-linecap:round;stroke-linejoin:round"
         d="M 2.3354879,6.7980534 C 2.5788471,7.1266511 3.7190387,7.279588 4.9137112,6.6771582 3.962398,5.910429 2.977071,6.3599231 2.3354879,6.7980534 Z"
         id="path83149"
         sodipodi:nodetypes="ccc" />
      <path
         style="fill:#917400;fill-opacity:1;stroke-width:0.0671419;stroke-linecap:round;stroke-linejoin:round"
         d="m 4.5901406,6.5173853 c -0.5073692,0.093663 -1.879867,0.1060494 -1.9470043,0.052058 0.408101,-0.26051 1.1922773,-0.4654306 1.9470043,-0.052058 z"
         id="path83151" />
    </g>
    <g
       id="g83166"
       transform="matrix(-0.91507519,0,0,0.93514499,22.107385,0.14846523)">
      <path
         style="fill:#806600;fill-opacity:1;stroke-width:0.168432;stroke-linecap:round;stroke-linejoin:round"
         d="m 10.087926,4.2925718 c 0.610306,0.3098054 1.336861,1.3683068 1.889042,2.3235398 0.188903,0.06454 0.639366,0.07745 0.741084,0.02582 0.101721,-0.051637 -1.147955,-2.4397197 -1.758261,-2.6591651 -0.610306,-0.2194454 -0.871865,0.3098053 -0.871865,0.3098053 z"
         id="path83160" />
      <path
         style="fill:#806600;fill-opacity:1;stroke-width:0.168432;stroke-linecap:round;stroke-linejoin:round"
         d="M 13.798951,4.4607363 C 13.572901,4.789334 12.46076,4.9887975 11.351054,4.3863677 12.234708,3.6196385 13.203,4.022606 13.798951,4.4607363 Z"
         id="path83162"
         sodipodi:nodetypes="ccc" />
      <path
         style="fill:#917400;fill-opacity:1;stroke-width:0.0647101;stroke-linecap:round;stroke-linejoin:round"
         d="m 11.651612,4.2265948 c 0.471284,0.093663 1.746165,0.1060494 1.808528,0.052058 -0.379076,-0.26051 -1.107479,-0.4654306 -1.808528,-0.052058 z"
         id="path83164" />
    </g>
    <path
       style="fill:#806600;fill-opacity:1;stroke-width:0.122314;stroke-linecap:round;stroke-linejoin:round"
       d="M 2.0868523,11.36996 C 2.3170096,11.540108 3.1318189,11.557963 3.807467,10.90992 3.0139146,10.591457 2.426205,10.94521 2.0868523,11.36996 Z"
       id="path83232" />
    <path
       style="fill:#917400;fill-opacity:1;stroke-width:0.0469919;stroke-linecap:round;stroke-linejoin:round"
       d="M 3.558265,10.869231 C 3.2380719,11.035867 2.3225046,11.325299 2.2665255,11.302904 2.4861092,11.044898 2.9686579,10.747074 3.558265,10.869231 Z"
       id="path83234" />
    <g
       id="g83248"
       transform="matrix(1.0656713,0,0,1.3318545,-0.23189585,-0.12647257)">
      <path
         style="fill:#806600;fill-opacity:1;stroke-width:0.122314;stroke-linecap:round;stroke-linejoin:round"
         d="M 5.7550129,6.6064387 C 5.8435674,6.8786167 6.4965216,7.3663498 7.4229048,7.2311692 6.9618326,6.5110606 6.2779468,6.4577345 5.7550129,6.6064387 Z"
         id="path83236" />
      <path
         style="fill:#917400;fill-opacity:1;stroke-width:0.0469919;stroke-linecap:round;stroke-linejoin:round"
         d="M 7.2436634,7.0533217 C 6.886226,7.0030261 5.9727903,6.7069354 5.9402244,6.6561943 6.2688206,6.5736777 6.8346162,6.6114627 7.2436634,7.0533217 Z"
         id="path83238" />
    </g>
    <g
       id="g83254"
       transform="matrix(0.81153933,-0.69069474,0.86321636,1.0142455,-7.9794083,4.2782787)">
      <path
         style="fill:#806600;fill-opacity:1;stroke-width:0.122314;stroke-linecap:round;stroke-linejoin:round"
         d="M 5.7550129,6.6064387 C 5.8435674,6.8786167 6.4965216,7.3663498 7.4229048,7.2311692 6.9618326,6.5110606 6.2779468,6.4577345 5.7550129,6.6064387 Z"
         id="path83250" />
      <path
         style="fill:#917400;fill-opacity:1;stroke-width:0.0469919;stroke-linecap:round;stroke-linejoin:round"
         d="M 7.2436634,7.0533217 C 6.886226,7.0030261 5.9727903,6.7069354 5.9402244,6.6561943 6.2688206,6.5736777 6.8346162,6.6114627 7.2436634,7.0533217 Z"
         id="path83252" />
    </g>
    <g
       id="g83260"
       transform="matrix(1.0285114,-0.27896153,0.34864049,1.2854129,4.3127704,-2.6489736)">
      <path
         style="fill:#806600;fill-opacity:1;stroke-width:0.122314;stroke-linecap:round;stroke-linejoin:round"
         d="M 5.7550129,6.6064387 C 5.8435674,6.8786167 6.4965216,7.3663498 7.4229048,7.2311692 6.9618326,6.5110606 6.2779468,6.4577345 5.7550129,6.6064387 Z"
         id="path83256" />
      <path
         style="fill:#917400;fill-opacity:1;stroke-width:0.0469919;stroke-linecap:round;stroke-linejoin:round"
         d="M 7.2436634,7.0533217 C 6.886226,7.0030261 5.9727903,6.7069354 5.9402244,6.6561943 6.2688206,6.5736777 6.8346162,6.6114627 7.2436634,7.0533217 Z"
         id="path83258" />
    </g>
    <g
       id="g83266"
       transform="matrix(1.0371396,-0.24494207,0.30612366,1.2961963,4.5487483,1.5065737)">
      <path
         style="fill:#806600;fill-opacity:1;stroke-width:0.122314;stroke-linecap:round;stroke-linejoin:round"
         d="M 5.7550129,6.6064387 C 5.8435674,6.8786167 6.4965216,7.3663498 7.4229048,7.2311692 6.9618326,6.5110606 6.2779468,6.4577345 5.7550129,6.6064387 Z"
         id="path83262" />
      <path
         style="fill:#917400;fill-opacity:1;stroke-width:0.0469919;stroke-linecap:round;stroke-linejoin:round"
         d="M 7.2436634,7.0533217 C 6.886226,7.0030261 5.9727903,6.7069354 5.9402244,6.6561943 6.2688206,6.5736777 6.8346162,6.6114627 7.2436634,7.0533217 Z"
         id="path83264" />
    </g>
    <g
       id="g83272"
       transform="matrix(0.72867708,-0.77761487,0.97184746,0.91068604,-1.9274492,5.1211155)">
      <path
         style="fill:#806600;fill-opacity:1;stroke-width:0.122314;stroke-linecap:round;stroke-linejoin:round"
         d="M 5.7550129,6.6064387 C 5.8435674,6.8786167 6.4965216,7.3663498 7.4229048,7.2311692 6.9618326,6.5110606 6.2779468,6.4577345 5.7550129,6.6064387 Z"
         id="path83268" />
      <path
         style="fill:#917400;fill-opacity:1;stroke-width:0.0469919;stroke-linecap:round;stroke-linejoin:round"
         d="M 7.2436634,7.0533217 C 6.886226,7.0030261 5.9727903,6.7069354 5.9402244,6.6561943 6.2688206,6.5736777 6.8346162,6.6114627 7.2436634,7.0533217 Z"
         id="path83270" />
    </g>
    <g
       id="g83534"
       transform="translate(0,2.1166275)">
      <path
         style="fill:#b3b3b3;fill-opacity:1;stroke-width:0.258519;stroke-linecap:round;stroke-linejoin:round"
         d="M 4.2067911,1.6247352 C 3.4349038,3.2471365 4.3700746,4.2443925 4.3700746,4.2443925 5.1419617,2.9792171 4.3700751,1.8033482 4.2067911,1.6247352 Z"
         id="path83435" />
      <path
         style="fill:#b3b3b3;fill-opacity:1;stroke-width:0.258519;stroke-linecap:round;stroke-linejoin:round"
         d="M 5.3036779,1.8357956 C 3.9140156,2.9745822 4.3350554,4.2752703 4.3350554,4.2752703 5.5724896,3.4596508 5.37528,2.0669609 5.3036779,1.8357956 Z"
         id="path83500" />
      <path
         style="fill:#b3b3b3;fill-opacity:1;stroke-width:0.258519;stroke-linecap:round;stroke-linejoin:round"
         d="M 6.4623917,2.722765 C 4.6747193,2.9022742 4.3056351,4.2186484 4.3056351,4.2186484 5.7876773,4.224073 6.3941079,2.9549322 6.4623917,2.722765 Z"
         id="path83502" />
      <path
         style="fill:#b3b3b3;fill-opacity:1;stroke-width:0.258519;stroke-linecap:round;stroke-linejoin:round"
         d="M 6.8496687,3.7704881 C 5.1559411,3.1710856 4.2610879,4.2046726 4.2610879,4.2046726 5.5995172,4.841136 6.6889597,3.9514217 6.8496687,3.7704881 Z"
         id="path83504" />
      <path
         style="fill:#b3b3b3;fill-opacity:1;stroke-width:0.258519;stroke-linecap:round;stroke-linejoin:round"
         d="M 2.3960146,5.7156852 C 4.1915912,5.6532287 4.6457999,4.3637488 4.6457999,4.3637488 3.1672714,4.2616122 2.4793049,5.4884695 2.3960146,5.7156852 Z"
         id="path83506" />
      <path
         style="fill:#b3b3b3;fill-opacity:1;stroke-width:0.258519;stroke-linecap:round;stroke-linejoin:round"
         d="M 2.0779415,4.6449207 C 3.7289389,5.3535841 4.68934,4.3806022 4.68934,4.3806022 3.3953022,3.6581449 2.2501162,4.4748615 2.0779415,4.6449207 Z"
         id="path83508" />
      <path
         style="fill:#b3b3b3;fill-opacity:1;stroke-width:0.258519;stroke-linecap:round;stroke-linejoin:round"
         d="M 2.3312695,3.2078552 C 3.3142662,4.7117546 4.6526421,4.4328023 4.6526421,4.4328023 3.9745995,3.1149492 2.5687864,3.161487 2.3312695,3.2078552 Z"
         id="path83510" />
      <path
         style="fill:#b3b3b3;fill-opacity:1;stroke-width:0.258519;stroke-linecap:round;stroke-linejoin:round"
         d="m 3.0827134,2.3813934 c 0.2484055,1.7794075 1.57805,2.0973852 1.57805,2.0973852 -0.051808,-1.4811463 -1.343419,-2.0381174 -1.57805,-2.0973852 z"
         id="path83512" />
      <path
         style="fill:#b3b3b3;fill-opacity:1;stroke-width:0.258519;stroke-linecap:round;stroke-linejoin:round"
         d="M 6.8404124,5.0266349 C 5.6945195,3.6428266 4.3960062,4.0705262 4.3960062,4.0705262 5.2179561,5.3037645 6.6096171,5.0994207 6.8404124,5.0266349 Z"
         id="path83514" />
      <path
         style="fill:#b3b3b3;fill-opacity:1;stroke-width:0.258519;stroke-linecap:round;stroke-linejoin:round"
         d="M 6.1866816,5.9323629 C 5.7397354,4.1921804 4.3827657,4.0257549 4.3827657,4.0257549 4.6008182,5.4916784 5.946874,5.8998582 6.1866816,5.9323629 Z"
         id="path83516" />
      <path
         style="fill:#b3b3b3;fill-opacity:1;stroke-width:0.258519;stroke-linecap:round;stroke-linejoin:round"
         d="M 4.8939566,6.6092634 C 5.4846717,4.9124866 4.4465127,4.0229417 4.4465127,4.0229417 3.8169165,5.3646149 4.7122019,6.4494837 4.8939566,6.6092634 Z"
         id="path83518" />
      <path
         style="fill:#b3b3b3;fill-opacity:1;stroke-width:0.258519;stroke-linecap:round;stroke-linejoin:round"
         d="M 3.780614,6.518845 C 5.0380718,5.2355694 4.477963,3.9884358 4.477963,3.9884358 3.3366547,4.9338954 3.6842765,6.2968463 3.780614,6.518845 Z"
         id="path83520" />
    </g>
    <g
       id="g83560"
       transform="matrix(0.50456493,0,0,0.48909196,1.9148745,3.6221695)"
       style="fill:#cccccc">
      <path
         style="fill:#cccccc;fill-opacity:1;stroke-width:0.258519;stroke-linecap:round;stroke-linejoin:round"
         d="M 4.2067911,1.6247352 C 3.4349038,3.2471365 4.3700746,4.2443925 4.3700746,4.2443925 5.1419617,2.9792171 4.3700751,1.8033482 4.2067911,1.6247352 Z"
         id="path83536" />
      <path
         style="fill:#cccccc;fill-opacity:1;stroke-width:0.258519;stroke-linecap:round;stroke-linejoin:round"
         d="M 5.3036779,1.8357956 C 3.9140156,2.9745822 4.3350554,4.2752703 4.3350554,4.2752703 5.5724896,3.4596508 5.37528,2.0669609 5.3036779,1.8357956 Z"
         id="path83538" />
      <path
         style="fill:#cccccc;fill-opacity:1;stroke-width:0.258519;stroke-linecap:round;stroke-linejoin:round"
         d="M 6.4623917,2.722765 C 4.6747193,2.9022742 4.3056351,4.2186484 4.3056351,4.2186484 5.7876773,4.224073 6.3941079,2.9549322 6.4623917,2.722765 Z"
         id="path83540" />
      <path
         style="fill:#cccccc;fill-opacity:1;stroke-width:0.258519;stroke-linecap:round;stroke-linejoin:round"
         d="M 6.8496687,3.7704881 C 5.1559411,3.1710856 4.2610879,4.2046726 4.2610879,4.2046726 5.5995172,4.841136 6.6889597,3.9514217 6.8496687,3.7704881 Z"
         id="path83542" />
      <path
         style="fill:#cccccc;fill-opacity:1;stroke-width:0.258519;stroke-linecap:round;stroke-linejoin:round"
         d="M 2.3960146,5.7156852 C 4.1915912,5.6532287 4.6457999,4.3637488 4.6457999,4.3637488 3.1672714,4.2616122 2.4793049,5.4884695 2.3960146,5.7156852 Z"
         id="path83544" />
      <path
         style="fill:#cccccc;fill-opacity:1;stroke-width:0.258519;stroke-linecap:round;stroke-linejoin:round"
         d="M 2.0779415,4.6449207 C 3.7289389,5.3535841 4.68934,4.3806022 4.68934,4.3806022 3.3953022,3.6581449 2.2501162,4.4748615 2.0779415,4.6449207 Z"
         id="path83546" />
      <path
         style="fill:#cccccc;fill-opacity:1;stroke-width:0.258519;stroke-linecap:round;stroke-linejoin:round"
         d="M 2.3312695,3.2078552 C 3.3142662,4.7117546 4.6526421,4.4328023 4.6526421,4.4328023 3.9745995,3.1149492 2.5687864,3.161487 2.3312695,3.2078552 Z"
         id="path83548" />
      <path
         style="fill:#cccccc;fill-opacity:1;stroke-width:0.258519;stroke-linecap:round;stroke-linejoin:round"
         d="m 3.0827134,2.3813934 c 0.2484055,1.7794075 1.57805,2.0973852 1.57805,2.0973852 -0.051808,-1.4811463 -1.343419,-2.0381174 -1.57805,-2.0973852 z"
         id="path83550" />
      <path
         style="fill:#cccccc;fill-opacity:1;stroke-width:0.258519;stroke-linecap:round;stroke-linejoin:round"
         d="M 6.8404124,5.0266349 C 5.6945195,3.6428266 4.3960062,4.0705262 4.3960062,4.0705262 5.2179561,5.3037645 6.6096171,5.0994207 6.8404124,5.0266349 Z"
         id="path83552" />
      <path
         style="fill:#cccccc;fill-opacity:1;stroke-width:0.258519;stroke-linecap:round;stroke-linejoin:round"
         d="M 6.1866816,5.9323629 C 5.7397354,4.1921804 4.3827657,4.0257549 4.3827657,4.0257549 4.6008182,5.4916784 5.946874,5.8998582 6.1866816,5.9323629 Z"
         id="path83554" />
      <path
         style="fill:#cccccc;fill-opacity:1;stroke-width:0.258519;stroke-linecap:round;stroke-linejoin:round"
         d="M 4.8939566,6.6092634 C 5.4846717,4.9124866 4.4465127,4.0229417 4.4465127,4.0229417 3.8169165,5.3646149 4.7122019,6.4494837 4.8939566,6.6092634 Z"
         id="path83556" />
      <path
         style="fill:#cccccc;fill-opacity:1;stroke-width:0.258519;stroke-linecap:round;stroke-linejoin:round"
         d="M 3.780614,6.518845 C 5.0380718,5.2355694 4.477963,3.9884358 4.477963,3.9884358 3.3366547,4.9338954 3.6842765,6.2968463 3.780614,6.518845 Z"
         id="path83558" />
    </g>
    <g
       id="g83586"
       transform="translate(7.6307788,-0.40262477)">
      <path
         style="fill:#b3b3b3;fill-opacity:1;stroke-width:0.258519;stroke-linecap:round;stroke-linejoin:round"
         d="M 4.2067911,1.6247352 C 3.4349038,3.2471365 4.3700746,4.2443925 4.3700746,4.2443925 5.1419617,2.9792171 4.3700751,1.8033482 4.2067911,1.6247352 Z"
         id="path83562" />
      <path
         style="fill:#b3b3b3;fill-opacity:1;stroke-width:0.258519;stroke-linecap:round;stroke-linejoin:round"
         d="M 5.3036779,1.8357956 C 3.9140156,2.9745822 4.3350554,4.2752703 4.3350554,4.2752703 5.5724896,3.4596508 5.37528,2.0669609 5.3036779,1.8357956 Z"
         id="path83564" />
      <path
         style="fill:#b3b3b3;fill-opacity:1;stroke-width:0.258519;stroke-linecap:round;stroke-linejoin:round"
         d="M 6.4623917,2.722765 C 4.6747193,2.9022742 4.3056351,4.2186484 4.3056351,4.2186484 5.7876773,4.224073 6.3941079,2.9549322 6.4623917,2.722765 Z"
         id="path83566" />
      <path
         style="fill:#b3b3b3;fill-opacity:1;stroke-width:0.258519;stroke-linecap:round;stroke-linejoin:round"
         d="M 6.8496687,3.7704881 C 5.1559411,3.1710856 4.2610879,4.2046726 4.2610879,4.2046726 5.5995172,4.841136 6.6889597,3.9514217 6.8496687,3.7704881 Z"
         id="path83568" />
      <path
         style="fill:#b3b3b3;fill-opacity:1;stroke-width:0.258519;stroke-linecap:round;stroke-linejoin:round"
         d="M 2.3960146,5.7156852 C 4.1915912,5.6532287 4.6457999,4.3637488 4.6457999,4.3637488 3.1672714,4.2616122 2.4793049,5.4884695 2.3960146,5.7156852 Z"
         id="path83570" />
      <path
         style="fill:#b3b3b3;fill-opacity:1;stroke-width:0.258519;stroke-linecap:round;stroke-linejoin:round"
         d="M 2.0779415,4.6449207 C 3.7289389,5.3535841 4.68934,4.3806022 4.68934,4.3806022 3.3953022,3.6581449 2.2501162,4.4748615 2.0779415,4.6449207 Z"
         id="path83572" />
      <path
         style="fill:#b3b3b3;fill-opacity:1;stroke-width:0.258519;stroke-linecap:round;stroke-linejoin:round"
         d="M 2.3312695,3.2078552 C 3.3142662,4.7117546 4.6526421,4.4328023 4.6526421,4.4328023 3.9745995,3.1149492 2.5687864,3.161487 2.3312695,3.2078552 Z"
         id="path83574" />
      <path
         style="fill:#b3b3b3;fill-opacity:1;stroke-width:0.258519;stroke-linecap:round;stroke-linejoin:round"
         d="m 3.0827134,2.3813934 c 0.2484055,1.7794075 1.57805,2.0973852 1.57805,2.0973852 -0.051808,-1.4811463 -1.343419,-2.0381174 -1.57805,-2.0973852 z"
         id="path83576" />
      <path
         style="fill:#b3b3b3;fill-opacity:1;stroke-width:0.258519;stroke-linecap:round;stroke-linejoin:round"
         d="M 6.8404124,5.0266349 C 5.6945195,3.6428266 4.3960062,4.0705262 4.3960062,4.0705262 5.2179561,5.3037645 6.6096171,5.0994207 6.8404124,5.0266349 Z"
         id="path83578" />
      <path
         style="fill:#b3b3b3;fill-opacity:1;stroke-width:0.258519;stroke-linecap:round;stroke-linejoin:round"
         d="M 6.1866816,5.9323629 C 5.7397354,4.1921804 4.3827657,4.0257549 4.3827657,4.0257549 4.6008182,5.4916784 5.946874,5.8998582 6.1866816,5.9323629 Z"
         id="path83580" />
      <path
         style="fill:#b3b3b3;fill-opacity:1;stroke-width:0.258519;stroke-linecap:round;stroke-linejoin:round"
         d="M 4.8939566,6.6092634 C 5.4846717,4.9124866 4.4465127,4.0229417 4.4465127,4.0229417 3.8169165,5.3646149 4.7122019,6.4494837 4.8939566,6.6092634 Z"
         id="path83582" />
      <path
         style="fill:#b3b3b3;fill-opacity:1;stroke-width:0.258519;stroke-linecap:round;stroke-linejoin:round"
         d="M 3.780614,6.518845 C 5.0380718,5.2355694 4.477963,3.9884358 4.477963,3.9884358 3.3366547,4.9338954 3.6842765,6.2968463 3.780614,6.518845 Z"
         id="path83584" />
    </g>
    <g
       id="g83612"
       transform="matrix(0.50456493,0,0,0.48909196,9.5456533,1.1029172)"
       style="fill:#cccccc">
      <path
         style="fill:#cccccc;fill-opacity:1;stroke-width:0.258519;stroke-linecap:round;stroke-linejoin:round"
         d="M 4.2067911,1.6247352 C 3.4349038,3.2471365 4.3700746,4.2443925 4.3700746,4.2443925 5.1419617,2.9792171 4.3700751,1.8033482 4.2067911,1.6247352 Z"
         id="path83588" />
      <path
         style="fill:#cccccc;fill-opacity:1;stroke-width:0.258519;stroke-linecap:round;stroke-linejoin:round"
         d="M 5.3036779,1.8357956 C 3.9140156,2.9745822 4.3350554,4.2752703 4.3350554,4.2752703 5.5724896,3.4596508 5.37528,2.0669609 5.3036779,1.8357956 Z"
         id="path83590" />
      <path
         style="fill:#cccccc;fill-opacity:1;stroke-width:0.258519;stroke-linecap:round;stroke-linejoin:round"
         d="M 6.4623917,2.722765 C 4.6747193,2.9022742 4.3056351,4.2186484 4.3056351,4.2186484 5.7876773,4.224073 6.3941079,2.9549322 6.4623917,2.722765 Z"
         id="path83592" />
      <path
         style="fill:#cccccc;fill-opacity:1;stroke-width:0.258519;stroke-linecap:round;stroke-linejoin:round"
         d="M 6.8496687,3.7704881 C 5.1559411,3.1710856 4.2610879,4.2046726 4.2610879,4.2046726 5.5995172,4.841136 6.6889597,3.9514217 6.8496687,3.7704881 Z"
         id="path83594" />
      <path
         style="fill:#cccccc;fill-opacity:1;stroke-width:0.258519;stroke-linecap:round;stroke-linejoin:round"
         d="M 2.3960146,5.7156852 C 4.1915912,5.6532287 4.6457999,4.3637488 4.6457999,4.3637488 3.1672714,4.2616122 2.4793049,5.4884695 2.3960146,5.7156852 Z"
         id="path83596" />
      <path
         style="fill:#cccccc;fill-opacity:1;stroke-width:0.258519;stroke-linecap:round;stroke-linejoin:round"
         d="M 2.0779415,4.6449207 C 3.7289389,5.3535841 4.68934,4.3806022 4.68934,4.3806022 3.3953022,3.6581449 2.2501162,4.4748615 2.0779415,4.6449207 Z"
         id="path83598" />
      <path
         style="fill:#cccccc;fill-opacity:1;stroke-width:0.258519;stroke-linecap:round;stroke-linejoin:round"
         d="M 2.3312695,3.2078552 C 3.3142662,4.7117546 4.6526421,4.4328023 4.6526421,4.4328023 3.9745995,3.1149492 2.5687864,3.161487 2.3312695,3.2078552 Z"
         id="path83600" />
      <path
         style="fill:#cccccc;fill-opacity:1;stroke-width:0.258519;stroke-linecap:round;stroke-linejoin:round"
         d="m 3.0827134,2.3813934 c 0.2484055,1.7794075 1.57805,2.0973852 1.57805,2.0973852 -0.051808,-1.4811463 -1.343419,-2.0381174 -1.57805,-2.0973852 z"
         id="path83602" />
      <path
         style="fill:#cccccc;fill-opacity:1;stroke-width:0.258519;stroke-linecap:round;stroke-linejoin:round"
         d="M 6.8404124,5.0266349 C 5.6945195,3.6428266 4.3960062,4.0705262 4.3960062,4.0705262 5.2179561,5.3037645 6.6096171,5.0994207 6.8404124,5.0266349 Z"
         id="path83604" />
      <path
         style="fill:#cccccc;fill-opacity:1;stroke-width:0.258519;stroke-linecap:round;stroke-linejoin:round"
         d="M 6.1866816,5.9323629 C 5.7397354,4.1921804 4.3827657,4.0257549 4.3827657,4.0257549 4.6008182,5.4916784 5.946874,5.8998582 6.1866816,5.9323629 Z"
         id="path83606" />
      <path
         style="fill:#cccccc;fill-opacity:1;stroke-width:0.258519;stroke-linecap:round;stroke-linejoin:round"
         d="M 4.8939566,6.6092634 C 5.4846717,4.9124866 4.4465127,4.0229417 4.4465127,4.0229417 3.8169165,5.3646149 4.7122019,6.4494837 4.8939566,6.6092634 Z"
         id="path83608" />
      <path
         style="fill:#cccccc;fill-opacity:1;stroke-width:0.258519;stroke-linecap:round;stroke-linejoin:round"
         d="M 3.780614,6.518845 C 5.0380718,5.2355694 4.477963,3.9884358 4.477963,3.9884358 3.3366547,4.9338954 3.6842765,6.2968463 3.780614,6.518845 Z"
         id="path83610" />
    </g>
  </g>
</svg>
