<?xml version="1.0" encoding="UTF-8" standalone="no"?>
<!-- Created with Inkscape (http://www.inkscape.org/) -->

<svg
   width="64"
   height="64"
   viewBox="0 0 16.933333 16.933334"
   version="1.1"
   id="svg5"
   inkscape:version="1.2.2 (732a01da63, 2022-12-09)"
   sodipodi:docname="growth2.svg"
   xmlns:inkscape="http://www.inkscape.org/namespaces/inkscape"
   xmlns:sodipodi="http://sodipodi.sourceforge.net/DTD/sodipodi-0.dtd"
   xmlns="http://www.w3.org/2000/svg"
   xmlns:svg="http://www.w3.org/2000/svg">
  <sodipodi:namedview
     id="namedview7"
     pagecolor="#505050"
     bordercolor="#eeeeee"
     borderopacity="1"
     inkscape:pageshadow="0"
     inkscape:pageopacity="0"
     inkscape:pagecheckerboard="0"
     inkscape:document-units="px"
     showgrid="false"
     inkscape:zoom="10.248373"
     inkscape:cx="38.249974"
     inkscape:cy="23.564716"
     inkscape:window-width="1620"
     inkscape:window-height="1018"
     inkscape:window-x="-6"
     inkscape:window-y="-6"
     inkscape:window-maximized="1"
     inkscape:current-layer="layer1"
     units="px"
     width="64px"
     inkscape:showpageshadow="0"
     inkscape:deskcolor="#505050"
     inkscape:lockguides="false" />
  <defs
     id="defs2" />
  <g
     inkscape:label="Layer 1"
     inkscape:groupmode="layer"
     id="layer1">
    <path
       style="fill:#806600;fill-opacity:1;stroke-width:0.15875;stroke-linecap:round;stroke-linejoin:round"
       d="m 3.5369437,10.946107 c 0.5421593,0.309805 1.1875871,1.368307 1.6781119,2.32354 0.1678113,0.06454 0.5679764,0.07745 0.6583363,0.02582 0.09036,-0.05164 -1.0197757,-2.43972 -1.561935,-2.659166 -0.5421592,-0.219445 -0.7745132,0.309806 -0.7745132,0.309806 z"
       id="path82963" />
    <path
       style="fill:#806600;fill-opacity:1;stroke-width:0.15875;stroke-linecap:round;stroke-linejoin:round"
       d="m 6.7584094,10.948626 c -0.20081,0.328597 -1.1135826,0.693706 -2.099377,0.09128 0.7849843,-0.76673 1.5699691,-0.529408 2.099377,-0.09128 z"
       id="path82965" />
    <path
       style="fill:#917400;fill-opacity:1;stroke-width:0.0609905;stroke-linecap:round;stroke-linejoin:round"
       d="m 4.9260295,10.88013 c 0.4186601,0.09366 1.5511886,0.106049 1.6065875,0.05206 -0.3367481,-0.26051 -0.983818,-0.46543 -1.6065875,-0.05206 z"
       id="path83036" />
    <path
       style="fill:#806600;fill-opacity:1;stroke-width:0.15923;stroke-linecap:round;stroke-linejoin:round"
       d="m 12.901991,8.8102189 c -0.545441,0.3098054 -1.194776,1.3683071 -1.68827,2.3235401 -0.168826,0.06454 -0.571413,0.07745 -0.66232,0.02582 -0.09091,-0.05164 1.025948,-2.43972 1.571389,-2.6591654 0.545441,-0.2194454 0.779201,0.3098053 0.779201,0.3098053 z"
       id="path83038" />
    <path
       style="fill:#806600;fill-opacity:1;stroke-width:0.15923;stroke-linecap:round;stroke-linejoin:round"
       d="M 9.6610257,8.8127378 C 9.8630512,9.1413355 10.781348,9.5064446 11.773111,8.9040148 10.983374,8.1372856 10.193638,8.3746075 9.6610257,8.8127378 Z"
       id="path83040" />
    <path
       style="fill:#917400;fill-opacity:1;stroke-width:0.0611748;stroke-linecap:round;stroke-linejoin:round"
       d="M 11.504497,8.7442419 C 11.083303,8.8379049 9.9439187,8.8502913 9.8881844,8.7962999 10.226971,8.5357899 10.877958,8.3308693 11.504497,8.7442419 Z"
       id="path83042" />
    <path
       style="fill:#806600;fill-opacity:1;stroke-width:0.174761;stroke-linecap:round;stroke-linejoin:round"
       d="M 6.2735571,8.7000184 C 5.6165207,9.0098238 4.8343344,10.068326 4.2398733,11.023559 c -0.2033685,0.06454 -0.6883239,0.07745 -0.79783,0.02582 -0.109506,-0.05164 1.2358541,-2.4397205 1.8928905,-2.6591659 0.6570363,-0.2194454 0.9386233,0.3098053 0.9386233,0.3098053 z"
       id="path83074" />
    <path
       style="fill:#806600;fill-opacity:1;stroke-width:0.174761;stroke-linecap:round;stroke-linejoin:round"
       d="M 2.3695012,8.7025373 C 2.6128604,9.031135 3.7190387,9.3962441 4.9137112,8.7938143 3.962398,8.0270851 3.0110843,8.264407 2.3695012,8.7025373 Z"
       id="path83076" />
    <path
       style="fill:#917400;fill-opacity:1;stroke-width:0.0671419;stroke-linecap:round;stroke-linejoin:round"
       d="m 4.5901406,8.6340414 c -0.5073692,0.093663 -1.879867,0.1060494 -1.9470043,0.052058 0.408101,-0.26051 1.1922773,-0.4654306 1.9470043,-0.052058 z"
       id="path83078" />
    <path
       style="fill:#806600;fill-opacity:1;stroke-width:0.15923;stroke-linecap:round;stroke-linejoin:round"
       d="m 12.901991,8.8102189 c -0.545441,0.3098054 -1.194776,1.3683071 -1.68827,2.3235401 -0.168826,0.06454 -0.571413,0.07745 -0.66232,0.02582 -0.09091,-0.05164 1.025948,-2.43972 1.571389,-2.6591654 0.545441,-0.2194454 0.779201,0.3098053 0.779201,0.3098053 z"
       id="path83080" />
    <path
       style="fill:#806600;fill-opacity:1;stroke-width:0.15923;stroke-linecap:round;stroke-linejoin:round"
       d="M 9.6610257,8.8127378 C 9.8630512,9.1413355 10.781348,9.5064446 11.773111,8.9040148 10.983374,8.1372856 10.193638,8.3746075 9.6610257,8.8127378 Z"
       id="path83082" />
    <path
       style="fill:#917400;fill-opacity:1;stroke-width:0.0611748;stroke-linecap:round;stroke-linejoin:round"
       d="M 11.504497,8.7442419 C 11.083303,8.8379049 9.9439187,8.8502913 9.8881844,8.7962999 10.226971,8.5357899 10.877958,8.3308693 11.504497,8.7442419 Z"
       id="path83084" />
    <path
       style="fill:#806600;fill-opacity:1;stroke-width:0.168432;stroke-linecap:round;stroke-linejoin:round"
       d="m 10.087926,6.4092279 c 0.610306,0.3098054 1.336861,1.3683068 1.889042,2.3235398 0.188903,0.06454 0.639366,0.07745 0.741084,0.02582 C 12.819773,8.7069507 11.570097,6.318868 10.959791,6.0994226 10.349485,5.8799772 10.087926,6.4092279 10.087926,6.4092279 Z"
       id="path83086" />
    <path
       style="fill:#806600;fill-opacity:1;stroke-width:0.168432;stroke-linecap:round;stroke-linejoin:round"
       d="m 13.714312,6.4117468 c -0.22605,0.3285977 -1.253552,0.6937068 -2.363258,0.091277 0.883654,-0.7667292 1.767307,-0.5294073 2.363258,-0.091277 z"
       id="path83088" />
    <path
       style="fill:#917400;fill-opacity:1;stroke-width:0.0647101;stroke-linecap:round;stroke-linejoin:round"
       d="m 11.651612,6.3432509 c 0.471284,0.093663 1.746165,0.1060494 1.808528,0.052058 -0.379076,-0.26051 -1.107479,-0.4654306 -1.808528,-0.052058 z"
       id="path83090" />
    <path
       style="fill:#806600;fill-opacity:1;stroke-width:0.168432;stroke-linecap:round;stroke-linejoin:round"
       d="m 10.087926,6.4092279 c 0.610306,0.3098054 1.336861,1.3683068 1.889042,2.3235398 0.188903,0.06454 0.639366,0.07745 0.741084,0.02582 C 12.819773,8.7069507 11.570097,6.318868 10.959791,6.0994226 10.349485,5.8799772 10.087926,6.4092279 10.087926,6.4092279 Z"
       id="path83092" />
    <path
       style="fill:#806600;fill-opacity:1;stroke-width:0.168432;stroke-linecap:round;stroke-linejoin:round"
       d="m 13.714312,6.4117468 c -0.22605,0.3285977 -1.253552,0.6937068 -2.363258,0.091277 0.883654,-0.7667292 1.767307,-0.5294073 2.363258,-0.091277 z"
       id="path83094" />
    <path
       style="fill:#917400;fill-opacity:1;stroke-width:0.0647101;stroke-linecap:round;stroke-linejoin:round"
       d="m 11.651612,6.3432509 c 0.471284,0.093663 1.746165,0.1060494 1.808528,0.052058 -0.379076,-0.26051 -1.107479,-0.4654306 -1.808528,-0.052058 z"
       id="path83096" />
  </g>
</svg>
