<?xml version="1.0" encoding="UTF-8" standalone="no"?>
<!-- Created with Inkscape (http://www.inkscape.org/) -->

<svg
   width="64"
   height="64"
   viewBox="0 0 16.933333 16.933334"
   version="1.1"
   id="svg5"
   inkscape:version="1.2.2 (732a01da63, 2022-12-09)"
   sodipodi:docname="growth4.svg"
   xmlns:inkscape="http://www.inkscape.org/namespaces/inkscape"
   xmlns:sodipodi="http://sodipodi.sourceforge.net/DTD/sodipodi-0.dtd"
   xmlns="http://www.w3.org/2000/svg"
   xmlns:svg="http://www.w3.org/2000/svg">
  <sodipodi:namedview
     id="namedview7"
     pagecolor="#505050"
     bordercolor="#eeeeee"
     borderopacity="1"
     inkscape:pageshadow="0"
     inkscape:pageopacity="0"
     inkscape:pagecheckerboard="0"
     inkscape:document-units="px"
     showgrid="false"
     inkscape:zoom="5.1241863"
     inkscape:cx="-9.7576468"
     inkscape:cy="32.88327"
     inkscape:window-width="1620"
     inkscape:window-height="1018"
     inkscape:window-x="-6"
     inkscape:window-y="-6"
     inkscape:window-maximized="1"
     inkscape:current-layer="layer1"
     units="px"
     width="64px"
     inkscape:showpageshadow="0"
     inkscape:deskcolor="#505050"
     inkscape:lockguides="false" />
  <defs
     id="defs2" />
  <g
     inkscape:label="Layer 1"
     inkscape:groupmode="layer"
     id="layer1">
    <path
       style="fill:#806600;fill-opacity:1;stroke-width:0.15875;stroke-linecap:round;stroke-linejoin:round"
       d="m 3.5369437,10.94621 c 0.5421593,0.309806 1.1875871,1.368308 1.6781119,2.323541 0.1678113,0.06454 0.5679764,0.07745 0.6583363,0.02582 0.09036,-0.05164 -1.0197757,-2.43972 -1.561935,-2.659166 C 3.7692977,10.41696 3.5369437,10.94621 3.5369437,10.94621 Z"
       id="path82963" />
    <path
       style="fill:#806600;fill-opacity:1;stroke-width:0.15875;stroke-linecap:round;stroke-linejoin:round"
       d="m 6.7584094,10.948729 c -0.20081,0.328598 -1.1135826,0.693707 -2.099377,0.09128 0.7849843,-0.766729 1.5699691,-0.529407 2.099377,-0.09128 z"
       id="path82965" />
    <path
       style="fill:#917400;fill-opacity:1;stroke-width:0.0609905;stroke-linecap:round;stroke-linejoin:round"
       d="m 4.9260295,10.880233 c 0.4186601,0.09366 1.5511886,0.10605 1.6065875,0.05206 -0.3367481,-0.26051 -0.983818,-0.465431 -1.6065875,-0.05206 z"
       id="path83036" />
    <path
       style="fill:#806600;fill-opacity:1;stroke-width:0.15923;stroke-linecap:round;stroke-linejoin:round"
       d="m 12.901991,8.8103226 c -0.545441,0.3098054 -1.194776,1.3683064 -1.68827,2.3235394 -0.168826,0.06454 -0.571413,0.07745 -0.66232,0.02582 -0.09091,-0.05164 1.025948,-2.4397193 1.571389,-2.6591647 0.545441,-0.2194454 0.779201,0.3098053 0.779201,0.3098053 z"
       id="path83038" />
    <path
       style="fill:#806600;fill-opacity:1;stroke-width:0.15923;stroke-linecap:round;stroke-linejoin:round"
       d="M 9.6610257,8.8128415 C 9.8630512,9.1414392 10.781348,9.5065483 11.773111,8.9041185 10.983374,8.1373893 10.193638,8.3747112 9.6610257,8.8128415 Z"
       id="path83040" />
    <path
       style="fill:#917400;fill-opacity:1;stroke-width:0.0611748;stroke-linecap:round;stroke-linejoin:round"
       d="M 11.504497,8.7443456 C 11.083303,8.8380086 9.9439187,8.850395 9.8881844,8.7964036 10.226971,8.5358936 10.877958,8.330973 11.504497,8.7443456 Z"
       id="path83042" />
    <path
       style="fill:#806600;fill-opacity:1;stroke-width:0.15923;stroke-linecap:round;stroke-linejoin:round"
       d="m 12.901991,8.8103226 c -0.545441,0.3098054 -1.194776,1.3683064 -1.68827,2.3235394 -0.168826,0.06454 -0.571413,0.07745 -0.66232,0.02582 -0.09091,-0.05164 1.025948,-2.4397193 1.571389,-2.6591647 0.545441,-0.2194454 0.779201,0.3098053 0.779201,0.3098053 z"
       id="path83080" />
    <path
       style="fill:#806600;fill-opacity:1;stroke-width:0.15923;stroke-linecap:round;stroke-linejoin:round"
       d="M 9.6610257,8.8128415 C 9.8630512,9.1414392 10.781348,9.5065483 11.773111,8.9041185 10.983374,8.1373893 10.193638,8.3747112 9.6610257,8.8128415 Z"
       id="path83082" />
    <path
       style="fill:#917400;fill-opacity:1;stroke-width:0.0611748;stroke-linecap:round;stroke-linejoin:round"
       d="M 11.504497,8.7443456 C 11.083303,8.8380086 9.9439187,8.850395 9.8881844,8.7964036 10.226971,8.5358936 10.877958,8.330973 11.504497,8.7443456 Z"
       id="path83084" />
    <path
       style="fill:#806600;fill-opacity:1;stroke-width:0.168432;stroke-linecap:round;stroke-linejoin:round"
       d="m 10.087926,6.4093316 c 0.610306,0.3098054 1.336861,1.3683068 1.889042,2.3235398 0.188903,0.06454 0.639366,0.07745 0.741084,0.02582 0.101721,-0.051637 -1.147955,-2.4397197 -1.758261,-2.6591651 -0.610306,-0.2194454 -0.871865,0.3098053 -0.871865,0.3098053 z"
       id="path83086" />
    <path
       style="fill:#806600;fill-opacity:1;stroke-width:0.168432;stroke-linecap:round;stroke-linejoin:round"
       d="m 13.714312,6.4118505 c -0.22605,0.3285977 -1.253552,0.6937068 -2.363258,0.091277 0.883654,-0.7667292 1.767307,-0.5294073 2.363258,-0.091277 z"
       id="path83088" />
    <path
       style="fill:#917400;fill-opacity:1;stroke-width:0.0647101;stroke-linecap:round;stroke-linejoin:round"
       d="m 11.651612,6.3433546 c 0.471284,0.093663 1.746165,0.1060494 1.808528,0.052058 -0.379076,-0.26051 -1.107479,-0.4654306 -1.808528,-0.052058 z"
       id="path83090" />
    <g
       id="g83145"
       transform="translate(0,2.1167598)">
      <path
         style="fill:#806600;fill-opacity:1;stroke-width:0.174761;stroke-linecap:round;stroke-linejoin:round"
         d="M 6.2735571,6.5833623 C 5.6165207,6.8931677 4.8343344,7.9516696 4.2398733,8.9069026 c -0.2033685,0.06454 -0.6883239,0.07745 -0.79783,0.02582 C 3.3325373,8.8810856 4.6778974,6.4930024 5.3349338,6.273557 5.9919701,6.0541116 6.2735571,6.5833623 6.2735571,6.5833623 Z"
         id="path83074" />
      <path
         style="fill:#806600;fill-opacity:1;stroke-width:0.174761;stroke-linecap:round;stroke-linejoin:round"
         d="M 2.3695012,6.5858812 C 2.6128604,6.9144789 3.7190387,7.279588 4.9137112,6.6771582 3.962398,5.910429 3.0110843,6.1477509 2.3695012,6.5858812 Z"
         id="path83076" />
      <path
         style="fill:#917400;fill-opacity:1;stroke-width:0.0671419;stroke-linecap:round;stroke-linejoin:round"
         d="m 4.5901406,6.5173853 c -0.5073692,0.093663 -1.879867,0.1060494 -1.9470043,0.052058 0.408101,-0.26051 1.1922773,-0.4654306 1.9470043,-0.052058 z"
         id="path83078" />
    </g>
    <g
       id="g83158"
       transform="translate(0,2.1167598)">
      <path
         style="fill:#806600;fill-opacity:1;stroke-width:0.168432;stroke-linecap:round;stroke-linejoin:round"
         d="m 10.087926,4.2925718 c 0.610306,0.3098054 1.336861,1.3683068 1.889042,2.3235398 0.188903,0.06454 0.639366,0.07745 0.741084,0.02582 0.101721,-0.051637 -1.147955,-2.4397197 -1.758261,-2.6591651 -0.610306,-0.2194454 -0.871865,0.3098053 -0.871865,0.3098053 z"
         id="path83092" />
      <path
         style="fill:#806600;fill-opacity:1;stroke-width:0.168432;stroke-linecap:round;stroke-linejoin:round"
         d="m 13.714312,4.2950907 c -0.22605,0.3285977 -1.253552,0.6937068 -2.363258,0.091277 0.883654,-0.7667292 1.767307,-0.5294073 2.363258,-0.091277 z"
         id="path83094" />
      <path
         style="fill:#917400;fill-opacity:1;stroke-width:0.0647101;stroke-linecap:round;stroke-linejoin:round"
         d="m 11.651612,4.2265948 c 0.471284,0.093663 1.746165,0.1060494 1.808528,0.052058 -0.379076,-0.26051 -1.107479,-0.4654306 -1.808528,-0.052058 z"
         id="path83096" />
    </g>
    <g
       id="g83153"
       transform="matrix(-0.75902977,0,0,0.85176,8.6601999,0.96722669)">
      <path
         style="fill:#806600;fill-opacity:1;stroke-width:0.174761;stroke-linecap:round;stroke-linejoin:round"
         d="M 6.2735571,6.5833623 C 5.6165207,6.8931677 4.8343344,7.9516696 4.2398733,8.9069026 c -0.2033685,0.06454 -0.6883239,0.07745 -0.79783,0.02582 C 3.3325373,8.8810856 4.6778974,6.4930024 5.3349338,6.273557 5.9919701,6.0541116 6.2735571,6.5833623 6.2735571,6.5833623 Z"
         id="path83147" />
      <path
         style="fill:#806600;fill-opacity:1;stroke-width:0.174761;stroke-linecap:round;stroke-linejoin:round"
         d="M 2.3354879,6.7980534 C 2.5788471,7.1266511 3.7190387,7.279588 4.9137112,6.6771582 3.962398,5.910429 2.977071,6.3599231 2.3354879,6.7980534 Z"
         id="path83149"
         sodipodi:nodetypes="ccc" />
      <path
         style="fill:#917400;fill-opacity:1;stroke-width:0.0671419;stroke-linecap:round;stroke-linejoin:round"
         d="m 4.5901406,6.5173853 c -0.5073692,0.093663 -1.879867,0.1060494 -1.9470043,0.052058 0.408101,-0.26051 1.1922773,-0.4654306 1.9470043,-0.052058 z"
         id="path83151" />
    </g>
    <g
       id="g83166"
       transform="matrix(-0.91507519,0,0,0.93514499,22.107385,0.14859749)">
      <path
         style="fill:#806600;fill-opacity:1;stroke-width:0.168432;stroke-linecap:round;stroke-linejoin:round"
         d="m 10.087926,4.2925718 c 0.610306,0.3098054 1.336861,1.3683068 1.889042,2.3235398 0.188903,0.06454 0.639366,0.07745 0.741084,0.02582 0.101721,-0.051637 -1.147955,-2.4397197 -1.758261,-2.6591651 -0.610306,-0.2194454 -0.871865,0.3098053 -0.871865,0.3098053 z"
         id="path83160" />
      <path
         style="fill:#806600;fill-opacity:1;stroke-width:0.168432;stroke-linecap:round;stroke-linejoin:round"
         d="M 13.798951,4.4607363 C 13.572901,4.789334 12.46076,4.9887975 11.351054,4.3863677 12.234708,3.6196385 13.203,4.022606 13.798951,4.4607363 Z"
         id="path83162"
         sodipodi:nodetypes="ccc" />
      <path
         style="fill:#917400;fill-opacity:1;stroke-width:0.0647101;stroke-linecap:round;stroke-linejoin:round"
         d="m 11.651612,4.2265948 c 0.471284,0.093663 1.746165,0.1060494 1.808528,0.052058 -0.379076,-0.26051 -1.107479,-0.4654306 -1.808528,-0.052058 z"
         id="path83164" />
    </g>
    <path
       style="fill:#806600;fill-opacity:1;stroke-width:0.122314;stroke-linecap:round;stroke-linejoin:round"
       d="m 2.0868523,11.370092 c 0.2301573,0.170148 1.0449666,0.188003 1.7206147,-0.46004 -0.7935524,-0.318462 -1.381262,0.03529 -1.7206147,0.46004 z"
       id="path83232" />
    <path
       style="fill:#917400;fill-opacity:1;stroke-width:0.0469919;stroke-linecap:round;stroke-linejoin:round"
       d="M 3.558265,10.869363 C 3.2380719,11.035999 2.3225046,11.325431 2.2665255,11.303036 2.4861092,11.04503 2.9686579,10.747206 3.558265,10.869363 Z"
       id="path83234" />
    <g
       id="g83248"
       transform="matrix(1.0656713,0,0,1.3318545,-0.23189585,-0.12634031)">
      <path
         style="fill:#806600;fill-opacity:1;stroke-width:0.122314;stroke-linecap:round;stroke-linejoin:round"
         d="M 5.7550129,6.6064387 C 5.8435674,6.8786167 6.4965216,7.3663498 7.4229048,7.2311692 6.9618326,6.5110606 6.2779468,6.4577345 5.7550129,6.6064387 Z"
         id="path83236" />
      <path
         style="fill:#917400;fill-opacity:1;stroke-width:0.0469919;stroke-linecap:round;stroke-linejoin:round"
         d="M 7.2436634,7.0533217 C 6.886226,7.0030261 5.9727903,6.7069354 5.9402244,6.6561943 6.2688206,6.5736777 6.8346162,6.6114627 7.2436634,7.0533217 Z"
         id="path83238" />
    </g>
    <g
       id="g83254"
       transform="matrix(0.81153933,-0.69069474,0.86321636,1.0142455,-7.9794083,4.278411)">
      <path
         style="fill:#806600;fill-opacity:1;stroke-width:0.122314;stroke-linecap:round;stroke-linejoin:round"
         d="M 5.7550129,6.6064387 C 5.8435674,6.8786167 6.4965216,7.3663498 7.4229048,7.2311692 6.9618326,6.5110606 6.2779468,6.4577345 5.7550129,6.6064387 Z"
         id="path83250" />
      <path
         style="fill:#917400;fill-opacity:1;stroke-width:0.0469919;stroke-linecap:round;stroke-linejoin:round"
         d="M 7.2436634,7.0533217 C 6.886226,7.0030261 5.9727903,6.7069354 5.9402244,6.6561943 6.2688206,6.5736777 6.8346162,6.6114627 7.2436634,7.0533217 Z"
         id="path83252" />
    </g>
    <g
       id="g83260"
       transform="matrix(1.0285114,-0.27896153,0.34864049,1.2854129,4.3127704,-2.6488413)">
      <path
         style="fill:#806600;fill-opacity:1;stroke-width:0.122314;stroke-linecap:round;stroke-linejoin:round"
         d="M 5.7550129,6.6064387 C 5.8435674,6.8786167 6.4965216,7.3663498 7.4229048,7.2311692 6.9618326,6.5110606 6.2779468,6.4577345 5.7550129,6.6064387 Z"
         id="path83256" />
      <path
         style="fill:#917400;fill-opacity:1;stroke-width:0.0469919;stroke-linecap:round;stroke-linejoin:round"
         d="M 7.2436634,7.0533217 C 6.886226,7.0030261 5.9727903,6.7069354 5.9402244,6.6561943 6.2688206,6.5736777 6.8346162,6.6114627 7.2436634,7.0533217 Z"
         id="path83258" />
    </g>
    <g
       id="g83266"
       transform="matrix(1.0371396,-0.24494207,0.30612366,1.2961963,4.5487483,1.5067059)">
      <path
         style="fill:#806600;fill-opacity:1;stroke-width:0.122314;stroke-linecap:round;stroke-linejoin:round"
         d="M 5.7550129,6.6064387 C 5.8435674,6.8786167 6.4965216,7.3663498 7.4229048,7.2311692 6.9618326,6.5110606 6.2779468,6.4577345 5.7550129,6.6064387 Z"
         id="path83262" />
      <path
         style="fill:#917400;fill-opacity:1;stroke-width:0.0469919;stroke-linecap:round;stroke-linejoin:round"
         d="M 7.2436634,7.0533217 C 6.886226,7.0030261 5.9727903,6.7069354 5.9402244,6.6561943 6.2688206,6.5736777 6.8346162,6.6114627 7.2436634,7.0533217 Z"
         id="path83264" />
    </g>
    <g
       id="g83272"
       transform="matrix(0.72867708,-0.77761487,0.97184746,0.91068604,-1.9274492,5.1212478)">
      <path
         style="fill:#806600;fill-opacity:1;stroke-width:0.122314;stroke-linecap:round;stroke-linejoin:round"
         d="M 5.7550129,6.6064387 C 5.8435674,6.8786167 6.4965216,7.3663498 7.4229048,7.2311692 6.9618326,6.5110606 6.2779468,6.4577345 5.7550129,6.6064387 Z"
         id="path83268" />
      <path
         style="fill:#917400;fill-opacity:1;stroke-width:0.0469919;stroke-linecap:round;stroke-linejoin:round"
         d="M 7.2436634,7.0533217 C 6.886226,7.0030261 5.9727903,6.7069354 5.9402244,6.6561943 6.2688206,6.5736777 6.8346162,6.6114627 7.2436634,7.0533217 Z"
         id="path83270" />
    </g>
  </g>
</svg>
