<?xml version="1.0" encoding="UTF-8" standalone="no"?>
<!-- Created with Inkscape (http://www.inkscape.org/) -->

<svg
   width="64"
   height="64"
   viewBox="0 0 16.933333 16.933334"
   version="1.1"
   id="svg5"
   inkscape:version="1.2.2 (732a01da63, 2022-12-09)"
   sodipodi:docname="energy_orb.svg"
   xmlns:inkscape="http://www.inkscape.org/namespaces/inkscape"
   xmlns:sodipodi="http://sodipodi.sourceforge.net/DTD/sodipodi-0.dtd"
   xmlns="http://www.w3.org/2000/svg"
   xmlns:svg="http://www.w3.org/2000/svg">
  <sodipodi:namedview
     id="namedview7"
     pagecolor="#505050"
     bordercolor="#eeeeee"
     borderopacity="1"
     inkscape:pageshadow="0"
     inkscape:pageopacity="0"
     inkscape:pagecheckerboard="0"
     inkscape:document-units="px"
     showgrid="false"
     inkscape:zoom="5.1241863"
     inkscape:cx="33.859034"
     inkscape:cy="9.6600703"
     inkscape:window-width="1620"
     inkscape:window-height="1018"
     inkscape:window-x="-6"
     inkscape:window-y="-6"
     inkscape:window-maximized="1"
     inkscape:current-layer="layer1"
     units="px"
     width="64px"
     inkscape:showpageshadow="0"
     inkscape:deskcolor="#505050"
     showguides="false" />
  <defs
     id="defs2" />
  <g
     inkscape:groupmode="layer"
     id="layer4"
     inkscape:label="Drop Shadows"
     sodipodi:insensitive="true"
     style="display:none">
    <ellipse
       style="fill:#252525;fill-opacity:1;stroke:none;stroke-width:1.07182;stroke-linejoin:round"
       id="ellipse47282"
       cx="13.894689"
       cy="16.531616"
       rx="1.6135691"
       ry="0.30335101" />
    <ellipse
       style="fill:#7d0d3e;fill-opacity:1;stroke:none;stroke-width:0.765944;stroke-linejoin:round"
       id="ellipse47211"
       cx="2.9185984"
       cy="16.632021"
       rx="0.8240208"
       ry="0.30335101" />
    <ellipse
       style="fill:#156cbe;fill-opacity:1;stroke:none;stroke-width:1.07182;stroke-linejoin:round"
       id="path44885"
       cx="8.7649069"
       cy="16.568127"
       rx="1.6135691"
       ry="0.30335101" />
  </g>
  <g
     inkscape:label="Layer 1"
     inkscape:groupmode="layer"
     id="layer1">
    <path
       style="fill:#333333;fill-opacity:1;stroke-width:0.397583;stroke-linecap:round;stroke-linejoin:round"
       d="m 11.430162,16.139568 c -0.647384,-0.225239 -1.4727977,-0.337859 -1.4727977,-1.238815 0,-0.900957 1.3055467,-0.147501 3.1074407,-1.544496 1.9692,-1.526708 3.184098,-5.1412239 2.524796,-7.6742185 -0.980323,-3.7663304 -7.0564802,7.9155455 -7.0564802,7.9155455 0,0 -1.4566129,4.118658 2.8970412,2.541984 z"
       id="path25597"
       sodipodi:nodetypes="cssscc" />
    <path
       style="fill:#333333;fill-opacity:1;stroke-width:0.396401;stroke-linecap:round;stroke-linejoin:round"
       d="m 6.0069866,16.107391 c 0.6435405,-0.225238 1.4640545,-0.337858 1.4640545,-1.238814 0,-0.900957 -1.2977967,-0.147501 -3.0889938,-1.544497 C 2.4245373,11.797373 1.2168514,8.1828561 1.87224,5.6498615 2.8467424,1.8835311 8.8868297,13.565407 8.8868297,13.565407 c 0,0 1.4479663,4.118659 -2.8798431,2.541984 z"
       id="path25595"
       sodipodi:nodetypes="cssscc" />
    <path
       style="fill:#c51461;fill-opacity:1;stroke:none;stroke-width:0.510792;stroke-linejoin:round"
       d="m -11.729545,8.8482928 c 0,0 -1.952537,-1.045955 -2.098462,-1.922745 -0.114085,-0.685486 -0.04677,-1.76729 1.08254,-1.849914 0.830488,-0.06076 1.23243,0.58265 1.23243,0.58265 0,0 1.53221,-1.238131 2.4148965,-0.34959 0.5180675,0.521503 0.4486467,0.957529 -0.1767495,1.609364 -0.857389,0.893636 -2.454655,1.930235 -2.454655,1.930235 z"
       id="path45232"
       sodipodi:nodetypes="csscssc" />
    <ellipse
       style="fill:#b21258;fill-opacity:1;stroke-width:0.614921;stroke-linecap:round;stroke-linejoin:round"
       id="path25461"
       cx="8.742033"
       cy="6.9369416"
       rx="6.773262"
       ry="6.6928196" />
    <path
       style="fill:#333333;fill-opacity:1;stroke-width:0.396401;stroke-linecap:round;stroke-linejoin:round"
       d="m 2.8629821,10.483791 c 0.8645983,0.477804 9.5105809,1.194511 12.0133669,-0.147892 -0.728084,1.365156 -8.1226745,3.264996 -12.0133669,0.147892 z"
       id="path25662"
       sodipodi:nodetypes="ccc" />
    <path
       style="fill:#424242;fill-opacity:1;stroke-width:0.396401;stroke-linecap:round;stroke-linejoin:round"
       d="m 3.0467011,10.52468 c 0.5309208,0.176973 4.1830122,0.740071 7.2076519,0.611363 -0.498744,0.193061 -5.0035262,0.75616 -7.2076519,-0.611363 z"
       id="path25664" />
    <path
       style="fill:#333333;fill-opacity:1;stroke-width:0.396401;stroke-linecap:round;stroke-linejoin:round"
       d="m 6.0391638,16.139569 c 0.9393657,1.105136 5.4690392,0.383705 5.3092082,0.01609 z"
       id="path26792"
       sodipodi:nodetypes="ccc" />
  </g>
</svg>
