<?xml version="1.0" encoding="UTF-8" standalone="no"?>
<!-- Created with Inkscape (http://www.inkscape.org/) -->

<svg
   width="64"
   height="64"
   viewBox="0 0 16.933333 16.933334"
   version="1.1"
   id="svg5"
   inkscape:version="1.2.2 (732a01da63, 2022-12-09)"
   sodipodi:docname="growth7.svg"
   xmlns:inkscape="http://www.inkscape.org/namespaces/inkscape"
   xmlns:sodipodi="http://sodipodi.sourceforge.net/DTD/sodipodi-0.dtd"
   xmlns="http://www.w3.org/2000/svg"
   xmlns:svg="http://www.w3.org/2000/svg">
  <sodipodi:namedview
     id="namedview7"
     pagecolor="#505050"
     bordercolor="#eeeeee"
     borderopacity="1"
     inkscape:pageshadow="0"
     inkscape:pageopacity="0"
     inkscape:pagecheckerboard="0"
     inkscape:document-units="px"
     showgrid="false"
     inkscape:zoom="7.246694"
     inkscape:cx="35.602442"
     inkscape:cy="24.769916"
     inkscape:window-width="1620"
     inkscape:window-height="1018"
     inkscape:window-x="-6"
     inkscape:window-y="-6"
     inkscape:window-maximized="1"
     inkscape:current-layer="layer1"
     units="px"
     width="64px"
     inkscape:showpageshadow="0"
     inkscape:deskcolor="#505050"
     inkscape:lockguides="true" />
  <defs
     id="defs2" />
  <g
     inkscape:label="Layer 1"
     inkscape:groupmode="layer"
     id="layer1">
    <path
       style="fill:#560081;fill-opacity:1;stroke-width:0.873125;stroke-linejoin:round"
       d="m 5.378334,7.8905625 c 2.7380336,4.3804295 1.2666504,6.8598425 0.3721333,7.7726145 1.4537479,0.65104 3.171004,0.801415 5.3123367,0.146044 C 9.9309655,14.932959 7.365927,9.3139582 7.1076349,8.0334736 6.9290915,7.1483433 7.0461909,4.7029065 10.071718,4.9679464 10.898035,5.0403329 11.54707,6.3080766 11.176359,6.7372494 10.598038,7.4067725 8.6895671,7.1870705 9.9581264,6.0617535 6.6176429,5.7615355 8.1082252,9.3443605 10.469234,9.3869093 11.635065,9.4079193 13.414558,7.1641564 13.23344,5.8950603 12.295055,-0.68022391 2.6403004,3.5101325 5.378334,7.8905625 Z"
       id="path7988"
       sodipodi:nodetypes="zccssscssz" />
    <g
       id="g10417"
       transform="matrix(0.75078315,0,0,0.75078315,1.3166809,-1.2800161)">
      <path
         style="fill:#560081;fill-opacity:1;stroke-width:0.873125;stroke-linejoin:round"
         d="M 5.4363247,8.8599356 C 3.0266049,6.3224279 0.70816275,8.0019294 0.17875465,8.4948267 0.72641815,9.5901535 2.9535836,10.740247 5.4363247,8.8599356 Z"
         id="path8309" />
      <path
         style="fill:#48006c;fill-opacity:1;stroke-width:0.873125;stroke-linejoin:round"
         d="M 0.28828735,8.4400603 C 1.0002498,8.4583166 5.0712156,8.7869137 5.3267919,8.8416801 5.5823681,8.8964465 3.7651354,9.9615325 2.5154524,9.8822405 0.86985125,9.7778275 0.04390975,8.4762644 0.28828735,8.4400603 Z"
         id="path8325"
         sodipodi:nodetypes="cssc" />
    </g>
    <g
       id="g10423"
       transform="matrix(0.60945543,0.43845115,-0.43845115,0.60945543,7.6294224,-4.2539187)">
      <path
         style="fill:#560081;fill-opacity:1;stroke-width:0.873125;stroke-linejoin:round"
         d="M 5.4363247,8.8599356 C 3.0266049,6.3224279 0.70816275,8.0019294 0.17875465,8.4948267 0.72641815,9.5901535 2.9535836,10.740247 5.4363247,8.8599356 Z"
         id="path10419" />
      <path
         style="fill:#48006c;fill-opacity:1;stroke-width:0.873125;stroke-linejoin:round"
         d="M 0.28828735,8.4400603 C 1.0002498,8.4583166 5.0712156,8.7869137 5.3267919,8.8416801 5.5823681,8.8964465 3.7651354,9.9615325 2.5154524,9.8822405 0.86985125,9.7778275 0.04390975,8.4762644 0.28828735,8.4400603 Z"
         id="path10421"
         sodipodi:nodetypes="cssc" />
    </g>
    <g
       id="g11177"
       transform="matrix(-0.54771512,0.5135012,-0.5135012,-0.54771512,19.591149,5.2508185)">
      <path
         style="fill:#560081;fill-opacity:1;stroke-width:0.873125;stroke-linejoin:round"
         d="M 5.4363247,8.8599356 C 3.0266049,6.3224279 0.70816275,8.0019294 0.17875465,8.4948267 0.72641815,9.5901535 2.9535836,10.740247 5.4363247,8.8599356 Z"
         id="path11173" />
      <path
         style="fill:#48006c;fill-opacity:1;stroke-width:0.873125;stroke-linejoin:round"
         d="M 0.28828735,8.4400603 C 1.0002498,8.4583166 5.0712156,8.7869137 5.3267919,8.8416801 5.5823681,8.8964465 3.7651354,9.9615325 2.5154524,9.8822405 0.86985125,9.7778275 0.04390975,8.4762644 0.28828735,8.4400603 Z"
         id="path11175"
         sodipodi:nodetypes="cssc" />
    </g>
    <g
       id="g11951"
       transform="matrix(-0.70792167,0.0759678,-0.0720004,-0.74692987,17.519415,11.366917)">
      <path
         style="fill:#560081;fill-opacity:1;stroke-width:0.873125;stroke-linejoin:round"
         d="M 5.4363247,8.8599356 C 3.0266049,6.3224279 0.70816275,8.0019294 0.17875465,8.4948267 0.72641815,9.5901535 2.9535836,10.740247 5.4363247,8.8599356 Z"
         id="path11947" />
      <path
         style="fill:#48006c;fill-opacity:1;stroke-width:0.873125;stroke-linejoin:round"
         d="M 0.28828735,8.4400603 C 1.0002498,8.4583166 5.0712156,8.7869137 5.3267919,8.8416801 5.5823681,8.8964465 3.7651354,9.9615325 2.5154524,9.8822405 0.86985125,9.7778275 0.04390975,8.4762644 0.28828735,8.4400603 Z"
         id="path11949"
         sodipodi:nodetypes="cssc" />
    </g>
    <path
       id="path12817"
       style="fill:#8700cb;stroke-width:1.19487;stroke-linejoin:round"
       d="m 11.512925,6.3323154 c 0,0.5978643 -0.809461,1.0642738 -1.312557,1.0642743 -0.5030975,3e-7 -1.3125584,-0.7584967 -1.3125584,-1.3563616 0,-0.5978648 0.6999282,-1.0642748 1.2030254,-1.0642743 0.858141,0.00739 1.384841,0.4404456 1.42209,1.3563616 z"
       sodipodi:nodetypes="csscc" />
    <ellipse
       style="fill:#9500e0;fill-opacity:1;stroke-width:0.873125;stroke-linejoin:round"
       id="path15175"
       cx="10.332584"
       cy="5.5770402"
       rx="0.60242987"
       ry="0.62981308" />
  </g>
</svg>
