<?xml version="1.0" encoding="UTF-8" standalone="no"?>
<!-- Created with Inkscape (http://www.inkscape.org/) -->

<svg
   width="64"
   height="64"
   viewBox="0 0 16.933333 16.933334"
   version="1.1"
   id="svg5"
   inkscape:version="1.2.2 (732a01da63, 2022-12-09)"
   sodipodi:docname="growth8.svg"
   xmlns:inkscape="http://www.inkscape.org/namespaces/inkscape"
   xmlns:sodipodi="http://sodipodi.sourceforge.net/DTD/sodipodi-0.dtd"
   xmlns="http://www.w3.org/2000/svg"
   xmlns:svg="http://www.w3.org/2000/svg">
  <sodipodi:namedview
     id="namedview7"
     pagecolor="#505050"
     bordercolor="#eeeeee"
     borderopacity="1"
     inkscape:pageshadow="0"
     inkscape:pageopacity="0"
     inkscape:pagecheckerboard="0"
     inkscape:document-units="px"
     showgrid="false"
     inkscape:zoom="10.248373"
     inkscape:cx="39.518468"
     inkscape:cy="28.248387"
     inkscape:window-width="1620"
     inkscape:window-height="1018"
     inkscape:window-x="-6"
     inkscape:window-y="-6"
     inkscape:window-maximized="1"
     inkscape:current-layer="layer1"
     units="px"
     width="64px"
     inkscape:showpageshadow="0"
     inkscape:deskcolor="#505050"
     inkscape:lockguides="true" />
  <defs
     id="defs2" />
  <g
     inkscape:label="Layer 1"
     inkscape:groupmode="layer"
     id="layer1">
    <path
       style="fill:#560081;fill-opacity:1;stroke-width:0.873125;stroke-linejoin:round"
       d="m 5.378334,7.8905625 c 2.7380336,4.3804295 1.2666504,6.8598425 0.3721333,7.7726145 1.4537479,0.65104 3.171004,0.801415 5.3123367,0.146044 C 9.9309655,14.932959 7.365927,9.3139582 7.1076349,8.0334736 6.9290915,7.1483433 7.0461909,4.7029065 10.071718,4.9679464 10.898035,5.0403329 11.54707,6.3080766 11.176359,6.7372494 10.598038,7.4067725 8.6895671,7.1870705 9.9581264,6.0617535 6.6176429,5.7615355 8.1082252,9.3443605 10.469234,9.3869093 11.635065,9.4079193 13.414558,7.1641564 13.23344,5.8950603 12.295055,-0.68022391 2.6403004,3.5101325 5.378334,7.8905625 Z"
       id="path7988"
       sodipodi:nodetypes="zccssscssz" />
    <g
       id="g10417"
       transform="matrix(0.75078315,0,0,0.75078315,1.3166809,-1.2800161)">
      <path
         style="fill:#560081;fill-opacity:1;stroke-width:0.873125;stroke-linejoin:round"
         d="M 5.4363247,8.8599356 C 3.0266049,6.3224279 0.70816275,8.0019294 0.17875465,8.4948267 0.72641815,9.5901535 2.9535836,10.740247 5.4363247,8.8599356 Z"
         id="path8309" />
      <path
         style="fill:#48006c;fill-opacity:1;stroke-width:0.873125;stroke-linejoin:round"
         d="M 0.28828735,8.4400603 C 1.0002498,8.4583166 5.0712156,8.7869137 5.3267919,8.8416801 5.5823681,8.8964465 3.7651354,9.9615325 2.5154524,9.8822405 0.86985125,9.7778275 0.04390975,8.4762644 0.28828735,8.4400603 Z"
         id="path8325"
         sodipodi:nodetypes="cssc" />
    </g>
    <g
       id="g10423"
       transform="matrix(0.60945543,0.43845115,-0.43845115,0.60945543,7.6294224,-4.2539187)">
      <path
         style="fill:#560081;fill-opacity:1;stroke-width:0.873125;stroke-linejoin:round"
         d="M 5.4363247,8.8599356 C 3.0266049,6.3224279 0.70816275,8.0019294 0.17875465,8.4948267 0.72641815,9.5901535 2.9535836,10.740247 5.4363247,8.8599356 Z"
         id="path10419" />
      <path
         style="fill:#48006c;fill-opacity:1;stroke-width:0.873125;stroke-linejoin:round"
         d="M 0.28828735,8.4400603 C 1.0002498,8.4583166 5.0712156,8.7869137 5.3267919,8.8416801 5.5823681,8.8964465 3.7651354,9.9615325 2.5154524,9.8822405 0.86985125,9.7778275 0.04390975,8.4762644 0.28828735,8.4400603 Z"
         id="path10421"
         sodipodi:nodetypes="cssc" />
    </g>
    <g
       id="g11177"
       transform="matrix(-0.54771512,0.5135012,-0.5135012,-0.54771512,19.591149,5.2508185)">
      <path
         style="fill:#560081;fill-opacity:1;stroke-width:0.873125;stroke-linejoin:round"
         d="M 5.4363247,8.8599356 C 3.0266049,6.3224279 0.70816275,8.0019294 0.17875465,8.4948267 0.72641815,9.5901535 2.9535836,10.740247 5.4363247,8.8599356 Z"
         id="path11173" />
      <path
         style="fill:#48006c;fill-opacity:1;stroke-width:0.873125;stroke-linejoin:round"
         d="M 0.28828735,8.4400603 C 1.0002498,8.4583166 5.0712156,8.7869137 5.3267919,8.8416801 5.5823681,8.8964465 3.7651354,9.9615325 2.5154524,9.8822405 0.86985125,9.7778275 0.04390975,8.4762644 0.28828735,8.4400603 Z"
         id="path11175"
         sodipodi:nodetypes="cssc" />
    </g>
    <path
       style="fill:#ff8700;fill-opacity:1;stroke-width:0.645844;stroke-linejoin:round"
       d="M 10.198573,7.5565327 C 7.3278547,7.4405589 9.0915267,11.267498 9.3021671,11.442932 10.542989,10.928576 12.182584,9.3439831 10.198573,7.5565327 Z"
       id="path16436" />
    <path
       style="fill:#ff5c00;fill-opacity:1;stroke-width:0.645844;stroke-linejoin:round"
       d="M 9.5922505,7.1609818 C 7.1924361,5.58131 6.7301535,9.7696623 6.8201651,10.028592 8.1485265,10.227733 10.37043,9.7155298 9.5922505,7.1609818 Z"
       id="path16428" />
    <path
       style="fill:#ff8700;fill-opacity:1;stroke-width:0.645844;stroke-linejoin:round"
       d="M 11.731012,6.5538556 C 11.445879,9.4127315 15.3702,7.8779082 15.557758,7.6779814 15.117502,6.4089769 13.632398,4.6787522 11.731012,6.5538556 Z"
       id="path16438" />
    <g
       id="g11951"
       transform="matrix(-0.70792167,0.0759678,-0.0720004,-0.74692987,17.519415,11.366917)">
      <path
         style="fill:#560081;fill-opacity:1;stroke-width:0.873125;stroke-linejoin:round"
         d="M 5.4363247,8.8599356 C 3.0266049,6.3224279 0.70816275,8.0019294 0.17875465,8.4948267 0.72641815,9.5901535 2.9535836,10.740247 5.4363247,8.8599356 Z"
         id="path11947" />
      <path
         style="fill:#48006c;fill-opacity:1;stroke-width:0.873125;stroke-linejoin:round"
         d="M 0.28828735,8.4400603 C 1.0002498,8.4583166 5.0712156,8.7869137 5.3267919,8.8416801 5.5823681,8.8964465 3.7651354,9.9615325 2.5154524,9.8822405 0.86985125,9.7778275 0.04390975,8.4762644 0.28828735,8.4400603 Z"
         id="path11949"
         sodipodi:nodetypes="cssc" />
    </g>
    <path
       style="fill:#ff8700;fill-opacity:1;stroke-width:0.645844;stroke-linejoin:round"
       d="M 10.430061,5.2016701 C 13.180151,6.0332184 12.4316,1.8864549 12.271632,1.6638366 10.941516,1.8508911 8.9571907,2.9741294 10.430061,5.2016701 Z"
       id="path16440" />
    <path
       style="fill:#ff5c00;fill-opacity:1;stroke-width:0.645844;stroke-linejoin:round"
       d="M 11.422274,7.0921058 C 9.7037743,9.394546 13.857556,10.103121 14.121348,10.02854 14.39851,8.7142421 14.018283,6.4659899 11.422274,7.0921058 Z"
       id="path16430" />
    <path
       style="fill:#ff8700;fill-opacity:1;stroke-width:0.645844;stroke-linejoin:round"
       d="M 9.3109683,5.900079 C 9.4632809,3.0310599 5.6143193,4.7461307 5.4362298,4.9545364 5.9348332,6.2017699 7.4985389,7.8612985 9.3109683,5.900079 Z"
       id="path16442" />
    <path
       style="fill:#ff5c00;fill-opacity:1;stroke-width:0.645844;stroke-linejoin:round"
       d="M 11.00489,5.2627157 C 12.93236,7.3932856 14.429313,3.4543634 14.407048,3.1811365 13.170955,2.6555201 10.891589,2.5946738 11.00489,5.2627157 Z"
       id="path16432" />
    <path
       style="fill:#ff5c00;fill-opacity:1;stroke-width:0.645844;stroke-linejoin:round"
       d="M 9.6859174,5.2840409 C 11.295848,2.9044205 7.1136883,2.3891405 6.8536362,2.4758684 6.6376924,3.8016003 7.1217201,6.0298121 9.6859174,5.2840409 Z"
       id="path16434" />
    <path
       style="fill:#ff0000;fill-opacity:1;stroke-width:0.645844;stroke-linejoin:round"
       d="M 9.0410244,6.2873683 C 8.1844853,3.5449583 5.1739304,6.493273 5.0795837,6.750655 5.9813912,7.7461169 8.0252092,8.7570643 9.0410244,6.2873683 Z"
       id="path16420" />
    <path
       style="fill:#ff0000;fill-opacity:1;stroke-width:0.645844;stroke-linejoin:round"
       d="m 10.500795,7.3931711 c -2.7881657,0.6932562 -0.0226,3.8725059 0.228771,3.9818729 1.04693,-0.841508 2.176695,-2.8221244 -0.228771,-3.9818729 z"
       id="path16422" />
    <path
       style="fill:#ff0000;fill-opacity:1;stroke-width:0.645844;stroke-linejoin:round"
       d="m 11.336507,5.7131523 c 0.142092,2.8695435 3.795332,0.769588 3.951159,0.5440517 C 14.664043,5.0675434 12.938717,3.5767516 11.336507,5.7131523 Z"
       id="path16424" />
    <path
       style="fill:#ff0000;fill-opacity:1;stroke-width:0.645844;stroke-linejoin:round"
       d="M 10.302326,4.8942427 C 13.055361,4.0724958 10.145406,1.0248517 9.8892354,0.92725323 8.8824362,1.8163833 7.8456897,3.8472371 10.302326,4.8942427 Z"
       id="path16426" />
    <path
       style="fill:#ff0066;fill-opacity:1;stroke-width:0.645844;stroke-linejoin:round"
       d="m 10.959079,7.4924471 c -2.1861913,1.8641461 1.70713,3.4759919 1.980889,3.4617519 0.561648,-1.2201447 0.689327,-3.496744 -1.980889,-3.4617519 z"
       id="path16444" />
    <path
       style="fill:#ff0066;fill-opacity:1;stroke-width:0.645844;stroke-linejoin:round"
       d="M 11.403227,5.7158034 C 13.13515,8.0081641 14.973879,4.2167195 14.975813,3.9425936 13.790931,3.3099401 11.525828,3.0481732 11.403227,5.7158034 Z"
       id="path16446" />
    <path
       style="fill:#ff0066;fill-opacity:1;stroke-width:0.645844;stroke-linejoin:round"
       d="M 9.530012,5.6065172 C 12.11354,4.3495958 8.7482673,1.8136706 8.4796691,1.7588647 7.630223,2.7993642 6.9362013,4.9713553 9.530012,5.6065172 Z"
       id="path16448" />
    <path
       style="fill:#ff0066;fill-opacity:1;stroke-width:0.645844;stroke-linejoin:round"
       d="M 9.1827031,6.8791208 C 7.3463878,4.6695019 5.6853733,8.5420985 5.6961471,8.8160195 6.9090807,9.3930713 9.1838818,9.5495666 9.1827031,6.8791208 Z"
       id="path16450" />
    <path
       id="path12817"
       style="fill:#8700cb;stroke-width:1.37153;stroke-linejoin:round"
       d="m 11.745278,6.5254878 c 0,0.6923896 -0.920911,1.2325408 -1.493276,1.2325414 -0.5723662,3e-7 -1.4932779,-0.8784189 -1.4932779,-1.5708092 0,-0.6923903 0.7962979,-1.232542 1.3686639,-1.2325415 0.976294,0.00856 1.575513,0.5100823 1.61789,1.5708093 z"
       sodipodi:nodetypes="csscc" />
    <ellipse
       style="fill:#9500e0;fill-opacity:1;stroke-width:1.00222;stroke-linejoin:round"
       id="path15175"
       cx="10.402423"
       cy="5.6507998"
       rx="0.68537551"
       ry="0.72938973" />
  </g>
</svg>
