<?xml version="1.0" encoding="UTF-8" standalone="no"?>
<!-- Created with Inkscape (http://www.inkscape.org/) -->

<svg
   width="64"
   height="64"
   viewBox="0 0 16.933333 16.933334"
   version="1.1"
   id="svg5"
   inkscape:version="1.2.2 (732a01da63, 2022-12-09)"
   sodipodi:docname="growth4.svg"
   xmlns:inkscape="http://www.inkscape.org/namespaces/inkscape"
   xmlns:sodipodi="http://sodipodi.sourceforge.net/DTD/sodipodi-0.dtd"
   xmlns="http://www.w3.org/2000/svg"
   xmlns:svg="http://www.w3.org/2000/svg">
  <sodipodi:namedview
     id="namedview7"
     pagecolor="#505050"
     bordercolor="#eeeeee"
     borderopacity="1"
     inkscape:pageshadow="0"
     inkscape:pageopacity="0"
     inkscape:pagecheckerboard="0"
     inkscape:document-units="px"
     showgrid="false"
     inkscape:zoom="10.248373"
     inkscape:cx="16.880728"
     inkscape:cy="16.148905"
     inkscape:window-width="1620"
     inkscape:window-height="1018"
     inkscape:window-x="-6"
     inkscape:window-y="-6"
     inkscape:window-maximized="1"
     inkscape:current-layer="layer1"
     units="px"
     width="64px"
     inkscape:showpageshadow="0"
     inkscape:deskcolor="#505050"
     inkscape:lockguides="true" />
  <defs
     id="defs2" />
  <g
     inkscape:label="Layer 1"
     inkscape:groupmode="layer"
     id="layer1">
    <path
       style="fill:#560081;fill-opacity:1;stroke-width:0.873125;stroke-linejoin:round"
       d="m 6.2363402,8.0000952 c 1.5926842,3.8413738 0.4086442,6.7503098 -0.4858729,7.6630818 1.4537479,0.65104 3.171004,0.801415 5.3123367,0.146044 C 9.9309655,14.932959 7.8770796,9.4600018 7.6187875,8.1795172 7.4402441,7.2943869 7.0644463,5.2323147 10.089973,5.4973545 12.205372,5.6826661 7.8764044,7.9084131 9.9581264,6.0617535 6.6176429,5.7615355 7.7066053,8.7236752 10.067614,8.766224 11.233445,8.787234 12.197494,7.0661065 12.138113,5.7855275 11.906032,0.78058101 4.643656,4.1587213 6.2363402,8.0000952 Z"
       id="path7988"
       sodipodi:nodetypes="zccsscssz" />
    <g
       id="g10417"
       transform="matrix(0.75078315,0,0,0.75078315,2.4302634,-1.3712934)">
      <path
         style="fill:#560081;fill-opacity:1;stroke-width:0.873125;stroke-linejoin:round"
         d="M 5.4363247,8.8599356 C 3.0266049,6.3224279 0.70816275,8.0019294 0.17875465,8.4948267 0.72641815,9.5901535 2.9535836,10.740247 5.4363247,8.8599356 Z"
         id="path8309" />
      <path
         style="fill:#48006c;fill-opacity:1;stroke-width:0.873125;stroke-linejoin:round"
         d="M 0.28828735,8.4400603 C 1.0002498,8.4583166 5.0712156,8.7869137 5.3267919,8.8416801 5.5823681,8.8964465 3.7651354,9.9615325 2.5154524,9.8822405 0.86985125,9.7778275 0.04390975,8.4762644 0.28828735,8.4400603 Z"
         id="path8325"
         sodipodi:nodetypes="cssc" />
    </g>
    <g
       id="g10423"
       transform="matrix(0.60945543,0.43845115,-0.43845115,0.60945543,8.2318523,-3.7975324)">
      <path
         style="fill:#560081;fill-opacity:1;stroke-width:0.873125;stroke-linejoin:round"
         d="M 5.4363247,8.8599356 C 3.0266049,6.3224279 0.70816275,8.0019294 0.17875465,8.4948267 0.72641815,9.5901535 2.9535836,10.740247 5.4363247,8.8599356 Z"
         id="path10419" />
      <path
         style="fill:#48006c;fill-opacity:1;stroke-width:0.873125;stroke-linejoin:round"
         d="M 0.28828735,8.4400603 C 1.0002498,8.4583166 5.0712156,8.7869137 5.3267919,8.8416801 5.5823681,8.8964465 3.7651354,9.9615325 2.5154524,9.8822405 0.86985125,9.7778275 0.04390975,8.4762644 0.28828735,8.4400603 Z"
         id="path10421"
         sodipodi:nodetypes="cssc" />
    </g>
    <g
       id="g11177"
       transform="matrix(-0.54771512,0.5135012,-0.5135012,-0.54771512,18.62361,5.6706939)">
      <path
         style="fill:#560081;fill-opacity:1;stroke-width:0.873125;stroke-linejoin:round"
         d="M 5.4363247,8.8599356 C 3.0266049,6.3224279 0.70816275,8.0019294 0.17875465,8.4948267 0.72641815,9.5901535 2.9535836,10.740247 5.4363247,8.8599356 Z"
         id="path11173" />
      <path
         style="fill:#48006c;fill-opacity:1;stroke-width:0.873125;stroke-linejoin:round"
         d="M 0.28828735,8.4400603 C 1.0002498,8.4583166 5.0712156,8.7869137 5.3267919,8.8416801 5.5823681,8.8964465 3.7651354,9.9615325 2.5154524,9.8822405 0.86985125,9.7778275 0.04390975,8.4762644 0.28828735,8.4400603 Z"
         id="path11175"
         sodipodi:nodetypes="cssc" />
    </g>
    <g
       id="g11951"
       transform="matrix(-0.74692987,0.0759678,-0.0759678,-0.74692987,16.653044,11.330406)">
      <path
         style="fill:#560081;fill-opacity:1;stroke-width:0.873125;stroke-linejoin:round"
         d="M 5.4363247,8.8599356 C 3.0266049,6.3224279 0.70816275,8.0019294 0.17875465,8.4948267 0.72641815,9.5901535 2.9535836,10.740247 5.4363247,8.8599356 Z"
         id="path11947" />
      <path
         style="fill:#48006c;fill-opacity:1;stroke-width:0.873125;stroke-linejoin:round"
         d="M 0.28828735,8.4400603 C 1.0002498,8.4583166 5.0712156,8.7869137 5.3267919,8.8416801 5.5823681,8.8964465 3.7651354,9.9615325 2.5154524,9.8822405 0.86985125,9.7778275 0.04390975,8.4762644 0.28828735,8.4400603 Z"
         id="path11949"
         sodipodi:nodetypes="cssc" />
    </g>
  </g>
</svg>
