<?xml version="1.0" encoding="UTF-8" standalone="no"?>
<!-- Created with Inkscape (http://www.inkscape.org/) -->

<svg
   width="340"
   height="176"
   viewBox="0 0 89.958331 46.566671"
   version="1.1"
   id="svg5"
   inkscape:version="1.2.2 (732a01da63, 2022-12-09)"
   sodipodi:docname="basic_seeds.svg"
   xml:space="preserve"
   xmlns:inkscape="http://www.inkscape.org/namespaces/inkscape"
   xmlns:sodipodi="http://sodipodi.sourceforge.net/DTD/sodipodi-0.dtd"
   xmlns="http://www.w3.org/2000/svg"
   xmlns:svg="http://www.w3.org/2000/svg"><sodipodi:namedview
     id="namedview7"
     pagecolor="#505050"
     bordercolor="#eeeeee"
     borderopacity="1"
     inkscape:pageshadow="0"
     inkscape:pageopacity="0"
     inkscape:pagecheckerboard="0"
     inkscape:document-units="px"
     showgrid="false"
     inkscape:zoom="1.8116734"
     inkscape:cx="130.81828"
     inkscape:cy="112.32709"
     inkscape:window-width="1620"
     inkscape:window-height="1018"
     inkscape:window-x="-6"
     inkscape:window-y="-6"
     inkscape:window-maximized="1"
     inkscape:current-layer="layer1"
     units="px"
     width="64px"
     inkscape:showpageshadow="0"
     inkscape:deskcolor="#505050"
     inkscape:lockguides="false" /><defs
     id="defs2" /><g
     inkscape:label="Layer 1"
     inkscape:groupmode="layer"
     id="layer1"
     transform="translate(-8.4705715,-23.074867)"><path
       style="fill:#212121;fill-opacity:1;stroke:none;stroke-width:3.72759;stroke-linejoin:round"
       d="m 33.840307,40.96907 c 0,0 3.214905,-14.306335 11.573662,-12.377391 8.358756,1.928944 2.571923,15.431551 -11.573662,12.377391 z"
       id="path29830" /><path
       style="fill:#212121;fill-opacity:1;stroke:none;stroke-width:3.72759;stroke-linejoin:round"
       d="m 73.355791,47.39635 c 0,0 -15.081226,5.496768 -16.690356,-2.929397 -0.716248,-3.750587 4.015108,-5.807535 8.651639,-4.947346 3.606171,0.669029 7.154975,3.102725 8.038717,7.876743 z"
       id="path30312"
       sodipodi:nodetypes="cssc" /><path
       style="fill:#212121;fill-opacity:1;stroke:none;stroke-width:3.72759;stroke-linejoin:round"
       d="m 39.393592,62.426299 c 0,0 -0.764774,-16.203779 7.684303,-14.719618 7.265974,1.276341 6.672772,12.903051 -7.684303,14.719618 z"
       id="path30314"
       sodipodi:nodetypes="csc" /><path
       style="fill:#313131;fill-opacity:1;stroke:none;stroke-width:2.79011;stroke-linejoin:round"
       d="m 35.602099,37.243411 c 0,0 2.611503,-9.867145 9.401422,-8.536743 6.789915,1.330402 2.089202,10.643211 -9.401422,8.536743 z"
       id="path30316" /><path
       style="fill:#313131;fill-opacity:1;stroke:none;stroke-width:2.53668;stroke-linejoin:round"
       d="m 71.253003,44.208019 c 0,0 -11.96221,3.209261 -13.238552,-1.710313 -0.568115,-2.189758 3.184726,-3.3907 6.862356,-2.888483 2.860364,0.390604 5.675226,1.811512 6.376196,4.598796 z"
       id="path30318"
       sodipodi:nodetypes="cssc" /><path
       style="fill:#313131;fill-opacity:1;stroke:none;stroke-width:2.42773;stroke-linejoin:round"
       d="m 40.696983,56.174773 c 0,0 -0.605388,-8.682819 6.08282,-7.88753 5.751678,0.683932 5.282103,6.914118 -6.08282,7.88753 z"
       id="path30389"
       sodipodi:nodetypes="csc" /></g></svg>
