<?xml version="1.0" encoding="UTF-8" standalone="no"?>
<!-- Created with Inkscape (http://www.inkscape.org/) -->

<svg
   width="340"
   height="176"
   viewBox="0 0 89.958331 46.566671"
   version="1.1"
   id="svg5"
   inkscape:version="1.2.2 (732a01da63, 2022-12-09)"
   sodipodi:docname="blood_dagger.svg"
   xml:space="preserve"
   xmlns:inkscape="http://www.inkscape.org/namespaces/inkscape"
   xmlns:sodipodi="http://sodipodi.sourceforge.net/DTD/sodipodi-0.dtd"
   xmlns="http://www.w3.org/2000/svg"
   xmlns:svg="http://www.w3.org/2000/svg"><sodipodi:namedview
     id="namedview7"
     pagecolor="#505050"
     bordercolor="#eeeeee"
     borderopacity="1"
     inkscape:pageshadow="0"
     inkscape:pageopacity="0"
     inkscape:pagecheckerboard="0"
     inkscape:document-units="px"
     showgrid="false"
     inkscape:zoom="0.90583674"
     inkscape:cx="529.89681"
     inkscape:cy="250.04506"
     inkscape:window-width="1620"
     inkscape:window-height="1018"
     inkscape:window-x="-6"
     inkscape:window-y="-6"
     inkscape:window-maximized="1"
     inkscape:current-layer="layer1"
     units="px"
     width="64px"
     inkscape:showpageshadow="0"
     inkscape:deskcolor="#505050"
     inkscape:lockguides="false" /><defs
     id="defs2" /><g
     inkscape:label="Layer 1"
     inkscape:groupmode="layer"
     id="layer1"
     transform="translate(-8.4705715,-23.074867)"><path
       style="fill:#881c1c;fill-opacity:1;stroke:none;stroke-width:1.30774;stroke-linejoin:round;stroke-dasharray:none;stroke-opacity:1"
       d="m 63.224213,59.259564 c 0,0 -2.032093,2.865773 -2.032093,4.012081 0,1.14631 0.468945,2.501039 2.032093,2.501039 1.563148,0 1.927883,-1.198415 1.875778,-2.292618 -0.05211,-1.094204 -1.875778,-4.220502 -1.875778,-4.220502 z"
       id="path39306" /><path
       style="fill:#7a1919;fill-opacity:1;stroke:none;stroke-width:0.767805;stroke-linejoin:round;stroke-dasharray:none;stroke-opacity:1"
       d="m 63.061443,59.640796 c 0,0 -1.209463,1.759964 -1.209463,2.478361 0,0.718397 0.257938,1.567412 1.117728,1.567412 0.859791,0 1.06041,-0.751052 1.031749,-1.436794 -0.02865,-0.685743 -0.940014,-2.608979 -0.940014,-2.608979 z"
       id="path39377"
       sodipodi:nodetypes="csssc" /><path
       style="fill:#881c1c;fill-opacity:1;stroke:none;stroke-width:0.79375;stroke-linecap:round;stroke-linejoin:round;stroke-dasharray:none;stroke-opacity:1"
       d="m 46.234421,64.129887 c 1.239222,-5.266688 3.594408,-8.093443 6.918985,-11.256258 1.904152,-1.811503 7.072382,-2.262455 10.223575,0.929415 C 63.067175,42.546786 72.258065,35.00819 72.258065,35.00819 l 1.135954,-8.674548 -10.017038,1.032684 -21.892909,22.40925 -5.060154,-5.679764 -3.614393,2.375174 5.989569,5.163421 -9.29416,8.364744 c 1.858833,2.065369 2.68498,4.750348 2.581712,5.989569 3.304589,-3.407858 10.53338,-5.989571 14.147775,-1.858833 z"
       id="path36486"
       sodipodi:nodetypes="csccccccscccc" /><path
       style="fill:#7a1919;fill-opacity:1;stroke:none;stroke-width:0.79375;stroke-linecap:round;stroke-linejoin:round;stroke-dasharray:none;stroke-opacity:1"
       d="m 32.635384,61.387455 38.10605,-31.187066 -6.092836,-0.619611 -23.132129,20.550418 -4.647079,-4.750348 -1.755563,1.135953 4.956884,5.8863 -8.158206,6.505912 1.239221,2.684978"
       id="path37042" /><path
       style="fill:#d3caba;fill-opacity:1;stroke-width:2.2656;stroke-linecap:round;stroke-linejoin:round"
       d="m 116.8083,77.134193 c -0.55267,5.305648 -5.96886,21.001524 9.50596,19.12244 15.4748,-1.879083 12.82198,-9.616487 11.71663,-18.238166"
       id="path92122" /><path
       style="fill:#881c1c;stroke-width:2.2656;stroke-linecap:round;stroke-linejoin:round"
       d="m 108.18662,75.586711 c 6.30046,4.752977 32.71817,6.521527 38.46595,2.210687 0.99481,-9.948091 -21.11206,-39.792364 -38.46595,-2.210687 z"
       id="path92120" /><path
       id="path93166"
       style="fill:#d3caba;stroke-width:2.2656;stroke-linecap:round;stroke-linejoin:round"
       d="m 119.01899,74.094499 c -1e-5,1.068313 -1.41041,1.934351 -3.15023,1.934351 -1.73983,0 -3.15023,-0.866039 -3.15023,-1.934351 0,-1.068313 2.40521,-3.260763 4.14503,-3.260763 1.73983,0 2.15542,2.19245 2.15543,3.260763 z"
       sodipodi:nodetypes="sssss" /><path
       id="path93169"
       style="fill:#d3caba;stroke-width:2.2656;stroke-linecap:round;stroke-linejoin:round"
       d="m 142.67333,74.978774 c 0.51116,1.295494 0.54684,2.804235 -3.15022,1.93435 -1.69358,-0.398482 -2.53228,-1.062902 -3.15023,-1.93435 -0.99205,-1.398994 1.6346,-3.517633 4.14504,-3.260764 1.73078,0.177095 1.76331,2.267009 2.15541,3.260764 z"
       sodipodi:nodetypes="sssss" /><path
       id="path93171"
       style="fill:#d3caba;stroke-width:2.2656;stroke-linecap:round;stroke-linejoin:round"
       d="m 131.17776,64.035874 c -0.1029,1.126204 0.25349,2.40975 -3.15023,1.934351 -1.72309,-0.240666 -3.15022,-0.866039 -3.15022,-1.934351 0,-1.068312 2.48539,-2.738698 4.14503,-3.260763 1.99025,-0.62606 2.32874,1.363954 2.15542,3.260763 z"
       sodipodi:nodetypes="sssss" /></g></svg>
