<?xml version="1.0" encoding="UTF-8" standalone="no"?>
<!-- Created with Inkscape (http://www.inkscape.org/) -->

<svg
   width="340"
   height="176"
   viewBox="0 0 89.958331 46.566671"
   version="1.1"
   id="svg5"
   inkscape:version="1.2.2 (732a01da63, 2022-12-09)"
   sodipodi:docname="blood_blade.svg"
   xml:space="preserve"
   xmlns:inkscape="http://www.inkscape.org/namespaces/inkscape"
   xmlns:sodipodi="http://sodipodi.sourceforge.net/DTD/sodipodi-0.dtd"
   xmlns="http://www.w3.org/2000/svg"
   xmlns:svg="http://www.w3.org/2000/svg"><sodipodi:namedview
     id="namedview7"
     pagecolor="#505050"
     bordercolor="#eeeeee"
     borderopacity="1"
     inkscape:pageshadow="0"
     inkscape:pageopacity="0"
     inkscape:pagecheckerboard="0"
     inkscape:document-units="px"
     showgrid="false"
     inkscape:zoom="1.8116735"
     inkscape:cx="180.4961"
     inkscape:cy="130.54229"
     inkscape:window-width="1620"
     inkscape:window-height="1018"
     inkscape:window-x="-6"
     inkscape:window-y="-6"
     inkscape:window-maximized="1"
     inkscape:current-layer="layer1"
     units="px"
     width="64px"
     inkscape:showpageshadow="0"
     inkscape:deskcolor="#505050"
     inkscape:lockguides="false" /><defs
     id="defs2" /><g
     inkscape:label="Layer 1"
     inkscape:groupmode="layer"
     id="layer1"
     transform="translate(-8.4705715,-23.074867)"><path
       style="fill:#881c1c;fill-opacity:1;stroke:none;stroke-width:1.49639;stroke-linejoin:round;stroke-dasharray:none;stroke-opacity:1"
       d="m 42.604453,56.630779 c 0,0 2.660675,2.865773 2.660675,4.012081 0,1.14631 -0.614002,2.501039 -2.660675,2.501039 -2.046673,0 -2.52423,-1.198415 -2.456008,-2.292618 0.06823,-1.094204 2.456008,-4.220502 2.456008,-4.220502 z"
       id="path39306" /><path
       style="fill:#7a1919;fill-opacity:1;stroke:none;stroke-width:0.878567;stroke-linejoin:round;stroke-dasharray:none;stroke-opacity:1"
       d="m 42.817572,57.012011 c 0,0 1.583583,1.759964 1.583583,2.478361 0,0.718397 -0.337725,1.567412 -1.463472,1.567412 -1.125748,0 -1.388424,-0.751052 -1.350897,-1.436794 0.03751,-0.685743 1.230786,-2.608979 1.230786,-2.608979 z"
       id="path39377"
       sodipodi:nodetypes="csssc" /><path
       style="fill:#881c1c;fill-opacity:1;stroke:none;stroke-width:0.957324;stroke-linecap:round;stroke-linejoin:round;stroke-dasharray:none;stroke-opacity:1"
       d="M 71.580714,58.283665 C 65.683376,40.794927 42.744801,42.262777 42.523058,57.309671 40.407438,39.700249 24.825004,38.407403 22.956834,38.607564 l -5.067749,-7.526765 13.978481,-3.843502 38.752123,10.351269 4.537545,-7.711942 5.858744,0.476532 -6.005654,7.677258 15.983929,3.325628 c -1.675431,2.813349 -1.700948,5.707939 -1.056856,6.811494 -5.859683,-1.586025 -15.1456,4.538963 -18.356683,10.116129 z"
       id="path36486"
       sodipodi:nodetypes="cccccccscccc" /><path
       style="fill:#7a1919;fill-opacity:1;stroke:none;stroke-width:0.939808;stroke-linecap:round;stroke-linejoin:round;stroke-dasharray:none;stroke-opacity:1"
       d="m 87.688922,44.149285 -61.938745,-10.742751 7.704711,-3.498811 38.234433,8.027282 4.198708,-6.649007 2.735551,0.214985 -4.157302,7.854592 13.193533,2.14083 -0.56342,3.09271"
       id="path37042" /><path
       style="fill:#d3caba;fill-opacity:1;stroke-width:2.2656;stroke-linecap:round;stroke-linejoin:round"
       d="m 116.8083,77.134193 c -0.55267,5.305648 -5.96886,21.001524 9.50596,19.12244 15.4748,-1.879083 12.82198,-9.616487 11.71663,-18.238166"
       id="path92122" /><path
       style="fill:#881c1c;stroke-width:2.2656;stroke-linecap:round;stroke-linejoin:round"
       d="m 108.18662,75.586711 c 6.30046,4.752977 32.71817,6.521527 38.46595,2.210687 0.99481,-9.948091 -21.11206,-39.792364 -38.46595,-2.210687 z"
       id="path92120" /><path
       id="path93166"
       style="fill:#d3caba;stroke-width:2.2656;stroke-linecap:round;stroke-linejoin:round"
       d="m 119.01899,74.094499 c -1e-5,1.068313 -1.41041,1.934351 -3.15023,1.934351 -1.73983,0 -3.15023,-0.866039 -3.15023,-1.934351 0,-1.068313 2.40521,-3.260763 4.14503,-3.260763 1.73983,0 2.15542,2.19245 2.15543,3.260763 z"
       sodipodi:nodetypes="sssss" /><path
       id="path93169"
       style="fill:#d3caba;stroke-width:2.2656;stroke-linecap:round;stroke-linejoin:round"
       d="m 142.67333,74.978774 c 0.51116,1.295494 0.54684,2.804235 -3.15022,1.93435 -1.69358,-0.398482 -2.53228,-1.062902 -3.15023,-1.93435 -0.99205,-1.398994 1.6346,-3.517633 4.14504,-3.260764 1.73078,0.177095 1.76331,2.267009 2.15541,3.260764 z"
       sodipodi:nodetypes="sssss" /><path
       id="path93171"
       style="fill:#d3caba;stroke-width:2.2656;stroke-linecap:round;stroke-linejoin:round"
       d="m 131.17776,64.035874 c -0.1029,1.126204 0.25349,2.40975 -3.15023,1.934351 -1.72309,-0.240666 -3.15022,-0.866039 -3.15022,-1.934351 0,-1.068312 2.48539,-2.738698 4.14503,-3.260763 1.99025,-0.62606 2.32874,1.363954 2.15542,3.260763 z"
       sodipodi:nodetypes="sssss" /><path
       style="fill:#881c1c;fill-opacity:1;stroke:none;stroke-width:1.49639;stroke-linejoin:round;stroke-dasharray:none;stroke-opacity:1"
       d="m 71.667133,61.742306 c 0,0 2.660675,2.865773 2.660675,4.012081 0,1.14631 -0.614002,2.501039 -2.660675,2.501039 -2.046673,0 -2.52423,-1.198415 -2.456008,-2.292618 0.06823,-1.094204 2.456008,-4.220502 2.456008,-4.220502 z"
       id="path116349" /><path
       style="fill:#7a1919;fill-opacity:1;stroke:none;stroke-width:0.878567;stroke-linejoin:round;stroke-dasharray:none;stroke-opacity:1"
       d="m 71.880252,62.123538 c 0,0 1.583583,1.759964 1.583583,2.478361 0,0.718397 -0.337725,1.567412 -1.463472,1.567412 -1.125748,0 -1.388424,-0.751052 -1.350897,-1.436794 0.03751,-0.685743 1.230786,-2.608979 1.230786,-2.608979 z"
       id="path116351"
       sodipodi:nodetypes="csssc" /></g></svg>
