<?xml version="1.0" encoding="UTF-8" standalone="no"?>
<!-- Created with Inkscape (http://www.inkscape.org/) -->

<svg
   width="340"
   height="176"
   viewBox="0 0 89.958331 46.566671"
   version="1.1"
   id="svg5"
   inkscape:version="1.2.2 (732a01da63, 2022-12-09)"
   sodipodi:docname="cool_drawing.svg"
   xml:space="preserve"
   xmlns:inkscape="http://www.inkscape.org/namespaces/inkscape"
   xmlns:sodipodi="http://sodipodi.sourceforge.net/DTD/sodipodi-0.dtd"
   xmlns="http://www.w3.org/2000/svg"
   xmlns:svg="http://www.w3.org/2000/svg"><sodipodi:namedview
     id="namedview7"
     pagecolor="#505050"
     bordercolor="#eeeeee"
     borderopacity="1"
     inkscape:pageshadow="0"
     inkscape:pageopacity="0"
     inkscape:pagecheckerboard="0"
     inkscape:document-units="px"
     showgrid="false"
     inkscape:zoom="1.8116735"
     inkscape:cx="246.7332"
     inkscape:cy="77.552606"
     inkscape:window-width="1620"
     inkscape:window-height="1018"
     inkscape:window-x="-6"
     inkscape:window-y="-6"
     inkscape:window-maximized="1"
     inkscape:current-layer="layer1"
     units="px"
     width="64px"
     inkscape:showpageshadow="0"
     inkscape:deskcolor="#505050"
     inkscape:lockguides="false" /><defs
     id="defs2" /><g
     inkscape:label="Layer 1"
     inkscape:groupmode="layer"
     id="layer1"
     transform="translate(-8.4705715,-23.074867)"><g
       id="g114241"
       transform="translate(93.76,2.7748287)"><rect
         style="fill:#e6e6e6;fill-opacity:1;stroke:none;stroke-width:1.12613;stroke-linecap:butt;stroke-linejoin:round;stroke-dasharray:none;stroke-opacity:1"
         id="rect113407"
         width="28.295549"
         height="38.725662"
         x="42.791126"
         y="26.482725"
         ry="1.7555627" /><path
         id="path113808"
         style="fill:#0c0c0c;stroke-width:0.737822;stroke-linejoin:round"
         d="m 69.021311,40.385152 c 0,2.504964 -2.030674,4.535638 -4.535638,4.535638 -2.504964,0 -4.535639,-2.030674 -4.535639,-4.535638 z"
         sodipodi:nodetypes="cscc" /><path
         style="fill:none;fill-opacity:1;stroke:#000000;stroke-width:1.05833;stroke-linecap:butt;stroke-linejoin:round;stroke-dasharray:none;stroke-opacity:1"
         d="m 43.978714,40.165792 c 0.309806,-0.05163 25.094227,0 25.094227,0"
         id="path113680" /><path
         id="path114227"
         style="fill:#0c0c0c;stroke-width:0.737822;stroke-linejoin:round"
         d="m 58.987929,40.385152 c 0,2.504964 -2.030675,4.535638 -4.535639,4.535638 -2.504963,0 -4.535638,-2.030674 -4.535638,-4.535638 z"
         sodipodi:nodetypes="cscc" /></g><g
       id="g114251"
       transform="matrix(0.76241213,0,0,0.76241213,8.5601723,8.6286722)"><rect
         style="fill:#e6e6e6;fill-opacity:1;stroke:none;stroke-width:1.12613;stroke-linecap:butt;stroke-linejoin:round;stroke-dasharray:none;stroke-opacity:1"
         id="rect114243"
         width="28.295549"
         height="38.725662"
         x="42.791126"
         y="26.482725"
         ry="1.7555627" /><path
         id="path114245"
         style="fill:#0c0c0c;stroke-width:0.737822;stroke-linejoin:round"
         d="m 69.021311,40.385152 c 0,2.504964 -2.030674,4.535638 -4.535638,4.535638 -2.504964,0 -4.535639,-2.030674 -4.535639,-4.535638 z"
         sodipodi:nodetypes="cscc" /><path
         style="fill:none;fill-opacity:1;stroke:#000000;stroke-width:1.05833;stroke-linecap:butt;stroke-linejoin:round;stroke-dasharray:none;stroke-opacity:1"
         d="m 43.978714,40.165792 c 0.309806,-0.05163 25.094227,0 25.094227,0"
         id="path114247" /><path
         id="path114249"
         style="fill:#0c0c0c;stroke-width:0.737822;stroke-linejoin:round"
         d="m 58.987929,40.385152 c 0,2.504964 -2.030675,4.535638 -4.535639,4.535638 -2.504963,0 -4.535638,-2.030674 -4.535638,-4.535638 z"
         sodipodi:nodetypes="cscc" /></g><g
       id="g114261"
       transform="matrix(0.72175738,-0.24563904,0.24563904,0.72175738,-27.112431,29.006281)"><rect
         style="fill:#e6e6e6;fill-opacity:1;stroke:none;stroke-width:1.12613;stroke-linecap:butt;stroke-linejoin:round;stroke-dasharray:none;stroke-opacity:1"
         id="rect114253"
         width="28.295549"
         height="38.725662"
         x="42.791126"
         y="26.482725"
         ry="1.7555627" /><path
         id="path114255"
         style="fill:#0c0c0c;stroke-width:0.737822;stroke-linejoin:round"
         d="m 69.021311,40.385152 c 0,2.504964 -2.030674,4.535638 -4.535638,4.535638 -2.504964,0 -4.535639,-2.030674 -4.535639,-4.535638 z"
         sodipodi:nodetypes="cscc" /><path
         style="fill:none;fill-opacity:1;stroke:#000000;stroke-width:1.05833;stroke-linecap:butt;stroke-linejoin:round;stroke-dasharray:none;stroke-opacity:1"
         d="m 43.978714,40.165792 c 0.309806,-0.05163 25.094227,0 25.094227,0"
         id="path114257" /><path
         id="path114259"
         style="fill:#0c0c0c;stroke-width:0.737822;stroke-linejoin:round"
         d="m 58.987929,40.385152 c 0,2.504964 -2.030675,4.535638 -4.535639,4.535638 -2.504963,0 -4.535638,-2.030674 -4.535638,-4.535638 z"
         sodipodi:nodetypes="cscc" /></g><g
       id="g114271"
       transform="matrix(0.69606165,0.31107947,-0.31107947,0.69606165,54.20195,-0.78440572)"><rect
         style="fill:#e6e6e6;fill-opacity:1;stroke:none;stroke-width:1.12613;stroke-linecap:butt;stroke-linejoin:round;stroke-dasharray:none;stroke-opacity:1"
         id="rect114263"
         width="28.295549"
         height="38.725662"
         x="42.791126"
         y="26.482725"
         ry="1.7555627" /><path
         id="path114265"
         style="fill:#0c0c0c;stroke-width:0.737822;stroke-linejoin:round"
         d="m 69.021311,40.385152 c 0,2.504964 -2.030674,4.535638 -4.535638,4.535638 -2.504964,0 -4.535639,-2.030674 -4.535639,-4.535638 z"
         sodipodi:nodetypes="cscc" /><path
         style="fill:none;fill-opacity:1;stroke:#000000;stroke-width:1.05833;stroke-linecap:butt;stroke-linejoin:round;stroke-dasharray:none;stroke-opacity:1"
         d="m 43.978714,40.165792 c 0.309806,-0.05163 25.094227,0 25.094227,0"
         id="path114267" /><path
         id="path114269"
         style="fill:#0c0c0c;stroke-width:0.737822;stroke-linejoin:round"
         d="m 58.987929,40.385152 c 0,2.504964 -2.030675,4.535638 -4.535639,4.535638 -2.504963,0 -4.535638,-2.030674 -4.535638,-4.535638 z"
         sodipodi:nodetypes="cscc" /></g></g></svg>
