<?xml version="1.0" encoding="UTF-8" standalone="no"?>
<!-- Created with Inkscape (http://www.inkscape.org/) -->

<svg
   width="340"
   height="176"
   viewBox="0 0 89.958331 46.566671"
   version="1.1"
   id="svg5"
   inkscape:version="1.2.2 (732a01da63, 2022-12-09)"
   sodipodi:docname="free_energy.svg"
   xml:space="preserve"
   xmlns:inkscape="http://www.inkscape.org/namespaces/inkscape"
   xmlns:sodipodi="http://sodipodi.sourceforge.net/DTD/sodipodi-0.dtd"
   xmlns="http://www.w3.org/2000/svg"
   xmlns:svg="http://www.w3.org/2000/svg"><sodipodi:namedview
     id="namedview7"
     pagecolor="#505050"
     bordercolor="#eeeeee"
     borderopacity="1"
     inkscape:pageshadow="0"
     inkscape:pageopacity="0"
     inkscape:pagecheckerboard="0"
     inkscape:document-units="px"
     showgrid="false"
     inkscape:zoom="2.5620932"
     inkscape:cx="188.90804"
     inkscape:cy="92.697643"
     inkscape:window-width="1620"
     inkscape:window-height="1018"
     inkscape:window-x="-6"
     inkscape:window-y="-6"
     inkscape:window-maximized="1"
     inkscape:current-layer="layer1"
     units="px"
     width="64px"
     inkscape:showpageshadow="0"
     inkscape:deskcolor="#505050"
     inkscape:lockguides="false" /><defs
     id="defs2" /><g
     inkscape:label="Layer 1"
     inkscape:groupmode="layer"
     id="layer1"
     transform="translate(-8.4705715,-23.074867)"><ellipse
       style="fill:#680a34;fill-opacity:1;stroke-width:0.545364;stroke-linecap:round;stroke-linejoin:round"
       id="ellipse111885"
       cx="53.392342"
       cy="62.689793"
       rx="11.391864"
       ry="3.1300585" /><ellipse
       style="fill:#b21258;fill-opacity:1;stroke-width:1.52577;stroke-linecap:round;stroke-linejoin:round"
       id="path25461"
       cx="52.875999"
       cy="42.076256"
       rx="16.806187"
       ry="16.606588" /><path
       style="fill:#8b0e45;fill-opacity:1;stroke-width:1.11605;stroke-linecap:round;stroke-linejoin:round"
       d="m 38.825787,41.129767 c 3.259121,-8.746347 14.437394,-17.887388 25.365997,-8.878099 8.735268,7.201154 0.905928,26.453111 -9.784029,25.365996 -6.75539,-0.686988 -10.978876,-7.46677 -9.421655,-12.230031 1.54008,-4.710831 6.885057,-5.435574 13.226556,-2.355416 -4.161544,0.808382 -7.225484,-0.3077 -5.254385,5.70735 1.721264,4.529642 8.062762,0.271778 7.881577,-7.6098 -0.181182,-7.881578 -22.014061,0 -22.014061,0 z"
       id="path28336"
       sodipodi:nodetypes="csssccsc" /><path
       style="fill:#c51461;fill-opacity:1;stroke-width:1.11605;stroke-linecap:round;stroke-linejoin:round"
       d="m 57.84316,56.375246 c 7.222297,-4.878837 8.841696,-8.786385 9.15299,-14.51934 0.311295,-5.732956 -8.314748,-16.117037 -14.938726,-15.560519 -6.623981,0.556518 -12.764007,4.749709 -13.937427,11.635497 -1.173421,6.885786 8.85619,18.04898 18.224884,11.052031 9.368689,-6.996951 0.277149,-17.996114 -5.610767,-16.995926 -5.887911,1.000186 -8.968065,8.10812 -4.037429,11.581827 4.930634,3.47371 10.085549,-1.915357 6.933587,-5.454249 -5.663684,5.581329 -7.146958,0.505856 -5.138214,-1.835119 4.559127,-3.944073 9.548835,3.00998 8.470658,6.01799 -1.233538,2.601447 -5.09142,8.002964 -10.350427,4.130631 -5.259006,-3.872334 -9.23405,-10.984711 -1.403747,-15.26292 7.830303,-4.278206 15.043082,0.403827 17.379967,6.127401 2.336883,5.723572 -3.569305,18.185977 -4.745349,19.082696 z"
       id="path28163"
       sodipodi:nodetypes="csssssscccsssc" /></g></svg>
