<?xml version="1.0" encoding="UTF-8" standalone="no"?>
<!-- Created with Inkscape (http://www.inkscape.org/) -->

<svg
   width="340"
   height="176"
   viewBox="0 0 89.958331 46.566671"
   version="1.1"
   id="svg5"
   inkscape:version="1.2.2 (732a01da63, 2022-12-09)"
   sodipodi:docname="magic_shield.svg"
   xml:space="preserve"
   xmlns:inkscape="http://www.inkscape.org/namespaces/inkscape"
   xmlns:sodipodi="http://sodipodi.sourceforge.net/DTD/sodipodi-0.dtd"
   xmlns="http://www.w3.org/2000/svg"
   xmlns:svg="http://www.w3.org/2000/svg"><sodipodi:namedview
     id="namedview7"
     pagecolor="#505050"
     bordercolor="#eeeeee"
     borderopacity="1"
     inkscape:pageshadow="0"
     inkscape:pageopacity="0"
     inkscape:pagecheckerboard="0"
     inkscape:document-units="px"
     showgrid="false"
     inkscape:zoom="1.8116734"
     inkscape:cx="192.91556"
     inkscape:cy="163.10887"
     inkscape:window-width="1620"
     inkscape:window-height="1018"
     inkscape:window-x="-6"
     inkscape:window-y="-6"
     inkscape:window-maximized="1"
     inkscape:current-layer="layer1"
     units="px"
     width="64px"
     inkscape:showpageshadow="0"
     inkscape:deskcolor="#505050"
     inkscape:lockguides="false" /><defs
     id="defs2" /><g
     inkscape:label="Layer 1"
     inkscape:groupmode="layer"
     id="layer1"
     transform="translate(-8.4705715,-23.074867)"><g
       id="g86779"
       transform="matrix(0.43383013,0,0,0.43383013,58.555678,25.117179)"><path
         style="fill:#b21258;fill-opacity:1;stroke:none;stroke-width:1.78837;stroke-linecap:round;stroke-linejoin:round;stroke-dasharray:none;stroke-opacity:1"
         d="m 68.599128,29.494882 c -4.811482,4.101107 -23.802786,2.047582 -28.881571,-0.51561 0.801913,17.002506 -0.178204,26.23 13.63253,32.8943 14.256242,-3.75935 15.102997,-28.17824 15.102997,-32.450227"
         id="path86775"
         sodipodi:nodetypes="cccc" /><path
         style="fill:#c51461;fill-opacity:1;stroke:none;stroke-width:2.11667;stroke-linecap:round;stroke-linejoin:round;stroke-dasharray:none;stroke-opacity:1"
         d="m 66.157799,32.567702 c -4.454329,2.190654 -18.839625,-0.292087 -25.1195,-1.679502 0.657195,4.965484 4.511205,9.920706 14.00404,8.825378 9.492835,-1.095327 10.969415,-3.713851 11.11546,-7.145876 z"
         id="path86777"
         sodipodi:nodetypes="ccsc" /></g><g
       id="g86773"
       transform="matrix(0.74848137,0,0,0.74848137,29.019208,14.02502)"><path
         style="fill:#b21258;fill-opacity:1;stroke:none;stroke-width:1.78837;stroke-linecap:round;stroke-linejoin:round;stroke-dasharray:none;stroke-opacity:1"
         d="m 68.599128,29.494882 c -4.811482,4.101107 -23.802786,2.047582 -28.881571,-0.51561 0.801913,17.002506 -0.178204,26.23 13.63253,32.8943 14.256242,-3.75935 15.102997,-28.17824 15.102997,-32.450227"
         id="path86769"
         sodipodi:nodetypes="cccc" /><path
         style="fill:#c51461;fill-opacity:1;stroke:none;stroke-width:2.11667;stroke-linecap:round;stroke-linejoin:round;stroke-dasharray:none;stroke-opacity:1"
         d="m 66.157799,32.567702 c -4.454329,2.190654 -18.839625,-0.292087 -25.1195,-1.679502 0.657195,4.965484 4.511205,9.920706 14.00404,8.825378 9.492835,-1.095327 10.969415,-3.713851 11.11546,-7.145876 z"
         id="path86771"
         sodipodi:nodetypes="ccsc" /></g><g
       id="g86767"
       transform="matrix(0.43383013,0,0,0.43383013,2.997261,23.464884)"><path
         style="fill:#b21258;fill-opacity:1;stroke:none;stroke-width:1.78837;stroke-linecap:round;stroke-linejoin:round;stroke-dasharray:none;stroke-opacity:1"
         d="m 68.599128,29.494882 c -4.811482,4.101107 -23.802786,2.047582 -28.881571,-0.51561 0.801913,17.002506 -0.178204,26.23 13.63253,32.8943 14.256242,-3.75935 15.102997,-28.17824 15.102997,-32.450227"
         id="path86763"
         sodipodi:nodetypes="cccc" /><path
         style="fill:#c51461;fill-opacity:1;stroke:none;stroke-width:2.11667;stroke-linecap:round;stroke-linejoin:round;stroke-dasharray:none;stroke-opacity:1"
         d="m 66.157799,32.567702 c -4.454329,2.190654 -18.839625,-0.292087 -25.1195,-1.679502 0.657195,4.965484 4.511205,9.920706 14.00404,8.825378 9.492835,-1.095327 10.969415,-3.713851 11.11546,-7.145876 z"
         id="path86765"
         sodipodi:nodetypes="ccsc" /></g><g
       id="g86761"
       transform="matrix(0.74848137,0,0,0.74848137,-2.3743954,13.198873)"><path
         style="fill:#b21258;fill-opacity:1;stroke:none;stroke-width:1.78837;stroke-linecap:round;stroke-linejoin:round;stroke-dasharray:none;stroke-opacity:1"
         d="m 68.599128,29.494882 c -4.811482,4.101107 -23.802786,2.047582 -28.881571,-0.51561 0.801913,17.002506 -0.178204,26.23 13.63253,32.8943 14.256242,-3.75935 15.102997,-28.17824 15.102997,-32.450227"
         id="path86755"
         sodipodi:nodetypes="cccc" /><path
         style="fill:#c51461;fill-opacity:1;stroke:none;stroke-width:2.11667;stroke-linecap:round;stroke-linejoin:round;stroke-dasharray:none;stroke-opacity:1"
         d="m 66.157799,32.567702 c -4.454329,2.190654 -18.839625,-0.292087 -25.1195,-1.679502 0.657195,4.965484 4.511205,9.920706 14.00404,8.825378 9.492835,-1.095327 10.969415,-3.713851 11.11546,-7.145876 z"
         id="path86757"
         sodipodi:nodetypes="ccsc" /></g><path
       style="fill:#ff0000;fill-opacity:1;stroke:none;stroke-width:2.58092;stroke-linecap:round;stroke-linejoin:round;stroke-dasharray:none;stroke-opacity:1"
       d="m -46.70686,102.43755 c 3.998681,11.55223 9.946694,11.92666 20.020994,11.20672 0.503672,-6.54774 -3.525711,-30.975874 11.206718,-34.249748 -6.799583,-3.651627 -25.939148,1.007345 -31.227712,23.043028 z"
       id="path74625"
       sodipodi:nodetypes="cccc" /><path
       style="fill:#ff6868;fill-opacity:1;stroke:none;stroke-width:2.11667;stroke-linecap:round;stroke-linejoin:round;stroke-dasharray:none;stroke-opacity:1"
       d="m -26.239389,79.915711 c -6.815717,2.891516 -13.218359,8.674549 -15.490264,13.941239 6.505911,-3.201321 10.739915,-13.321629 15.490264,-13.941239 z"
       id="path74627" /><path
       style="fill:#c51461;fill-opacity:1;stroke:none;stroke-width:0.510792;stroke-linejoin:round"
       d="m 83.961167,109.02428 c 0,0 -1.952537,-1.04595 -2.098462,-1.92274 -0.114085,-0.68549 -0.04677,-1.76729 1.08254,-1.84992 0.830488,-0.0608 1.23243,0.58265 1.23243,0.58265 0,0 1.53221,-1.23813 2.414897,-0.34959 0.518067,0.52151 0.448646,0.95753 -0.17675,1.60937 -0.857389,0.89363 -2.454655,1.93023 -2.454655,1.93023 z"
       id="path45232"
       sodipodi:nodetypes="csscssc" /><ellipse
       style="fill:#b21258;fill-opacity:1;stroke-width:0.614921;stroke-linecap:round;stroke-linejoin:round"
       id="path25461"
       cx="79.699959"
       cy="116.04565"
       rx="6.773262"
       ry="6.6928196" /><g
       id="g86753"
       transform="translate(-1.0223053,-0.29208723)"><path
         style="fill:#b21258;fill-opacity:1;stroke:none;stroke-width:1.78837;stroke-linecap:round;stroke-linejoin:round;stroke-dasharray:none;stroke-opacity:1"
         d="m 68.599128,29.494882 c -4.811482,4.101107 -23.802786,2.047582 -28.881571,-0.51561 0.801913,17.002506 -0.178204,26.23 13.63253,32.8943 14.256242,-3.75935 15.102997,-28.17824 15.102997,-32.450227"
         id="path73033"
         sodipodi:nodetypes="cccc" /><path
         style="fill:#c51461;fill-opacity:1;stroke:none;stroke-width:2.11667;stroke-linecap:round;stroke-linejoin:round;stroke-dasharray:none;stroke-opacity:1"
         d="M 66.157799,32.567702 C 61.70347,34.758356 47.318174,32.275615 41.038299,30.8882 41.695494,35.853684 45.273563,48.121348 54.766398,47.02602 64.259233,45.930693 66.011754,35.999727 66.157799,32.567702 Z"
         id="path86671" /><path
         style="fill:#c51461;fill-opacity:1;stroke:none;stroke-width:1.35368;stroke-linecap:round;stroke-linejoin:round;stroke-dasharray:none;stroke-opacity:1"
         d="m 60.827207,46.639778 c -2.848699,1.401 -12.048597,-0.186799 -16.064796,-1.0741 0.420299,3.1756 2.708599,11.021199 8.779598,10.320699 6.070999,-0.7005 7.191797,-7.051699 7.285198,-9.246599 z"
         id="path86742" /></g></g></svg>
