<?xml version="1.0" encoding="UTF-8" standalone="no"?>
<!-- Created with Inkscape (http://www.inkscape.org/) -->

<svg
   width="340"
   height="176"
   viewBox="0 0 89.958331 46.566671"
   version="1.1"
   id="svg5"
   inkscape:version="1.2.2 (732a01da63, 2022-12-09)"
   sodipodi:docname="middling_seeds.svg"
   xml:space="preserve"
   xmlns:inkscape="http://www.inkscape.org/namespaces/inkscape"
   xmlns:sodipodi="http://sodipodi.sourceforge.net/DTD/sodipodi-0.dtd"
   xmlns="http://www.w3.org/2000/svg"
   xmlns:svg="http://www.w3.org/2000/svg"><sodipodi:namedview
     id="namedview7"
     pagecolor="#505050"
     bordercolor="#eeeeee"
     borderopacity="1"
     inkscape:pageshadow="0"
     inkscape:pageopacity="0"
     inkscape:pagecheckerboard="0"
     inkscape:document-units="px"
     showgrid="false"
     inkscape:zoom="1.8116734"
     inkscape:cx="130.81828"
     inkscape:cy="112.32709"
     inkscape:window-width="1620"
     inkscape:window-height="1018"
     inkscape:window-x="-6"
     inkscape:window-y="-6"
     inkscape:window-maximized="1"
     inkscape:current-layer="layer1"
     units="px"
     width="64px"
     inkscape:showpageshadow="0"
     inkscape:deskcolor="#505050"
     inkscape:lockguides="false" /><defs
     id="defs2" /><g
     inkscape:label="Layer 1"
     inkscape:groupmode="layer"
     id="layer1"
     transform="translate(-8.4705715,-23.074867)"><path
       style="fill:#28170b;fill-opacity:1;stroke:none;stroke-width:3.23057;stroke-linejoin:round"
       d="m 32.592741,38.946189 c 0,0 5.304277,-11.439094 12.10738,-8.298959 6.803105,3.140128 -0.556887,13.436363 -12.10738,8.298959 z"
       id="path29830" /><path
       style="fill:#28170b;fill-opacity:1;stroke:none;stroke-width:3.35838;stroke-linejoin:round"
       d="m 74.313234,46.532646 c 0,0 -13.512877,6.02359 -15.765146,-1.137206 -1.002501,-3.187349 3.206918,-5.364973 7.590602,-5.008876 3.40951,0.276969 6.92443,2.086645 8.174544,6.146082 z"
       id="path30312"
       sodipodi:nodetypes="cssc" /><path
       style="fill:#28170b;fill-opacity:1;stroke:none;stroke-width:3.54557;stroke-linejoin:round"
       d="m 33.876173,60.486246 c 0,0 5.54095,-12.935079 13.437725,-9.200941 6.791014,3.21126 1.669815,12.145128 -13.437725,9.200941 z"
       id="path30314"
       sodipodi:nodetypes="csc" /><path
       style="fill:#462913;fill-opacity:1;stroke-width:2.94205;stroke-linecap:round;stroke-linejoin:round"
       d="m 33.400992,38.087872 c 0,0 3.383215,-6.08979 6.597271,-7.104756 3.214058,-1.014964 6.512696,1.099546 6.512696,1.099546 0,0 -4.059862,-0.930386 -6.258956,0.592061 -2.199087,1.522453 -6.851011,5.413149 -6.851011,5.413149 z"
       id="path73840" /><path
       style="fill:#462913;fill-opacity:1;stroke-width:3.55113;stroke-linecap:round;stroke-linejoin:round"
       d="m 33.993053,60.586271 c 0,0 4.125343,-7.276221 8.044418,-8.488923 3.919074,-1.212701 7.941283,1.313762 7.941283,1.313762 0,0 -4.950412,-1.111644 -7.631881,0.707408 -2.681474,1.819057 -8.35382,6.467753 -8.35382,6.467753 z"
       id="path74346" /><path
       style="fill:#462913;fill-opacity:1;stroke-width:3.55113;stroke-linecap:round;stroke-linejoin:round"
       d="m 59.954244,42.147322 c 0,0 3.910285,-2.339746 7.84568,-1.181062 3.935381,1.158683 6.394941,5.319721 6.394941,5.319721 0,0 -3.508136,-3.66542 -6.748247,-3.634182 -3.24011,0.03105 -7.492374,-0.504477 -7.492374,-0.504477 z"
       id="path74348"
       sodipodi:nodetypes="cscsc" /></g></svg>
