<?xml version="1.0" encoding="UTF-8" standalone="no"?>
<!-- Created with Inkscape (http://www.inkscape.org/) -->

<svg
   width="340"
   height="176"
   viewBox="0 0 89.958331 46.566671"
   version="1.1"
   id="svg5"
   inkscape:version="1.2.2 (732a01da63, 2022-12-09)"
   sodipodi:docname="mystical_seeds.svg"
   xml:space="preserve"
   xmlns:inkscape="http://www.inkscape.org/namespaces/inkscape"
   xmlns:sodipodi="http://sodipodi.sourceforge.net/DTD/sodipodi-0.dtd"
   xmlns="http://www.w3.org/2000/svg"
   xmlns:svg="http://www.w3.org/2000/svg"><sodipodi:namedview
     id="namedview7"
     pagecolor="#505050"
     bordercolor="#eeeeee"
     borderopacity="1"
     inkscape:pageshadow="0"
     inkscape:pageopacity="0"
     inkscape:pagecheckerboard="0"
     inkscape:document-units="px"
     showgrid="false"
     inkscape:zoom="1.2810466"
     inkscape:cx="210.76517"
     inkscape:cy="157.29326"
     inkscape:window-width="1620"
     inkscape:window-height="1018"
     inkscape:window-x="-6"
     inkscape:window-y="-6"
     inkscape:window-maximized="1"
     inkscape:current-layer="layer1"
     units="px"
     width="64px"
     inkscape:showpageshadow="0"
     inkscape:deskcolor="#505050"
     inkscape:lockguides="false" /><defs
     id="defs2" /><g
     inkscape:label="Layer 1"
     inkscape:groupmode="layer"
     id="layer1"
     transform="translate(-8.4705715,-23.074867)"><path
       style="fill:#560081;fill-opacity:1;stroke-width:0.614632;stroke-linecap:round;stroke-linejoin:round"
       d="m 46.30121,31.861469 c 3.298547,4.398067 17.89213,6.797013 23.88949,2.498902 C 67.291976,29.562482 53.598002,23.96494 46.30121,31.861469 Z"
       id="path84192" /><path
       style="fill:#7400ae;fill-opacity:1;stroke-width:0.614632;stroke-linecap:round;stroke-linejoin:round"
       d="M 48.25203,32.24908 C 51.220573,30.835488 64.366978,31.612964 67.47688,33.733354 62.246592,27.513549 51.220573,28.149665 48.25203,32.24908 Z"
       id="path85367" /><path
       style="fill:#560081;fill-opacity:1;stroke-width:0.614632;stroke-linecap:round;stroke-linejoin:round"
       d="M 28.741716,50.988739 C 33.070647,54.37751 47.785919,52.898198 52.45896,47.18814 48.412101,43.309316 33.733543,41.466134 28.741716,50.988739 Z"
       id="path108054" /><path
       style="fill:#7400ae;fill-opacity:1;stroke-width:0.614632;stroke-linecap:round;stroke-linejoin:round"
       d="M 30.726211,50.855615 C 33.224921,48.718575 46.121088,46.05 49.675458,47.288549 43.007448,42.643171 32.526356,46.125189 30.726211,50.855615 Z"
       id="path108056" /><path
       style="fill:#560081;fill-opacity:1;stroke-width:0.614632;stroke-linecap:round;stroke-linejoin:round"
       d="m 51.400521,56.350966 c 2.651468,4.815925 16.766515,9.231018 23.305739,5.813326 -2.199687,-5.15594 -14.976898,-12.612499 -23.305739,-5.813326 z"
       id="path108058" /><path
       style="fill:#7400ae;fill-opacity:1;stroke-width:0.614632;stroke-linecap:round;stroke-linejoin:round"
       d="m 53.278018,57.007433 c 3.136978,-0.984815 16.045679,1.622457 18.828697,4.156695 -4.30963,-6.889774 -15.316331,-7.80097 -18.828697,-4.156695 z"
       id="path108060" /></g></svg>
