<?xml version="1.0" encoding="UTF-8" standalone="no"?>
<!-- Created with Inkscape (http://www.inkscape.org/) -->

<svg
   width="340"
   height="176"
   viewBox="0 0 89.958331 46.566671"
   version="1.1"
   id="svg5"
   inkscape:version="1.2.2 (732a01da63, 2022-12-09)"
   sodipodi:docname="pour_one.svg"
   xml:space="preserve"
   xmlns:inkscape="http://www.inkscape.org/namespaces/inkscape"
   xmlns:sodipodi="http://sodipodi.sourceforge.net/DTD/sodipodi-0.dtd"
   xmlns="http://www.w3.org/2000/svg"
   xmlns:svg="http://www.w3.org/2000/svg"><sodipodi:namedview
     id="namedview7"
     pagecolor="#505050"
     bordercolor="#eeeeee"
     borderopacity="1"
     inkscape:pageshadow="0"
     inkscape:pageopacity="0"
     inkscape:pagecheckerboard="0"
     inkscape:document-units="px"
     showgrid="false"
     inkscape:zoom="3.6233469"
     inkscape:cx="109.01523"
     inkscape:cy="82.382395"
     inkscape:window-width="1620"
     inkscape:window-height="1018"
     inkscape:window-x="-6"
     inkscape:window-y="-6"
     inkscape:window-maximized="1"
     inkscape:current-layer="layer1"
     units="px"
     width="64px"
     inkscape:showpageshadow="0"
     inkscape:deskcolor="#505050"
     inkscape:lockguides="false" /><defs
     id="defs2" /><g
     inkscape:label="Layer 1"
     inkscape:groupmode="layer"
     id="layer1"
     transform="translate(-8.4705715,-23.074867)"><ellipse
       style="fill:#000000;fill-opacity:1;stroke:none;stroke-width:0.850374;stroke-linecap:round;stroke-linejoin:round;stroke-dasharray:none;stroke-opacity:1"
       id="path38837"
       cx="10.253112"
       cy="3.9118633"
       rx="10.610625"
       ry="7.9593773" /><path
       style="fill:#1a1a1a;fill-opacity:1;stroke:none;stroke-width:0.79375;stroke-linecap:round;stroke-linejoin:round;stroke-dasharray:none;stroke-opacity:1"
       d="m 36.611218,4.5898172 c 0.05164,1.34249 -0.464706,3.30459 -1.549027,4.079104 -1.084318,0.774513 1.135954,2.4268078 1.135954,2.4268078 0,0 3.201321,-0.413074 3.407857,-6.8157168"
       id="path38902" /><path
       style="fill:#1a1a1a;fill-opacity:1;stroke:none;stroke-width:0.79375;stroke-linecap:round;stroke-linejoin:round;stroke-dasharray:none;stroke-opacity:1"
       d="m 2.5957572,2.3738457 c -0.480277,4.45952 8.5664578,9.1891093 9.8078298,9.4811963 -2.336698,1.825546 -13.4360118,1e-6 -13.5820568,-9.5658573"
       id="path38731"
       sodipodi:nodetypes="ccc" /><path
       style="fill:#2b8ce7;fill-opacity:1;stroke:none;stroke-width:1.30774;stroke-linejoin:round;stroke-dasharray:none;stroke-opacity:1"
       d="m -4.9329521,111.51339 c 0,0 -2.032093,2.86577 -2.032093,4.01208 0,1.14631 0.468945,2.50104 2.032093,2.50104 1.563148,0 1.927883,-1.19841 1.875778,-2.29262 -0.05211,-1.0942 -1.875778,-4.2205 -1.875778,-4.2205 z"
       id="path39306" /><path
       style="fill:#489cea;fill-opacity:1;stroke:none;stroke-width:1.09037;stroke-linejoin:round;stroke-dasharray:none;stroke-opacity:1"
       d="m -4.9683721,111.67556 c 0,0 -1.701922,2.52233 -1.701922,3.55192 0,1.02959 0.362963,2.24637 1.572836,2.24637 1.209874,0 1.492179,-1.07638 1.451848,-2.05917 -0.04032,-0.98279 -1.322762,-3.73912 -1.322762,-3.73912 z"
       id="path39377"
       sodipodi:nodetypes="csssc" /><path
       style="fill:#2b8ce6;fill-opacity:0.854902;stroke:none;stroke-width:0.79375;stroke-linecap:round;stroke-linejoin:round;stroke-dasharray:none;stroke-opacity:1"
       d="m -51.250979,116.38371 c 1.239222,-5.26668 3.594408,-8.09344 6.918985,-11.25625 1.904152,-1.81151 7.072382,-2.26246 10.223575,0.92941 -0.309806,-11.256257 8.881084,-18.794853 8.881084,-18.794853 l 1.135954,-8.674548 -10.017038,1.032684 -21.892909,22.409247 -5.060154,-5.679761 -3.614393,2.375174 5.989569,5.163417 -9.29416,8.36475 c 1.858833,2.06537 2.68498,4.75035 2.581712,5.98957 3.304589,-3.40786 10.53338,-5.98957 14.147775,-1.85884 z"
       id="path36486"
       sodipodi:nodetypes="csccccccscccc" /><path
       style="fill:#489cea;fill-opacity:1;stroke:none;stroke-width:0.79375;stroke-linecap:round;stroke-linejoin:round;stroke-dasharray:none;stroke-opacity:1"
       d="m -35.521781,113.64128 38.1060499,-31.187064 -6.092836,-0.619611 -23.1321289,20.550415 -4.647079,-4.750345 -1.755563,1.135953 4.956884,5.886302 -8.158206,6.50591 1.239221,2.68498"
       id="path37042" /><path
       style="fill:#2b8ce7;fill-opacity:1;stroke:none;stroke-width:0.79375;stroke-linecap:round;stroke-linejoin:round;stroke-dasharray:none;stroke-opacity:1"
       d="m 29.124258,26.585994 c 3.064436,0.459665 15.620267,7.909999 21.645366,22.013693 5.31194,-4.435827 14.609948,12.618421 14.911659,15.576016 2.891516,-3.820932 5.473226,-1.445758 6.815716,1.755564 C 73.775922,58.50289 75.125823,54.81412 79.332613,55.278244 77.251376,51.339319 74.278594,46.798621 70.787677,42.471971 62.617287,32.345572 51.60866,23.391684 42.549154,26.069652 38.934759,24.520626 30.053674,25.243504 29.124258,26.585994 Z"
       id="path38583"
       sodipodi:nodetypes="cccccscc" /><path
       style="fill:#489cea;fill-opacity:1;stroke:none;stroke-width:0.79375;stroke-linecap:round;stroke-linejoin:round;stroke-dasharray:none;stroke-opacity:1"
       d="M 50.354779,26.730778 C 60.475087,34.475911 73.693445,51.515202 74.416324,54.096914 74.313056,45.73217 57.067227,28.692878 50.354779,26.730778 Z"
       id="path38585" /><path
       style="fill:#489cea;fill-opacity:1;stroke:none;stroke-width:0.79375;stroke-linecap:round;stroke-linejoin:round;stroke-dasharray:none;stroke-opacity:1"
       d="m 54.547332,38.190381 c 3.066917,3.870156 10.953271,23.00187 10.953271,24.462307 1.16835,-3.870156 -8.105421,-22.782806 -10.953271,-24.462307 z"
       id="path38727" /><path
       style="fill:none;fill-opacity:1;stroke:#1877cd;stroke-width:0.79375;stroke-linecap:round;stroke-linejoin:round;stroke-dasharray:none;stroke-opacity:1"
       d="m 46.368891,29.099166 c -2.190655,1.20486 -4.381309,3.139938 -1.606481,4.563863 2.774828,1.423925 5.25757,-3.943177 1.606481,-4.563863 z"
       id="path42111" /><path
       style="fill:none;fill-opacity:1;stroke:#1877cd;stroke-width:0.79375;stroke-linecap:round;stroke-linejoin:round;stroke-dasharray:none;stroke-opacity:1"
       d="m 51.120434,43.676919 c 1.290854,-1.032685 3.149687,-3.769298 3.252954,-4.440543"
       id="path43259" /><path
       style="fill:none;fill-opacity:1;stroke:#1877cd;stroke-width:0.79375;stroke-linecap:round;stroke-linejoin:round;stroke-dasharray:none;stroke-opacity:1"
       d="m 53.753779,40.475597 c 0.975541,-0.06097 2.10225,-0.104391 2.145282,1.255161 0.02985,0.943149 -0.653955,1.782883 -1.246113,2.396191"
       id="path43261"
       sodipodi:nodetypes="csc" /><path
       style="fill:none;fill-opacity:1;stroke:#1877cd;stroke-width:0.79375;stroke-linecap:round;stroke-linejoin:round;stroke-dasharray:none;stroke-opacity:1"
       d="m 64.690802,46.291356 c 1.002106,1.899506 4.433616,3.622066 4.123728,2.572759 -0.844493,-2.859522 -9.45631,-5.129174 -4.513716,1.209833"
       id="path43263"
       sodipodi:nodetypes="csc" /></g></svg>
