<?xml version="1.0" encoding="UTF-8" standalone="no"?>
<!-- Created with Inkscape (http://www.inkscape.org/) -->

<svg
   width="340"
   height="176"
   viewBox="0 0 89.958331 46.566671"
   version="1.1"
   id="svg5"
   inkscape:version="1.2.2 (732a01da63, 2022-12-09)"
   sodipodi:docname="power_fungi.svg"
   xml:space="preserve"
   xmlns:inkscape="http://www.inkscape.org/namespaces/inkscape"
   xmlns:sodipodi="http://sodipodi.sourceforge.net/DTD/sodipodi-0.dtd"
   xmlns="http://www.w3.org/2000/svg"
   xmlns:svg="http://www.w3.org/2000/svg"><sodipodi:namedview
     id="namedview7"
     pagecolor="#505050"
     bordercolor="#eeeeee"
     borderopacity="1"
     inkscape:pageshadow="0"
     inkscape:pageopacity="0"
     inkscape:pagecheckerboard="0"
     inkscape:document-units="px"
     showgrid="false"
     inkscape:zoom="2.5620931"
     inkscape:cx="185.00499"
     inkscape:cy="112.99355"
     inkscape:window-width="1620"
     inkscape:window-height="1018"
     inkscape:window-x="-6"
     inkscape:window-y="-6"
     inkscape:window-maximized="1"
     inkscape:current-layer="layer1"
     units="px"
     width="64px"
     inkscape:showpageshadow="0"
     inkscape:deskcolor="#505050"
     inkscape:lockguides="false" /><defs
     id="defs2" /><g
     inkscape:label="Layer 1"
     inkscape:groupmode="layer"
     id="layer1"
     transform="translate(-8.4705715,-23.074867)"><path
       style="fill:#d3caba;fill-opacity:1;stroke-width:2.2656;stroke-linecap:round;stroke-linejoin:round"
       d="m 42.289748,46.282278 c -0.552672,5.305648 -5.968855,21.001524 9.505956,19.12244 15.474807,-1.879083 12.821982,-9.616487 11.716639,-18.238166"
       id="path92122" /><path
       style="fill:#881c1c;stroke-width:2.2656;stroke-linecap:round;stroke-linejoin:round"
       d="m 33.66807,44.734796 c 6.300458,4.752977 32.718166,6.521527 38.465952,2.210687 C 73.128831,36.997392 51.021962,7.1531187 33.66807,44.734796 Z"
       id="path92120" /><path
       id="path93166"
       style="fill:#d3caba;stroke-width:2.2656;stroke-linecap:round;stroke-linejoin:round"
       d="m 44.500434,43.242584 c -10e-7,1.068313 -1.410406,1.934351 -3.150229,1.934351 -1.739824,0 -3.150228,-0.866039 -3.150229,-1.934351 0,-1.068313 2.405215,-3.260763 4.145038,-3.260763 1.739823,0 2.15542,2.19245 2.15542,3.260763 z"
       sodipodi:nodetypes="sssss" /><path
       id="path93169"
       style="fill:#d3caba;stroke-width:2.2656;stroke-linecap:round;stroke-linejoin:round"
       d="m 68.154784,44.126859 c 0.511158,1.295494 0.546835,2.804235 -3.150229,1.93435 -1.693575,-0.398482 -2.532274,-1.062902 -3.150229,-1.93435 -0.992043,-1.398994 1.634606,-3.517633 4.145038,-3.260764 1.730786,0.177095 1.763319,2.267009 2.15542,3.260764 z"
       sodipodi:nodetypes="sssss" /><path
       id="path93171"
       style="fill:#d3caba;stroke-width:2.2656;stroke-linecap:round;stroke-linejoin:round"
       d="m 56.659212,33.183959 c -0.102904,1.126204 0.253491,2.40975 -3.150229,1.934351 -1.723098,-0.240666 -3.150227,-0.866039 -3.150228,-1.934351 0,-1.068312 2.485389,-2.738698 4.145037,-3.260763 1.990247,-0.62606 2.32874,1.363954 2.15542,3.260763 z"
       sodipodi:nodetypes="sssss" /></g></svg>
