<?xml version="1.0" encoding="UTF-8" standalone="no"?>
<!-- Created with Inkscape (http://www.inkscape.org/) -->

<svg
   width="340"
   height="176"
   viewBox="0 0 89.958331 46.566671"
   version="1.1"
   id="svg5"
   inkscape:version="1.2.2 (732a01da63, 2022-12-09)"
   sodipodi:docname="quality_seeds.svg"
   xml:space="preserve"
   xmlns:inkscape="http://www.inkscape.org/namespaces/inkscape"
   xmlns:sodipodi="http://sodipodi.sourceforge.net/DTD/sodipodi-0.dtd"
   xmlns="http://www.w3.org/2000/svg"
   xmlns:svg="http://www.w3.org/2000/svg"><sodipodi:namedview
     id="namedview7"
     pagecolor="#505050"
     bordercolor="#eeeeee"
     borderopacity="1"
     inkscape:pageshadow="0"
     inkscape:pageopacity="0"
     inkscape:pagecheckerboard="0"
     inkscape:document-units="px"
     showgrid="false"
     inkscape:zoom="2.5620931"
     inkscape:cx="152.9999"
     inkscape:cy="93.868562"
     inkscape:window-width="1620"
     inkscape:window-height="1018"
     inkscape:window-x="-6"
     inkscape:window-y="-6"
     inkscape:window-maximized="1"
     inkscape:current-layer="layer1"
     units="px"
     width="64px"
     inkscape:showpageshadow="0"
     inkscape:deskcolor="#505050"
     inkscape:lockguides="false" /><defs
     id="defs2" /><g
     inkscape:label="Layer 1"
     inkscape:groupmode="layer"
     id="layer1"
     transform="translate(-8.4705715,-23.074867)"><path
       style="fill:#806600;fill-opacity:1;stroke-width:0.530496;stroke-linecap:round;stroke-linejoin:round"
       d="m 34.418745,41.565661 c 3.203532,5.282565 7.504342,8.406165 11.966957,4.482517 -3.052383,-6.529592 -5.780315,-8.053959 -11.966957,-4.482517 z"
       id="path82724" /><path
       style="fill:#806600;fill-opacity:1;stroke-width:0.530496;stroke-linecap:round;stroke-linejoin:round"
       d="m 57.773846,41.388728 c 6.177599,0.07315 11.102594,-1.926434 10.13101,-7.788686 -7.156251,-0.860643 -9.892265,0.649171 -10.13101,7.788686 z"
       id="path82941" /><path
       style="fill:#917400;fill-opacity:1;stroke-width:0.530496;stroke-linecap:round;stroke-linejoin:round"
       d="m 34.950283,41.415217 c 2.53739,1.865356 10.188388,4.481817 10.740958,4.059364 -1.43619,-3.367285 -5.161427,-6.856846 -10.740958,-4.059364 z"
       id="path82943" /><path
       style="fill:#917400;fill-opacity:1;stroke-width:0.530496;stroke-linecap:round;stroke-linejoin:round"
       d="m 57.775554,41.052489 c 2.839486,-1.36207 8.74663,-6.883781 8.633663,-7.570101 -3.6471,-0.316093 -8.478591,1.330471 -8.633663,7.570101 z"
       id="path82945" /><path
       style="fill:#806600;fill-opacity:1;stroke-width:0.530496;stroke-linecap:round;stroke-linejoin:round"
       d="m 51.357911,59.125459 c 6.690158,2.529463 11.972929,2.131725 12.037571,-4.289278 -6.543174,-3.02316 -9.611224,-2.429545 -12.037571,4.289278 z"
       id="path17768"
       sodipodi:nodetypes="ccc" /><path
       style="fill:#917400;fill-opacity:1;stroke-width:0.530496;stroke-linecap:round;stroke-linejoin:round"
       d="M 51.667216,58.66775 C 54.80947,58.457638 62.344809,55.524669 62.494814,54.845479 59.225943,53.19753 54.128502,52.931974 51.667216,58.66775 Z"
       id="path17770" /></g></svg>
