<?xml version="1.0" encoding="UTF-8" standalone="no"?>
<!-- Created with Inkscape (http://www.inkscape.org/) -->

<svg
   width="340"
   height="176"
   viewBox="0 0 89.958331 46.566671"
   version="1.1"
   id="svg5"
   inkscape:version="1.2.2 (732a01da63, 2022-12-09)"
   sodipodi:docname="sacrifice.svg"
   xml:space="preserve"
   xmlns:inkscape="http://www.inkscape.org/namespaces/inkscape"
   xmlns:sodipodi="http://sodipodi.sourceforge.net/DTD/sodipodi-0.dtd"
   xmlns="http://www.w3.org/2000/svg"
   xmlns:svg="http://www.w3.org/2000/svg"><sodipodi:namedview
     id="namedview7"
     pagecolor="#505050"
     bordercolor="#eeeeee"
     borderopacity="1"
     inkscape:pageshadow="0"
     inkscape:pageopacity="0"
     inkscape:pagecheckerboard="0"
     inkscape:document-units="px"
     showgrid="false"
     inkscape:zoom="0.6405233"
     inkscape:cx="502.71395"
     inkscape:cy="269.31105"
     inkscape:window-width="1620"
     inkscape:window-height="1018"
     inkscape:window-x="-6"
     inkscape:window-y="-6"
     inkscape:window-maximized="1"
     inkscape:current-layer="layer1"
     units="px"
     width="64px"
     inkscape:showpageshadow="0"
     inkscape:deskcolor="#505050"
     inkscape:lockguides="false" /><defs
     id="defs2" /><g
     inkscape:label="Layer 1"
     inkscape:groupmode="layer"
     id="layer1"
     transform="translate(-8.4705715,-23.074867)"><path
       style="color:#000000;fill:#9f2121;fill-opacity:1;stroke-width:0.919234;stroke-linejoin:round;-inkscape-stroke:none"
       d="m 71.674264,59.859501 c 0.134709,0.2203 0.239079,0.393465 0.227826,0.375512 l -1.931203,1.099184 C 69.906469,61.231431 69.853117,61.139145 69.726975,60.933023 54.665664,38.161308 36.904487,29.639743 25.755257,24.974828 c 15.135183,3.960625 32.637496,15.946849 43.246171,30.909206 0.950779,1.320711 1.839339,2.629664 2.672866,3.975453 z"
       id="path105684"
       sodipodi:nodetypes="cccccccc" /><path
       style="fill:#881c1c;fill-opacity:1;stroke:none;stroke-width:1.30774;stroke-linejoin:round;stroke-dasharray:none;stroke-opacity:1"
       d="m 66.72926,120.88997 c 0,0 -2.032093,2.86577 -2.032093,4.01208 0,1.14631 0.468945,2.50104 2.032093,2.50104 1.563148,0 1.927883,-1.19842 1.875778,-2.29262 -0.05211,-1.0942 -1.875778,-4.2205 -1.875778,-4.2205 z"
       id="path39306" /><path
       style="fill:#7a1919;fill-opacity:1;stroke:none;stroke-width:0.767805;stroke-linejoin:round;stroke-dasharray:none;stroke-opacity:1"
       d="m 66.56649,121.2712 c 0,0 -1.209463,1.75997 -1.209463,2.47836 0,0.7184 0.257938,1.56741 1.117728,1.56741 0.859791,0 1.06041,-0.75105 1.031749,-1.43679 -0.02865,-0.68574 -0.940014,-2.60898 -0.940014,-2.60898 z"
       id="path39377"
       sodipodi:nodetypes="csssc" /><path
       style="fill:#881c1c;fill-opacity:1;stroke:none;stroke-width:0.79375;stroke-linecap:round;stroke-linejoin:round;stroke-dasharray:none;stroke-opacity:1"
       d="m 49.739468,125.76029 c 1.239222,-5.26669 3.594408,-8.09344 6.918985,-11.25626 1.904152,-1.8115 7.072382,-2.26245 10.223575,0.92942 -0.309806,-11.25626 8.881084,-18.794855 8.881084,-18.794855 l 1.135954,-8.674548 -10.017038,1.032684 -21.892909,22.409249 -5.060154,-5.67976 -3.614393,2.37517 5.989569,5.16342 -9.29416,8.36475 c 1.858833,2.06537 2.68498,4.75034 2.581712,5.98957 3.304589,-3.40786 10.53338,-5.98958 14.147775,-1.85884 z"
       id="path36486"
       sodipodi:nodetypes="csccccccscccc" /><path
       style="fill:#7a1919;fill-opacity:1;stroke:none;stroke-width:0.79375;stroke-linecap:round;stroke-linejoin:round;stroke-dasharray:none;stroke-opacity:1"
       d="m 36.140431,123.01786 38.10605,-31.187066 -6.092836,-0.619611 -23.132129,20.550417 -4.647079,-4.75035 -1.755563,1.13596 4.956884,5.8863 -8.158206,6.50591 1.239221,2.68498"
       id="path37042" /><path
       style="fill:#d3caba;fill-opacity:1;stroke-width:2.2656;stroke-linecap:round;stroke-linejoin:round"
       d="m 116.8083,77.134193 c -0.55267,5.305648 -5.96886,21.001524 9.50596,19.12244 15.4748,-1.879083 12.82198,-9.616487 11.71663,-18.238166"
       id="path92122" /><path
       style="fill:#881c1c;stroke-width:2.2656;stroke-linecap:round;stroke-linejoin:round"
       d="m 108.18662,75.586711 c 6.30046,4.752977 32.71817,6.521527 38.46595,2.210687 0.99481,-9.948091 -21.11206,-39.792364 -38.46595,-2.210687 z"
       id="path92120" /><path
       id="path93166"
       style="fill:#d3caba;stroke-width:2.2656;stroke-linecap:round;stroke-linejoin:round"
       d="m 119.01899,74.094499 c -1e-5,1.068313 -1.41041,1.934351 -3.15023,1.934351 -1.73983,0 -3.15023,-0.866039 -3.15023,-1.934351 0,-1.068313 2.40521,-3.260763 4.14503,-3.260763 1.73983,0 2.15542,2.19245 2.15543,3.260763 z"
       sodipodi:nodetypes="sssss" /><path
       id="path93169"
       style="fill:#d3caba;stroke-width:2.2656;stroke-linecap:round;stroke-linejoin:round"
       d="m 142.67333,74.978774 c 0.51116,1.295494 0.54684,2.804235 -3.15022,1.93435 -1.69358,-0.398482 -2.53228,-1.062902 -3.15023,-1.93435 -0.99205,-1.398994 1.6346,-3.517633 4.14504,-3.260764 1.73078,0.177095 1.76331,2.267009 2.15541,3.260764 z"
       sodipodi:nodetypes="sssss" /><path
       id="path93171"
       style="fill:#d3caba;stroke-width:2.2656;stroke-linecap:round;stroke-linejoin:round"
       d="m 131.17776,64.035874 c -0.1029,1.126204 0.25349,2.40975 -3.15023,1.934351 -1.72309,-0.240666 -3.15022,-0.866039 -3.15022,-1.934351 0,-1.068312 2.48539,-2.738698 4.14503,-3.260763 1.99025,-0.62606 2.32874,1.363954 2.15542,3.260763 z"
       sodipodi:nodetypes="sssss" /><g
       id="g105677"
       transform="matrix(1.3627631,0,0,1.3627631,-12.128174,-21.725684)"><path
         style="fill:#881c1c;fill-opacity:1;stroke-width:2.11667;stroke-linecap:round;stroke-linejoin:round"
         d="m 50.638052,46.338025 c 5.002067,-5.454151 12.679444,-8.017184 21.124338,-9.722403 -1.29528,4.695384 -2.09693,12.217884 -6.63372,18.537746 z"
         id="path105644"
         sodipodi:nodetypes="cccc" /><path
         style="fill:none;fill-opacity:1;stroke:#7a1919;stroke-width:1.05833;stroke-linecap:round;stroke-linejoin:round;stroke-dasharray:none;stroke-opacity:1"
         d="m 65.48252,41.727149 c -0.3333,0.1111 -3.1653,3.335509 -7.587604,8.510419"
         id="path105646"
         sodipodi:nodetypes="cc" /><path
         style="fill:none;fill-opacity:1;stroke:#7a1919;stroke-width:1.05833;stroke-linecap:round;stroke-linejoin:round;stroke-dasharray:none;stroke-opacity:1"
         d="m 56.573856,45.670326 7.156138,4.965484"
         id="path105650" /></g><g
       id="g105682"
       transform="matrix(1.3627631,0,0,1.3627631,-12.268904,-16.659389)"><path
         style="fill:#881c1c;fill-opacity:1;stroke-width:2.11667;stroke-linecap:round;stroke-linejoin:round"
         d="M 28.861312,54.954627 C 28.472255,45.876649 30.760656,39.677658 34.75504,35.322265 l 14.490618,8.815343 c -3.647633,5.081248 -9.709793,9.385066 -20.384346,10.817019 z"
         id="path105658"
         sodipodi:nodetypes="cccc" /><path
         style="fill:none;fill-opacity:1;stroke:#7a1919;stroke-width:1.05833;stroke-linecap:round;stroke-linejoin:round;stroke-dasharray:none;stroke-opacity:1"
         d="M 41.172153,40.207601 C 33.968029,48.637752 24.772089,59.628024 24.772089,59.628024"
         id="path105660"
         sodipodi:nodetypes="cc" /><path
         style="fill:none;fill-opacity:1;stroke:#7a1919;stroke-width:1.05833;stroke-linecap:round;stroke-linejoin:round;stroke-dasharray:none;stroke-opacity:1"
         d="m 34.264924,42.686964 6.42592,3.797134"
         id="path105662" /></g><path
       style="fill:#881c1c;fill-opacity:1;stroke-width:2.11667;stroke-linecap:round;stroke-linejoin:round"
       d="m 84.010789,137.98823 c -0.389057,-9.07798 1.899344,-15.27697 5.893728,-19.63237 5.002067,-5.45415 12.679443,-8.01718 21.124343,-9.7224 -1.29528,4.69538 -2.09693,12.21788 -6.63372,18.53775 -3.64764,5.08124 -9.709798,9.38506 -20.384351,10.81702 z"
       id="path105666"
       sodipodi:nodetypes="cscsc" /><path
       style="fill:none;fill-opacity:1;stroke:#7a1919;stroke-width:1.05833;stroke-linecap:round;stroke-linejoin:round;stroke-dasharray:none;stroke-opacity:1"
       d="m 104.74899,113.74499 c -0.3333,0.1111 -4.00506,4.3213 -8.42736,9.49621 -7.204124,8.43015 -16.400064,19.42042 -16.400064,19.42042"
       id="path105668"
       sodipodi:nodetypes="csc" /><path
       style="fill:none;fill-opacity:1;stroke:#7a1919;stroke-width:1.05833;stroke-linecap:round;stroke-linejoin:round;stroke-dasharray:none;stroke-opacity:1"
       d="m 89.414401,125.72056 6.42592,3.79714"
       id="path105670" /><path
       style="fill:none;fill-opacity:1;stroke:#7a1919;stroke-width:1.05833;stroke-linecap:round;stroke-linejoin:round;stroke-dasharray:none;stroke-opacity:1"
       d="m 95.840321,117.68816 7.156139,4.96549"
       id="path105672" /></g></svg>
