<?xml version="1.0" encoding="UTF-8" standalone="no"?>
<!-- Created with Inkscape (http://www.inkscape.org/) -->

<svg
   width="340"
   height="176"
   viewBox="0 0 89.958331 46.566671"
   version="1.1"
   id="svg5"
   inkscape:version="1.2.2 (732a01da63, 2022-12-09)"
   sodipodi:docname="spiked_shield.svg"
   xml:space="preserve"
   xmlns:inkscape="http://www.inkscape.org/namespaces/inkscape"
   xmlns:sodipodi="http://sodipodi.sourceforge.net/DTD/sodipodi-0.dtd"
   xmlns="http://www.w3.org/2000/svg"
   xmlns:svg="http://www.w3.org/2000/svg"><sodipodi:namedview
     id="namedview7"
     pagecolor="#505050"
     bordercolor="#eeeeee"
     borderopacity="1"
     inkscape:pageshadow="0"
     inkscape:pageopacity="0"
     inkscape:pagecheckerboard="0"
     inkscape:document-units="px"
     showgrid="false"
     inkscape:zoom="2.5620931"
     inkscape:cx="142.6568"
     inkscape:cy="120.40936"
     inkscape:window-width="1620"
     inkscape:window-height="1018"
     inkscape:window-x="-6"
     inkscape:window-y="-6"
     inkscape:window-maximized="1"
     inkscape:current-layer="layer1"
     units="px"
     width="64px"
     inkscape:showpageshadow="0"
     inkscape:deskcolor="#505050"
     inkscape:lockguides="false" /><defs
     id="defs2" /><g
     inkscape:label="Layer 1"
     inkscape:groupmode="layer"
     id="layer1"
     transform="translate(-8.4705715,-23.074867)"><path
       style="fill:#ff0000;fill-opacity:1;stroke:none;stroke-width:2.58092;stroke-linecap:round;stroke-linejoin:round;stroke-dasharray:none;stroke-opacity:1"
       d="m -46.70686,102.43755 c 3.998681,11.55223 9.946694,11.92666 20.020994,11.20672 0.503672,-6.54774 -3.525711,-30.975874 11.206718,-34.249748 -6.799583,-3.651627 -25.939148,1.007345 -31.227712,23.043028 z"
       id="path74625"
       sodipodi:nodetypes="cccc" /><path
       style="fill:#ff6868;fill-opacity:1;stroke:none;stroke-width:2.11667;stroke-linecap:round;stroke-linejoin:round;stroke-dasharray:none;stroke-opacity:1"
       d="m -26.239389,79.915711 c -6.815717,2.891516 -13.218359,8.674549 -15.490264,13.941239 6.505911,-3.201321 10.739915,-13.321629 15.490264,-13.941239 z"
       id="path74627" /><path
       style="fill:#1a1a1a;fill-opacity:1;stroke:none;stroke-width:2.11667;stroke-linecap:round;stroke-linejoin:round;stroke-dasharray:none;stroke-opacity:1"
       d="M 61.25024,27.114451 C 55.673743,32.071335 36.878888,28.353672 30.992589,25.255619 31.922004,45.806037 30.786051,56.959028 46.792658,65.013965 63.315608,60.470154 61.25024,32.897483 61.25024,27.734061"
       id="path73031" /><path
       style="fill:#242424;fill-opacity:1;stroke:none;stroke-width:1.78837;stroke-linecap:round;stroke-linejoin:round;stroke-dasharray:none;stroke-opacity:1"
       d="m 31.966931,83.743205 c -4.811482,4.101107 -21.027957,1.025277 -26.1067413,-1.537915 0.801913,17.002506 -0.178204,26.23 13.6325293,32.8943 14.256242,-3.75935 12.474212,-26.57176 12.474212,-30.843747"
       id="path73033" /><path
       style="fill:#242424;fill-opacity:1;stroke:none;stroke-width:2.11667;stroke-linecap:round;stroke-linejoin:round;stroke-dasharray:none;stroke-opacity:1"
       d="M 55.044634,32.988636 71.15451,26.79253 57.110003,39.804353 c 0,0 -4.130739,-1.549027 -2.065369,-6.815717 z"
       id="path79861" /><path
       style="fill:#242424;fill-opacity:1;stroke:none;stroke-width:2.11667;stroke-linecap:round;stroke-linejoin:round;stroke-dasharray:none;stroke-opacity:1"
       d="m 56.770797,42.804424 16.9684,3.161211 -18.779494,3.726436 c 0,0 -2.707157,-3.483359 1.811094,-6.887647 z"
       id="path79932" /><path
       style="fill:#242424;fill-opacity:1;stroke:none;stroke-width:2.11667;stroke-linecap:round;stroke-linejoin:round;stroke-dasharray:none;stroke-opacity:1"
       d="M 54.7584,53.613315 68.983858,63.3886 50.308011,59.173332 c 0,0 -1.060606,-4.282243 4.450389,-5.560017 z"
       id="path79934" /></g></svg>
