<?xml version="1.0" encoding="UTF-8" standalone="no"?>
<!-- Created with Inkscape (http://www.inkscape.org/) -->

<svg
   width="340"
   height="176"
   viewBox="0 0 89.958331 46.566671"
   version="1.1"
   id="svg5"
   inkscape:version="1.2.2 (732a01da63, 2022-12-09)"
   sodipodi:docname="technique.svg"
   xml:space="preserve"
   xmlns:inkscape="http://www.inkscape.org/namespaces/inkscape"
   xmlns:sodipodi="http://sodipodi.sourceforge.net/DTD/sodipodi-0.dtd"
   xmlns="http://www.w3.org/2000/svg"
   xmlns:svg="http://www.w3.org/2000/svg"><sodipodi:namedview
     id="namedview7"
     pagecolor="#505050"
     bordercolor="#eeeeee"
     borderopacity="1"
     inkscape:pageshadow="0"
     inkscape:pageopacity="0"
     inkscape:pagecheckerboard="0"
     inkscape:document-units="px"
     showgrid="false"
     inkscape:zoom="1.2810466"
     inkscape:cx="-31.224469"
     inkscape:cy="40.201504"
     inkscape:window-width="1620"
     inkscape:window-height="1018"
     inkscape:window-x="-6"
     inkscape:window-y="-6"
     inkscape:window-maximized="1"
     inkscape:current-layer="layer1"
     units="px"
     width="64px"
     inkscape:showpageshadow="0"
     inkscape:deskcolor="#505050"
     inkscape:lockguides="false" /><defs
     id="defs2" /><g
     inkscape:label="Layer 1"
     inkscape:groupmode="layer"
     id="layer1"
     transform="translate(-8.4705715,-23.074867)"><g
       id="g98772"
       transform="matrix(0.70053268,0.2756626,-0.2756626,0.70053268,22.393755,-0.66023482)"><rect
         style="fill:#595959;fill-opacity:1;stroke-width:2.11667;stroke-linecap:round;stroke-linejoin:round"
         id="rect98698"
         width="7.1255217"
         height="7.4353271"
         x="70.582863"
         y="30.515381" /><rect
         style="fill:#595959;fill-opacity:1;stroke-width:2.11667;stroke-linecap:round;stroke-linejoin:round"
         id="rect98700"
         width="7.1255217"
         height="7.4353271"
         x="70.582863"
         y="54.831642" /><rect
         style="fill:#595959;fill-opacity:1;stroke-width:2.11667;stroke-linecap:round;stroke-linejoin:round"
         id="rect98702"
         width="7.1255217"
         height="7.4353271"
         x="42.828415"
         y="-90.021423"
         transform="rotate(90)" /><rect
         style="fill:#595959;fill-opacity:1;stroke-width:2.11667;stroke-linecap:round;stroke-linejoin:round"
         id="rect98704"
         width="7.1255217"
         height="7.4353271"
         x="42.828415"
         y="-65.705162"
         transform="rotate(90)" /><rect
         style="fill:#595959;fill-opacity:1;stroke-width:2.11667;stroke-linecap:round;stroke-linejoin:round"
         id="rect98706"
         width="7.1255217"
         height="7.4353271"
         x="-23.188122"
         y="-101.10818"
         transform="rotate(135)" /><rect
         style="fill:#595959;fill-opacity:1;stroke-width:2.11667;stroke-linecap:round;stroke-linejoin:round"
         id="rect98708"
         width="7.1255217"
         height="7.4353271"
         x="-23.188122"
         y="-76.791924"
         transform="rotate(135)" /><rect
         style="fill:#595959;fill-opacity:1;stroke-width:2.11667;stroke-linecap:round;stroke-linejoin:round"
         id="rect98710"
         width="7.1255217"
         height="7.4353271"
         x="-88.795151"
         y="3.7495677"
         transform="rotate(-135)" /><rect
         style="fill:#595959;fill-opacity:1;stroke-width:2.11667;stroke-linecap:round;stroke-linejoin:round"
         id="rect98712"
         width="7.1255217"
         height="7.4353271"
         x="-88.795151"
         y="28.065825"
         transform="rotate(-135)" /><circle
         style="fill:#595959;fill-opacity:1;stroke-width:2.11667;stroke-linecap:round;stroke-linejoin:round"
         id="circle98714"
         cx="74.187836"
         cy="46.755951"
         r="11.31838" /><rect
         style="fill:#595959;fill-opacity:1;stroke-width:2.11667;stroke-linecap:round;stroke-linejoin:round"
         id="rect98716"
         width="7.1255217"
         height="7.4353271"
         x="70.582863"
         y="30.515381" /><rect
         style="fill:#595959;fill-opacity:1;stroke-width:2.11667;stroke-linecap:round;stroke-linejoin:round"
         id="rect98718"
         width="7.1255217"
         height="7.4353271"
         x="70.582863"
         y="54.831642" /><rect
         style="fill:#595959;fill-opacity:1;stroke-width:2.11667;stroke-linecap:round;stroke-linejoin:round"
         id="rect98720"
         width="7.1255217"
         height="7.4353271"
         x="42.828415"
         y="-90.021423"
         transform="rotate(90)" /><rect
         style="fill:#595959;fill-opacity:1;stroke-width:2.11667;stroke-linecap:round;stroke-linejoin:round"
         id="rect98722"
         width="7.1255217"
         height="7.4353271"
         x="42.828415"
         y="-65.705162"
         transform="rotate(90)" /><rect
         style="fill:#595959;fill-opacity:1;stroke-width:2.11667;stroke-linecap:round;stroke-linejoin:round"
         id="rect98724"
         width="7.1255217"
         height="7.4353271"
         x="-23.188122"
         y="-101.10818"
         transform="rotate(135)" /><rect
         style="fill:#595959;fill-opacity:1;stroke-width:2.11667;stroke-linecap:round;stroke-linejoin:round"
         id="rect98726"
         width="7.1255217"
         height="7.4353271"
         x="-23.188122"
         y="-76.791924"
         transform="rotate(135)" /><rect
         style="fill:#595959;fill-opacity:1;stroke-width:2.11667;stroke-linecap:round;stroke-linejoin:round"
         id="rect98728"
         width="7.1255217"
         height="7.4353271"
         x="-88.795151"
         y="3.7495677"
         transform="rotate(-135)" /><rect
         style="fill:#595959;fill-opacity:1;stroke-width:2.11667;stroke-linecap:round;stroke-linejoin:round"
         id="rect98730"
         width="7.1255217"
         height="7.4353271"
         x="-88.795151"
         y="28.065825"
         transform="rotate(-135)" /><circle
         style="fill:#595959;fill-opacity:1;stroke-width:2.11667;stroke-linecap:round;stroke-linejoin:round"
         id="circle98732"
         cx="74.187836"
         cy="46.755951"
         r="11.31838" /></g><path
       style="fill:#881c1c;fill-opacity:1;stroke:none;stroke-width:1.30774;stroke-linejoin:round;stroke-dasharray:none;stroke-opacity:1"
       d="m 66.72926,120.88997 c 0,0 -2.032093,2.86577 -2.032093,4.01208 0,1.14631 0.468945,2.50104 2.032093,2.50104 1.563148,0 1.927883,-1.19842 1.875778,-2.29262 -0.05211,-1.0942 -1.875778,-4.2205 -1.875778,-4.2205 z"
       id="path39306" /><path
       style="fill:#7a1919;fill-opacity:1;stroke:none;stroke-width:0.767805;stroke-linejoin:round;stroke-dasharray:none;stroke-opacity:1"
       d="m 66.56649,121.2712 c 0,0 -1.209463,1.75997 -1.209463,2.47836 0,0.7184 0.257938,1.56741 1.117728,1.56741 0.859791,0 1.06041,-0.75105 1.031749,-1.43679 -0.02865,-0.68574 -0.940014,-2.60898 -0.940014,-2.60898 z"
       id="path39377"
       sodipodi:nodetypes="csssc" /><path
       style="fill:#881c1c;fill-opacity:1;stroke:none;stroke-width:0.79375;stroke-linecap:round;stroke-linejoin:round;stroke-dasharray:none;stroke-opacity:1"
       d="m 49.739468,125.76029 c 1.239222,-5.26669 3.594408,-8.09344 6.918985,-11.25626 1.904152,-1.8115 7.072382,-2.26245 10.223575,0.92942 -0.309806,-11.25626 8.881084,-18.794855 8.881084,-18.794855 l 1.135954,-8.674548 -10.017038,1.032684 -21.892909,22.409249 -5.060154,-5.67976 -3.614393,2.37517 5.989569,5.16342 -9.29416,8.36475 c 1.858833,2.06537 2.68498,4.75034 2.581712,5.98957 3.304589,-3.40786 10.53338,-5.98958 14.147775,-1.85884 z"
       id="path36486"
       sodipodi:nodetypes="csccccccscccc" /><path
       style="fill:#7a1919;fill-opacity:1;stroke:none;stroke-width:0.79375;stroke-linecap:round;stroke-linejoin:round;stroke-dasharray:none;stroke-opacity:1"
       d="m 36.140431,123.01786 38.10605,-31.187066 -6.092836,-0.619611 -23.132129,20.550417 -4.647079,-4.75035 -1.755563,1.13596 4.956884,5.8863 -8.158206,6.50591 1.239221,2.68498"
       id="path37042" /><path
       style="fill:#d3caba;fill-opacity:1;stroke-width:2.2656;stroke-linecap:round;stroke-linejoin:round"
       d="m 116.8083,77.134193 c -0.55267,5.305648 -5.96886,21.001524 9.50596,19.12244 15.4748,-1.879083 12.82198,-9.616487 11.71663,-18.238166"
       id="path92122" /><path
       style="fill:#881c1c;stroke-width:2.2656;stroke-linecap:round;stroke-linejoin:round"
       d="m 108.18662,75.586711 c 6.30046,4.752977 32.71817,6.521527 38.46595,2.210687 0.99481,-9.948091 -21.11206,-39.792364 -38.46595,-2.210687 z"
       id="path92120" /><path
       id="path93166"
       style="fill:#d3caba;stroke-width:2.2656;stroke-linecap:round;stroke-linejoin:round"
       d="m 119.01899,74.094499 c -1e-5,1.068313 -1.41041,1.934351 -3.15023,1.934351 -1.73983,0 -3.15023,-0.866039 -3.15023,-1.934351 0,-1.068313 2.40521,-3.260763 4.14503,-3.260763 1.73983,0 2.15542,2.19245 2.15543,3.260763 z"
       sodipodi:nodetypes="sssss" /><path
       id="path93169"
       style="fill:#d3caba;stroke-width:2.2656;stroke-linecap:round;stroke-linejoin:round"
       d="m 142.67333,74.978774 c 0.51116,1.295494 0.54684,2.804235 -3.15022,1.93435 -1.69358,-0.398482 -2.53228,-1.062902 -3.15023,-1.93435 -0.99205,-1.398994 1.6346,-3.517633 4.14504,-3.260764 1.73078,0.177095 1.76331,2.267009 2.15541,3.260764 z"
       sodipodi:nodetypes="sssss" /><path
       id="path93171"
       style="fill:#d3caba;stroke-width:2.2656;stroke-linecap:round;stroke-linejoin:round"
       d="m 131.17776,64.035874 c -0.1029,1.126204 0.25349,2.40975 -3.15023,1.934351 -1.72309,-0.240666 -3.15022,-0.866039 -3.15022,-1.934351 0,-1.068312 2.48539,-2.738698 4.14503,-3.260763 1.99025,-0.62606 2.32874,1.363954 2.15542,3.260763 z"
       sodipodi:nodetypes="sssss" /><g
       id="g98696"
       transform="translate(1.9621001,4.7503478)"><rect
         style="fill:#666666;fill-opacity:1;stroke-width:2.11667;stroke-linecap:round;stroke-linejoin:round"
         id="rect98636"
         width="7.1255217"
         height="7.4353271"
         x="37.950039"
         y="22.460443" /><rect
         style="fill:#666666;fill-opacity:1;stroke-width:2.11667;stroke-linecap:round;stroke-linejoin:round"
         id="rect98640"
         width="7.1255217"
         height="7.4353271"
         x="37.950039"
         y="46.776703" /><rect
         style="fill:#666666;fill-opacity:1;stroke-width:2.11667;stroke-linecap:round;stroke-linejoin:round"
         id="rect98642"
         width="7.1255217"
         height="7.4353271"
         x="34.773476"
         y="-57.388596"
         transform="rotate(90)" /><rect
         style="fill:#666666;fill-opacity:1;stroke-width:2.11667;stroke-linecap:round;stroke-linejoin:round"
         id="rect98644"
         width="7.1255217"
         height="7.4353271"
         x="34.773476"
         y="-33.072334"
         transform="rotate(90)" /><rect
         style="fill:#666666;fill-opacity:1;stroke-width:2.11667;stroke-linecap:round;stroke-linejoin:round"
         id="rect98650"
         width="7.1255217"
         height="7.4353271"
         x="-5.8089309"
         y="-72.337585"
         transform="rotate(135)" /><rect
         style="fill:#666666;fill-opacity:1;stroke-width:2.11667;stroke-linecap:round;stroke-linejoin:round"
         id="rect98652"
         width="7.1255217"
         height="7.4353271"
         x="-5.8089309"
         y="-48.021332"
         transform="rotate(135)" /><rect
         style="fill:#666666;fill-opacity:1;stroke-width:2.11667;stroke-linecap:round;stroke-linejoin:round"
         id="rect98654"
         width="7.1255217"
         height="7.4353271"
         x="-60.024555"
         y="-13.629622"
         transform="rotate(-135)" /><rect
         style="fill:#666666;fill-opacity:1;stroke-width:2.11667;stroke-linecap:round;stroke-linejoin:round"
         id="rect98656"
         width="7.1255217"
         height="7.4353271"
         x="-60.024555"
         y="10.686635"
         transform="rotate(-135)" /><circle
         style="fill:#666666;fill-opacity:1;stroke-width:2.11667;stroke-linecap:round;stroke-linejoin:round"
         id="path98658"
         cx="41.555008"
         cy="38.701012"
         r="11.31838" /><rect
         style="fill:#666666;fill-opacity:1;stroke-width:2.11667;stroke-linecap:round;stroke-linejoin:round"
         id="rect98660"
         width="7.1255217"
         height="7.4353271"
         x="37.950039"
         y="22.460443" /><rect
         style="fill:#666666;fill-opacity:1;stroke-width:2.11667;stroke-linecap:round;stroke-linejoin:round"
         id="rect98662"
         width="7.1255217"
         height="7.4353271"
         x="37.950039"
         y="46.776703" /><rect
         style="fill:#666666;fill-opacity:1;stroke-width:2.11667;stroke-linecap:round;stroke-linejoin:round"
         id="rect98664"
         width="7.1255217"
         height="7.4353271"
         x="34.773476"
         y="-57.388596"
         transform="rotate(90)" /><rect
         style="fill:#666666;fill-opacity:1;stroke-width:2.11667;stroke-linecap:round;stroke-linejoin:round"
         id="rect98666"
         width="7.1255217"
         height="7.4353271"
         x="34.773476"
         y="-33.072334"
         transform="rotate(90)" /><rect
         style="fill:#666666;fill-opacity:1;stroke-width:2.11667;stroke-linecap:round;stroke-linejoin:round"
         id="rect98668"
         width="7.1255217"
         height="7.4353271"
         x="-5.8089309"
         y="-72.337585"
         transform="rotate(135)" /><rect
         style="fill:#666666;fill-opacity:1;stroke-width:2.11667;stroke-linecap:round;stroke-linejoin:round"
         id="rect98670"
         width="7.1255217"
         height="7.4353271"
         x="-5.8089309"
         y="-48.021332"
         transform="rotate(135)" /><rect
         style="fill:#666666;fill-opacity:1;stroke-width:2.11667;stroke-linecap:round;stroke-linejoin:round"
         id="rect98672"
         width="7.1255217"
         height="7.4353271"
         x="-60.024555"
         y="-13.629622"
         transform="rotate(-135)" /><rect
         style="fill:#666666;fill-opacity:1;stroke-width:2.11667;stroke-linecap:round;stroke-linejoin:round"
         id="rect98674"
         width="7.1255217"
         height="7.4353271"
         x="-60.024555"
         y="10.686635"
         transform="rotate(-135)" /><circle
         style="fill:#666666;fill-opacity:1;stroke-width:2.11667;stroke-linecap:round;stroke-linejoin:round"
         id="circle98676"
         cx="41.555008"
         cy="38.701012"
         r="11.31838" /></g><circle
       style="fill:#1a1a1a;fill-opacity:1;stroke-width:2.11667;stroke-linecap:round;stroke-linejoin:round"
       id="path98826"
       cx="43.538391"
       cy="42.990841"
       r="2.3366978" /><circle
       style="fill:#1a1a1a;fill-opacity:1;stroke-width:2.11667;stroke-linecap:round;stroke-linejoin:round"
       id="circle98828"
       cx="62.178341"
       cy="52.543171"
       r="2.3366978" /></g></svg>
