<?xml version="1.0" encoding="UTF-8" standalone="no"?>
<!-- Created with Inkscape (http://www.inkscape.org/) -->

<svg
   width="340"
   height="176"
   viewBox="0 0 89.958331 46.566671"
   version="1.1"
   id="svg5"
   inkscape:version="1.2.2 (732a01da63, 2022-12-09)"
   sodipodi:docname="thorns.svg"
   xml:space="preserve"
   xmlns:inkscape="http://www.inkscape.org/namespaces/inkscape"
   xmlns:sodipodi="http://sodipodi.sourceforge.net/DTD/sodipodi-0.dtd"
   xmlns="http://www.w3.org/2000/svg"
   xmlns:svg="http://www.w3.org/2000/svg"><sodipodi:namedview
     id="namedview7"
     pagecolor="#505050"
     bordercolor="#eeeeee"
     borderopacity="1"
     inkscape:pageshadow="0"
     inkscape:pageopacity="0"
     inkscape:pagecheckerboard="0"
     inkscape:document-units="px"
     showgrid="false"
     inkscape:zoom="2.5620931"
     inkscape:cx="193.39656"
     inkscape:cy="114.55477"
     inkscape:window-width="1620"
     inkscape:window-height="1018"
     inkscape:window-x="-6"
     inkscape:window-y="-6"
     inkscape:window-maximized="1"
     inkscape:current-layer="layer1"
     units="px"
     width="64px"
     inkscape:showpageshadow="0"
     inkscape:deskcolor="#505050"
     inkscape:lockguides="false" /><defs
     id="defs2" /><g
     inkscape:label="Layer 1"
     inkscape:groupmode="layer"
     id="layer1"
     transform="translate(-8.4705715,-23.074867)"><path
       style="fill:#ff0000;fill-opacity:1;stroke:none;stroke-width:2.58092;stroke-linecap:round;stroke-linejoin:round;stroke-dasharray:none;stroke-opacity:1"
       d="m -46.70686,102.43755 c 3.998681,11.55223 9.946694,11.92666 20.020994,11.20672 0.503672,-6.54774 -3.525711,-30.975874 11.206718,-34.249748 -6.799583,-3.651627 -25.939148,1.007345 -31.227712,23.043028 z"
       id="path74625"
       sodipodi:nodetypes="cccc" /><path
       style="fill:#ff6868;fill-opacity:1;stroke:none;stroke-width:2.11667;stroke-linecap:round;stroke-linejoin:round;stroke-dasharray:none;stroke-opacity:1"
       d="m -26.239389,79.915711 c -6.815717,2.891516 -13.218359,8.674549 -15.490264,13.941239 6.505911,-3.201321 10.739915,-13.321629 15.490264,-13.941239 z"
       id="path74627" /><path
       style="fill:#242424;fill-opacity:1;stroke:none;stroke-width:1.78837;stroke-linecap:round;stroke-linejoin:round;stroke-dasharray:none;stroke-opacity:1"
       d="m 31.966931,83.743205 c -4.811482,4.101107 -21.027957,1.025277 -26.1067413,-1.537915 0.801913,17.002506 -0.178204,26.23 13.6325293,32.8943 14.256242,-3.75935 12.474212,-26.57176 12.474212,-30.843747"
       id="path73033" /><path
       style="fill:#7e4e23;fill-opacity:1;stroke:none;stroke-width:2.11667;stroke-linecap:round;stroke-linejoin:round;stroke-dasharray:none;stroke-opacity:1"
       d="M 62.319303,35.546027 68.307091,24.519734 64.509958,36.495311 74.440924,43.651448 63.706717,38.393878 56.623601,51.391759 61.37002,38.174812 50.85488,31.529828 Z"
       id="path83961" /><path
       style="fill:#7e4e23;fill-opacity:1;stroke:none;stroke-width:2.11667;stroke-linecap:round;stroke-linejoin:round;stroke-dasharray:none;stroke-opacity:1"
       d="m 37.635196,42.593575 -4.871075,-11.563103 6.980685,10.445223 11.791395,-3.285937 -10.810404,5.099059 5.726657,13.649939 -7.357219,-11.961919 -11.75708,4.06141 z"
       id="path85034" /><path
       style="fill:#7e4e23;fill-opacity:1;stroke:none;stroke-width:2.11667;stroke-linecap:round;stroke-linejoin:round;stroke-dasharray:none;stroke-opacity:1"
       d="M 54.182246,54.06864 66.088548,50.109762 55.133011,56.258653 57.493813,68.269522 53.249216,57.095954 39.195966,61.745857 51.692849,55.33929 48.55625,43.302442 Z"
       id="path85036" /></g></svg>
