<?xml version="1.0" encoding="UTF-8" standalone="no"?>
<!-- Created with Inkscape (http://www.inkscape.org/) -->

<svg
   width="340"
   height="176"
   viewBox="0 0 89.958331 46.566671"
   version="1.1"
   id="svg5"
   inkscape:version="1.2.2 (732a01da63, 2022-12-09)"
   sodipodi:docname="tsunami.svg"
   xml:space="preserve"
   xmlns:inkscape="http://www.inkscape.org/namespaces/inkscape"
   xmlns:sodipodi="http://sodipodi.sourceforge.net/DTD/sodipodi-0.dtd"
   xmlns="http://www.w3.org/2000/svg"
   xmlns:svg="http://www.w3.org/2000/svg"><sodipodi:namedview
     id="namedview7"
     pagecolor="#505050"
     bordercolor="#eeeeee"
     borderopacity="1"
     inkscape:pageshadow="0"
     inkscape:pageopacity="0"
     inkscape:pagecheckerboard="0"
     inkscape:document-units="px"
     showgrid="false"
     inkscape:zoom="1.8116734"
     inkscape:cx="304.96666"
     inkscape:cy="151.51737"
     inkscape:window-width="1620"
     inkscape:window-height="1018"
     inkscape:window-x="-6"
     inkscape:window-y="-6"
     inkscape:window-maximized="1"
     inkscape:current-layer="layer1"
     units="px"
     width="64px"
     inkscape:showpageshadow="0"
     inkscape:deskcolor="#505050"
     inkscape:lockguides="false" /><defs
     id="defs2" /><g
     inkscape:label="Layer 1"
     inkscape:groupmode="layer"
     id="layer1"
     transform="translate(-8.4705715,-23.074867)"><ellipse
       style="fill:#000000;fill-opacity:1;stroke:none;stroke-width:0.850374;stroke-linecap:round;stroke-linejoin:round;stroke-dasharray:none;stroke-opacity:1"
       id="path38837"
       cx="10.253112"
       cy="3.9118633"
       rx="10.610625"
       ry="7.9593773" /><path
       style="fill:#1a1a1a;fill-opacity:1;stroke:none;stroke-width:0.79375;stroke-linecap:round;stroke-linejoin:round;stroke-dasharray:none;stroke-opacity:1"
       d="m 36.611218,4.5898172 c 0.05164,1.34249 -0.464706,3.30459 -1.549027,4.079104 -1.084318,0.774513 1.135954,2.4268078 1.135954,2.4268078 0,0 3.201321,-0.413074 3.407857,-6.8157168"
       id="path38902" /><path
       style="fill:#1a1a1a;fill-opacity:1;stroke:none;stroke-width:0.79375;stroke-linecap:round;stroke-linejoin:round;stroke-dasharray:none;stroke-opacity:1"
       d="m 2.5957572,2.3738457 c -0.480277,4.45952 8.5664578,9.1891093 9.8078298,9.4811963 -2.336698,1.825546 -13.4360118,1e-6 -13.5820568,-9.5658573"
       id="path38731"
       sodipodi:nodetypes="ccc" /><path
       style="fill:#2b8ce7;fill-opacity:1;stroke:none;stroke-width:1.30774;stroke-linejoin:round;stroke-dasharray:none;stroke-opacity:1"
       d="m -4.9329521,111.51339 c 0,0 -2.032093,2.86577 -2.032093,4.01208 0,1.14631 0.468945,2.50104 2.032093,2.50104 1.563148,0 1.927883,-1.19841 1.875778,-2.29262 -0.05211,-1.0942 -1.875778,-4.2205 -1.875778,-4.2205 z"
       id="path39306" /><path
       style="fill:#489cea;fill-opacity:1;stroke:none;stroke-width:1.09037;stroke-linejoin:round;stroke-dasharray:none;stroke-opacity:1"
       d="m -4.9683721,111.67556 c 0,0 -1.701922,2.52233 -1.701922,3.55192 0,1.02959 0.362963,2.24637 1.572836,2.24637 1.209874,0 1.492179,-1.07638 1.451848,-2.05917 -0.04032,-0.98279 -1.322762,-3.73912 -1.322762,-3.73912 z"
       id="path39377"
       sodipodi:nodetypes="csssc" /><path
       style="fill:#2b8ce7;fill-opacity:1;stroke:none;stroke-width:0.79375;stroke-linecap:round;stroke-linejoin:round;stroke-dasharray:none;stroke-opacity:1"
       d="m 90.548809,63.659954 c -2.168636,-0.826148 -8.840361,-11.78924 -24.17341,-10.002361 -14.40106,1.678267 -5.880199,-22.55033 2.788247,-20.34388 9.99271,2.543525 0.132624,11.462796 -2.86216,8.674548 0.206537,4.234006 9.902132,2.992267 12.889577,-3.839909 C 83.979614,27.197112 75.663409,22.478356 61.418513,24.226091 38.811102,26.99984 46.587817,73.780231 32.606621,53.347789 30.437984,49.836662 28.682421,39.406551 38.389653,43.537288 20.317678,24.94897 22.918887,63.388625 16.076333,60.420157 c 21.518739,11.697636 47.156833,7.179121 74.472476,3.239797 z"
       id="path69584"
       sodipodi:nodetypes="csscsscccc" /></g></svg>
