<?xml version="1.0" encoding="UTF-8" standalone="no"?>
<!-- Created with Inkscape (http://www.inkscape.org/) -->

<svg
   width="340"
   height="176"
   viewBox="0 0 89.958331 46.566671"
   version="1.1"
   id="svg5"
   inkscape:version="1.2.2 (732a01da63, 2022-12-09)"
   sodipodi:docname="vampire_blast.svg"
   xml:space="preserve"
   xmlns:inkscape="http://www.inkscape.org/namespaces/inkscape"
   xmlns:sodipodi="http://sodipodi.sourceforge.net/DTD/sodipodi-0.dtd"
   xmlns="http://www.w3.org/2000/svg"
   xmlns:svg="http://www.w3.org/2000/svg"><sodipodi:namedview
     id="namedview7"
     pagecolor="#505050"
     bordercolor="#eeeeee"
     borderopacity="1"
     inkscape:pageshadow="0"
     inkscape:pageopacity="0"
     inkscape:pagecheckerboard="0"
     inkscape:document-units="px"
     showgrid="false"
     inkscape:zoom="1.8116734"
     inkscape:cx="135.51007"
     inkscape:cy="163.10887"
     inkscape:window-width="1620"
     inkscape:window-height="1018"
     inkscape:window-x="-6"
     inkscape:window-y="-6"
     inkscape:window-maximized="1"
     inkscape:current-layer="layer1"
     units="px"
     width="64px"
     inkscape:showpageshadow="0"
     inkscape:deskcolor="#505050"
     inkscape:lockguides="false" /><defs
     id="defs2" /><g
     inkscape:label="Layer 1"
     inkscape:groupmode="layer"
     id="layer1"
     transform="translate(-8.4705715,-23.074867)"><path
       style="fill:#881c1c;fill-opacity:1;stroke:none;stroke-width:3.22026;stroke-linecap:round;stroke-linejoin:round;stroke-dasharray:none;stroke-opacity:1"
       d="M 84.209498,44.508583 C 71.776008,45.104971 32.29127,28.187287 26.020038,24.316868 c 5.213978,3.011047 16.893329,11.927774 19.596261,12.524162 -3.784105,1.073499 -16.422508,1.628571 -21.082875,0.715667 10.351682,1.932872 10.946877,5.486775 13.244368,5.486775 -3.784105,1.669889 -13.821909,4.164844 -14.362492,3.926288 15.489507,-2.536273 25.444522,-0.705789 26.525696,-1.540733 -4.324697,2.027721 -8.856303,6.062555 -16.523501,8.825524 16.263291,-4.34032 27.270377,-3.365762 49.981123,-3.30497 2.205022,-0.504701 2.925245,-1.664628 3.63706,-2.828266 0.139804,-1.681659 -1.514288,-2.571691 -2.82618,-3.612732 z"
       id="path90107"
       sodipodi:nodetypes="ccccccccccc" /><path
       style="fill:#881c1c;fill-opacity:1;stroke:none;stroke-width:3.22026;stroke-linecap:round;stroke-linejoin:round;stroke-dasharray:none;stroke-opacity:1"
       d="m 84.647629,44.946714 c -12.43349,0.596388 -58.05206,-8.873072 -64.323292,-12.743491 5.213978,3.011047 16.893329,11.927774 19.596261,12.524162 -3.784105,1.073499 -16.422508,1.628571 -21.082875,0.715667 10.351682,1.932872 10.946877,5.486775 13.244368,5.486775 -3.784105,1.669889 -13.821909,4.164844 -14.362492,3.926288 15.489507,-2.536273 25.444522,-0.705789 26.525696,-1.540733 -4.324697,2.027721 -8.856303,6.062555 -16.523501,8.825524 16.263291,-4.34032 33.404209,-10.813986 56.114955,-10.753194 2.205022,-0.504701 2.925245,-1.664628 3.63706,-2.828266 0.139804,-1.681659 -1.514288,-2.571691 -2.82618,-3.612732 z"
       id="path90105"
       sodipodi:nodetypes="ccccccccccc" /><path
       style="fill:#ff0000;fill-opacity:1;stroke:none;stroke-width:2.58092;stroke-linecap:round;stroke-linejoin:round;stroke-dasharray:none;stroke-opacity:1"
       d="m -46.70686,102.43755 c 3.998681,11.55223 9.946694,11.92666 20.020994,11.20672 0.503672,-6.54774 -3.525711,-30.975874 11.206718,-34.249748 -6.799583,-3.651627 -25.939148,1.007345 -31.227712,23.043028 z"
       id="path74625"
       sodipodi:nodetypes="cccc" /><path
       style="fill:#ff6868;fill-opacity:1;stroke:none;stroke-width:2.11667;stroke-linecap:round;stroke-linejoin:round;stroke-dasharray:none;stroke-opacity:1"
       d="m -26.239389,79.915711 c -6.815717,2.891516 -13.218359,8.674549 -15.490264,13.941239 6.505911,-3.201321 10.739915,-13.321629 15.490264,-13.941239 z"
       id="path74627" /><path
       style="fill:#c51461;fill-opacity:1;stroke:none;stroke-width:0.510792;stroke-linejoin:round"
       d="m 83.961167,109.02428 c 0,0 -1.952537,-1.04595 -2.098462,-1.92274 -0.114085,-0.68549 -0.04677,-1.76729 1.08254,-1.84992 0.830488,-0.0608 1.23243,0.58265 1.23243,0.58265 0,0 1.53221,-1.23813 2.414897,-0.34959 0.518067,0.52151 0.448646,0.95753 -0.17675,1.60937 -0.857389,0.89363 -2.454655,1.93023 -2.454655,1.93023 z"
       id="path45232"
       sodipodi:nodetypes="csscssc" /><ellipse
       style="fill:#b21258;fill-opacity:1;stroke-width:0.614921;stroke-linecap:round;stroke-linejoin:round"
       id="path25461"
       cx="79.699959"
       cy="116.04565"
       rx="6.773262"
       ry="6.6928196" /><path
       style="fill:#ff0000;fill-opacity:1;stroke:none;stroke-width:3.22026;stroke-linecap:round;stroke-linejoin:round;stroke-dasharray:none;stroke-opacity:1"
       d="M 84.793672,44.654626 C 72.360182,45.251014 24.843045,32.422551 18.571813,28.552132 c 5.213978,3.011047 16.893329,11.927774 19.596261,12.524162 -3.784105,1.073499 -16.422508,1.628571 -21.082875,0.715667 10.351682,1.932872 10.946877,5.486775 13.244368,5.486775 -3.784105,1.669889 -13.821909,4.164844 -14.362492,3.926288 15.489507,-2.536273 25.444522,-0.705789 26.525696,-1.540733 -4.324697,2.027721 -8.856303,6.062555 -16.523501,8.825524 16.263291,-4.34032 35.302776,-7.454983 58.013522,-7.394191 2.205022,-0.504701 2.925245,-1.664628 3.63706,-2.828266 0.139804,-1.681659 -1.514288,-2.571691 -2.82618,-3.612732 z"
       id="path62826"
       sodipodi:nodetypes="ccccccccccc" /><path
       style="fill:#ff6868;fill-opacity:1;stroke:none;stroke-width:3.22026;stroke-linecap:round;stroke-linejoin:round;stroke-dasharray:none;stroke-opacity:1"
       d="m 77.46646,45.003805 c 0,0 -42.43003,-8.687235 -46.921491,-11.048814 4.013647,4.554473 33.255961,11.30184 46.921491,11.048814 z"
       id="path62828" /></g></svg>
