<?xml version="1.0" encoding="UTF-8" standalone="no"?>
<!-- Created with Inkscape (http://www.inkscape.org/) -->

<svg
   width="340"
   height="176"
   viewBox="0 0 89.958331 46.566671"
   version="1.1"
   id="svg5"
   inkscape:version="1.2.2 (732a01da63, 2022-12-09)"
   sodipodi:docname="water_drip.svg"
   xml:space="preserve"
   xmlns:inkscape="http://www.inkscape.org/namespaces/inkscape"
   xmlns:sodipodi="http://sodipodi.sourceforge.net/DTD/sodipodi-0.dtd"
   xmlns="http://www.w3.org/2000/svg"
   xmlns:svg="http://www.w3.org/2000/svg"><sodipodi:namedview
     id="namedview7"
     pagecolor="#505050"
     bordercolor="#eeeeee"
     borderopacity="1"
     inkscape:pageshadow="0"
     inkscape:pageopacity="0"
     inkscape:pagecheckerboard="0"
     inkscape:document-units="px"
     showgrid="false"
     inkscape:zoom="0.90583672"
     inkscape:cx="-8.8316137"
     inkscape:cy="148.48151"
     inkscape:window-width="1620"
     inkscape:window-height="1018"
     inkscape:window-x="-6"
     inkscape:window-y="-6"
     inkscape:window-maximized="1"
     inkscape:current-layer="layer1"
     units="px"
     width="64px"
     inkscape:showpageshadow="0"
     inkscape:deskcolor="#505050"
     inkscape:lockguides="false" /><defs
     id="defs2" /><g
     inkscape:label="Layer 1"
     inkscape:groupmode="layer"
     id="layer1"
     transform="translate(-8.4705715,-23.074867)"><path
       style="fill:#2b8ce7;fill-opacity:1;stroke:none;stroke-width:2.72484;stroke-linejoin:round;stroke-dasharray:none;stroke-opacity:1"
       d="m 52.994655,24.550031 c 0,0 -4.40099,5.744762 -4.40099,8.042666 0,2.297908 1.015614,5.013614 4.40099,5.013614 3.385377,0 4.175299,-2.402357 4.062453,-4.595811 -0.112858,-2.193457 -4.062453,-8.460469 -4.062453,-8.460469 z"
       id="path20031" /><path
       style="fill:#489cea;fill-opacity:1;stroke:none;stroke-width:2.27192;stroke-linejoin:round;stroke-dasharray:none;stroke-opacity:1"
       d="m 52.999817,24.82324 c 0,0 -3.767797,5.108174 -3.767797,7.172098 0,2.063929 0.786085,4.503111 3.406357,4.503111 2.620277,0 3.231676,-2.157742 3.14433,-4.127849 -0.08733,-1.970111 -2.78289,-7.54736 -2.78289,-7.54736 z"
       id="path20033"
       sodipodi:nodetypes="csscc" /><path
       style="fill:#2b8ce7;fill-opacity:1;stroke:none;stroke-width:2.39276;stroke-linejoin:round;stroke-dasharray:none;stroke-opacity:1"
       d="m 48.84391,41.042418 c 0,0 -3.864641,5.044646 -3.864641,7.062504 0,2.017862 0.891841,4.402604 3.864641,4.402604 2.9728,0 3.666454,-2.109581 3.567361,-4.035718 -0.0991,-1.92614 -3.567361,-7.42939 -3.567361,-7.42939 z"
       id="path22369" /><path
       style="fill:#489cea;fill-opacity:1;stroke:none;stroke-width:1.99504;stroke-linejoin:round;stroke-dasharray:none;stroke-opacity:1"
       d="m 48.848443,41.282331 c 0,0 -3.308615,4.485639 -3.308615,6.298033 0,1.812397 0.690284,3.954316 2.991223,3.954316 2.300944,0 2.837831,-1.894778 2.76113,-3.624788 -0.07669,-1.730013 -2.443738,-6.627561 -2.443738,-6.627561 z"
       id="path22371"
       sodipodi:nodetypes="csscc" /><path
       style="fill:#2b8ce7;fill-opacity:1;stroke:none;stroke-width:1.92786;stroke-linejoin:round;stroke-dasharray:none;stroke-opacity:1"
       d="m 57.283911,55.271329 c 0,0 -3.113751,4.064485 -3.113751,5.690279 0,1.625796 0.718559,3.547189 3.113751,3.547189 2.395194,0 2.954073,-1.699695 2.874233,-3.251589 -0.07985,-1.551896 -2.874233,-5.985879 -2.874233,-5.985879 z"
       id="path22373" /><path
       style="fill:#489cea;fill-opacity:1;stroke:none;stroke-width:1.60741;stroke-linejoin:round;stroke-dasharray:none;stroke-opacity:1"
       d="m 57.287564,55.464627 c 0,0 -2.66576,3.614092 -2.66576,5.074342 0,1.460254 0.556164,3.186003 2.410037,3.186003 1.853876,0 2.286448,-1.526627 2.224649,-2.920501 -0.06179,-1.393876 -1.968926,-5.339844 -1.968926,-5.339844 z"
       id="path22375"
       sodipodi:nodetypes="csscc" /></g></svg>
