<?xml version="1.0" encoding="UTF-8" standalone="no"?>
<!-- Created with Inkscape (http://www.inkscape.org/) -->

<svg
   width="340"
   height="176"
   viewBox="0 0 89.958331 46.566671"
   version="1.1"
   id="svg5"
   inkscape:version="1.2.2 (732a01da63, 2022-12-09)"
   sodipodi:docname="water_barrel.svg"
   xml:space="preserve"
   xmlns:inkscape="http://www.inkscape.org/namespaces/inkscape"
   xmlns:sodipodi="http://sodipodi.sourceforge.net/DTD/sodipodi-0.dtd"
   xmlns="http://www.w3.org/2000/svg"
   xmlns:svg="http://www.w3.org/2000/svg"><sodipodi:namedview
     id="namedview7"
     pagecolor="#505050"
     bordercolor="#eeeeee"
     borderopacity="1"
     inkscape:pageshadow="0"
     inkscape:pageopacity="0"
     inkscape:pagecheckerboard="0"
     inkscape:document-units="px"
     showgrid="false"
     inkscape:zoom="1.8116734"
     inkscape:cx="189.60371"
     inkscape:cy="131.09427"
     inkscape:window-width="1620"
     inkscape:window-height="1018"
     inkscape:window-x="-6"
     inkscape:window-y="-6"
     inkscape:window-maximized="1"
     inkscape:current-layer="layer1"
     units="px"
     width="64px"
     inkscape:showpageshadow="0"
     inkscape:deskcolor="#505050"
     inkscape:lockguides="false" /><defs
     id="defs2" /><g
     inkscape:label="Layer 1"
     inkscape:groupmode="layer"
     id="layer1"
     transform="translate(-8.4705715,-23.074867)"><ellipse
       style="fill:#000000;fill-opacity:1;stroke:none;stroke-width:0.850374;stroke-linecap:round;stroke-linejoin:round;stroke-dasharray:none;stroke-opacity:1"
       id="path38837"
       cx="10.253112"
       cy="3.9118633"
       rx="10.610625"
       ry="7.9593773" /><path
       style="fill:#1a1a1a;fill-opacity:1;stroke:none;stroke-width:0.79375;stroke-linecap:round;stroke-linejoin:round;stroke-dasharray:none;stroke-opacity:1"
       d="m 36.611218,4.5898172 c 0.05164,1.34249 -0.464706,3.30459 -1.549027,4.079104 -1.084318,0.774513 1.135954,2.4268078 1.135954,2.4268078 0,0 3.201321,-0.413074 3.407857,-6.8157168"
       id="path38902" /><path
       style="fill:#1a1a1a;fill-opacity:1;stroke:none;stroke-width:0.79375;stroke-linecap:round;stroke-linejoin:round;stroke-dasharray:none;stroke-opacity:1"
       d="m 2.5957572,2.3738457 c -0.480277,4.45952 8.5664578,9.1891093 9.8078298,9.4811963 -2.336698,1.825546 -13.4360118,1e-6 -13.5820568,-9.5658573"
       id="path38731"
       sodipodi:nodetypes="ccc" /><path
       style="fill:#2b8ce7;fill-opacity:1;stroke:none;stroke-width:1.30774;stroke-linejoin:round;stroke-dasharray:none;stroke-opacity:1"
       d="m -4.9329521,111.51339 c 0,0 -2.032093,2.86577 -2.032093,4.01208 0,1.14631 0.468945,2.50104 2.032093,2.50104 1.563148,0 1.927883,-1.19841 1.875778,-2.29262 -0.05211,-1.0942 -1.875778,-4.2205 -1.875778,-4.2205 z"
       id="path39306" /><path
       style="fill:#489cea;fill-opacity:1;stroke:none;stroke-width:1.09037;stroke-linejoin:round;stroke-dasharray:none;stroke-opacity:1"
       d="m -4.9683721,111.67556 c 0,0 -1.701922,2.52233 -1.701922,3.55192 0,1.02959 0.362963,2.24637 1.572836,2.24637 1.209874,0 1.492179,-1.07638 1.451848,-2.05917 -0.04032,-0.98279 -1.322762,-3.73912 -1.322762,-3.73912 z"
       id="path39377"
       sodipodi:nodetypes="csssc" /><path
       style="fill:#2b8ce6;fill-opacity:0.854902;stroke:none;stroke-width:0.79375;stroke-linecap:round;stroke-linejoin:round;stroke-dasharray:none;stroke-opacity:1"
       d="m -51.250979,116.38371 c 1.239222,-5.26668 3.594408,-8.09344 6.918985,-11.25625 1.904152,-1.81151 7.072382,-2.26246 10.223575,0.92941 -0.309806,-11.256257 8.881084,-18.794853 8.881084,-18.794853 l 1.135954,-8.674548 -10.017038,1.032684 -21.892909,22.409247 -5.060154,-5.679761 -3.614393,2.375174 5.989569,5.163417 -9.29416,8.36475 c 1.858833,2.06537 2.68498,4.75035 2.581712,5.98957 3.304589,-3.40786 10.53338,-5.98957 14.147775,-1.85884 z"
       id="path36486"
       sodipodi:nodetypes="csccccccscccc" /><path
       style="fill:#489cea;fill-opacity:1;stroke:none;stroke-width:0.79375;stroke-linecap:round;stroke-linejoin:round;stroke-dasharray:none;stroke-opacity:1"
       d="m -35.521781,113.64128 38.1060499,-31.187064 -6.092836,-0.619611 -23.1321289,20.550415 -4.647079,-4.750345 -1.755563,1.135953 4.956884,5.886302 -8.158206,6.50591 1.239221,2.68498"
       id="path37042" /><ellipse
       style="fill:#3a2416;fill-opacity:1;stroke:none;stroke-width:0.873976;stroke-linecap:round;stroke-linejoin:round;stroke-dasharray:none;stroke-opacity:1"
       id="path51784"
       cx="53.787598"
       cy="62.085861"
       rx="13.58786"
       ry="3.1269133" /><path
       style="fill:#3a2416;fill-opacity:1;stroke:none;stroke-width:0.873976;stroke-linecap:round;stroke-linejoin:round;stroke-dasharray:none;stroke-opacity:1"
       d="m 67.330473,62.140612 c 4.984937,-7.879417 3.895818,-29.104828 0.03651,-33.12494 l -27.17596,-0.01476 c -6.271372,7.316604 -5.313924,29.390317 0.153426,33.330027"
       id="path51853"
       sodipodi:nodetypes="cccc" /><ellipse
       style="fill:#3a2416;fill-opacity:1;stroke:none;stroke-width:0.873976;stroke-linecap:round;stroke-linejoin:round;stroke-dasharray:none;stroke-opacity:1"
       id="ellipse51786"
       cx="53.787598"
       cy="29.28175"
       rx="13.58786"
       ry="3.1269133" /><path
       style="fill:#3a2416;fill-opacity:1;stroke:#321f13;stroke-width:1.32292;stroke-linecap:round;stroke-linejoin:round;stroke-dasharray:none;stroke-opacity:1"
       d="m 45.791165,32.059589 c -1.533456,3.65109 -1.792705,28.088339 0.251908,32.250581"
       id="path51855"
       sodipodi:nodetypes="cc" /><path
       style="fill:#3a2416;fill-opacity:1;stroke:#321f13;stroke-width:1.32292;stroke-linecap:round;stroke-linejoin:round;stroke-dasharray:none;stroke-opacity:1"
       d="m 53.567544,32.58327 0.26855,32.18705"
       id="path52190"
       sodipodi:nodetypes="cc" /><path
       style="fill:#3a2416;fill-opacity:1;stroke:#321f13;stroke-width:1.32292;stroke-linecap:round;stroke-linejoin:round;stroke-dasharray:none;stroke-opacity:1"
       d="m 61.743835,32.018964 c 0.949286,3.432025 0.781853,29.428863 -1.408802,32.495778"
       id="path52192"
       sodipodi:nodetypes="cc" /><path
       style="fill:#3a2416;fill-opacity:1;stroke:#321f13;stroke-width:1.32292;stroke-linecap:round;stroke-linejoin:round;stroke-dasharray:none;stroke-opacity:1"
       d="m 66.757284,30.1757 c 2.951438,4.112241 3.134396,27.523935 -1.679503,33.334455"
       id="path52194"
       sodipodi:nodetypes="cc" /><path
       style="fill:#3a2416;fill-opacity:1;stroke:#321f13;stroke-width:1.32292;stroke-linecap:round;stroke-linejoin:round;stroke-dasharray:none;stroke-opacity:1"
       d="m 41.687896,30.551189 c -2.403057,1.971589 -6.864346,19.614768 -0.04645,32.466608"
       id="path52196"
       sodipodi:nodetypes="cc" /><path
       style="fill:#3a2416;fill-opacity:1;stroke:#806600;stroke-width:1.32292;stroke-linecap:round;stroke-linejoin:round;stroke-dasharray:none;stroke-opacity:1"
       d="m 40.107994,28.989633 c 1.679501,1.460437 17.233146,5.695702 26.652959,0"
       id="path53738" /><path
       style="fill:none;fill-opacity:1;stroke:#806600;stroke-width:1.32292;stroke-linecap:round;stroke-linejoin:round;stroke-dasharray:none;stroke-opacity:1"
       d="m 40.254036,62.433621 c 1.825546,1.387414 17.233146,5.622679 27.091093,0.146044"
       id="path53866" /><path
       style="fill:none;fill-opacity:1;stroke:#806600;stroke-width:1.32292;stroke-linecap:round;stroke-linejoin:round;stroke-dasharray:none;stroke-opacity:1"
       d="m 36.237838,46.22278 c 1.241369,0.584175 22.344672,8.324487 34.247228,0.292087"
       id="path53931" /></g></svg>
