<?xml version="1.0" encoding="UTF-8" standalone="no"?>
<!-- Created with Inkscape (http://www.inkscape.org/) -->

<svg
   width="340"
   height="176"
   viewBox="0 0 89.958331 46.566671"
   version="1.1"
   id="svg5"
   inkscape:version="1.2.2 (732a01da63, 2022-12-09)"
   sodipodi:docname="water_drop.svg"
   xml:space="preserve"
   xmlns:inkscape="http://www.inkscape.org/namespaces/inkscape"
   xmlns:sodipodi="http://sodipodi.sourceforge.net/DTD/sodipodi-0.dtd"
   xmlns="http://www.w3.org/2000/svg"
   xmlns:svg="http://www.w3.org/2000/svg"><sodipodi:namedview
     id="namedview7"
     pagecolor="#505050"
     bordercolor="#eeeeee"
     borderopacity="1"
     inkscape:pageshadow="0"
     inkscape:pageopacity="0"
     inkscape:pagecheckerboard="0"
     inkscape:document-units="px"
     showgrid="false"
     inkscape:zoom="2.5620931"
     inkscape:cx="164.70908"
     inkscape:cy="88.794586"
     inkscape:window-width="1620"
     inkscape:window-height="1018"
     inkscape:window-x="-6"
     inkscape:window-y="-6"
     inkscape:window-maximized="1"
     inkscape:current-layer="layer1"
     units="px"
     width="64px"
     inkscape:showpageshadow="0"
     inkscape:deskcolor="#505050"
     inkscape:lockguides="false" /><defs
     id="defs2" /><g
     inkscape:label="Layer 1"
     inkscape:groupmode="layer"
     id="layer1"
     transform="translate(-8.4705715,-23.074867)"><path
       style="fill:#2b8ce7;fill-opacity:1;stroke:none;stroke-width:5.62808;stroke-linejoin:round;stroke-dasharray:none;stroke-opacity:1"
       d="m 48.212319,27.131742 c 0,0 -8.745421,12.333287 -8.745421,17.2666 0,4.93332 2.018176,10.763603 8.745421,10.763603 6.727246,0 8.296938,-5.157561 8.072698,-9.866632 -0.224267,-4.70908 -8.072698,-18.163571 -8.072698,-18.163571 z"
       id="path39306" /><path
       style="fill:#489cea;fill-opacity:1;stroke:none;stroke-width:4.69257;stroke-linejoin:round;stroke-dasharray:none;stroke-opacity:1"
       d="m 48.161537,27.388371 c 0,0 -7.426133,11.296528 -7.426133,15.727516 0,4.430996 1.562067,9.667615 6.768937,9.667615 5.20688,0 6.42182,-4.632402 6.248251,-8.861975 C 53.57905,39.691945 48.161537,27.388371 48.161537,27.388371 Z"
       id="path39377"
       sodipodi:nodetypes="csscc" /><path
       style="fill:#2b8ce7;fill-opacity:1;stroke:none;stroke-width:2.72484;stroke-linejoin:round;stroke-dasharray:none;stroke-opacity:1"
       d="m 60.597374,49.954065 c 0,0 -4.40099,5.744762 -4.40099,8.042666 0,2.297908 1.015614,5.013614 4.40099,5.013614 3.385377,0 4.175299,-2.402357 4.062453,-4.595811 -0.112858,-2.193457 -4.062453,-8.460469 -4.062453,-8.460469 z"
       id="path20031" /><path
       style="fill:#489cea;fill-opacity:1;stroke:none;stroke-width:2.27192;stroke-linejoin:round;stroke-dasharray:none;stroke-opacity:1"
       d="m 60.602536,50.227274 c 0,0 -3.767797,5.108174 -3.767797,7.172098 0,2.063929 0.786085,4.503111 3.406357,4.503111 2.620277,0 3.231676,-2.157742 3.14433,-4.127849 -0.08733,-1.970111 -2.78289,-7.54736 -2.78289,-7.54736 z"
       id="path20033"
       sodipodi:nodetypes="csscc" /><path
       style="fill:#ffffff;stroke-width:0.873125;stroke-linejoin:round"
       d="m 49.727893,32.09306 1.898568,6.243365 c 0,0 0.219065,-3.979689 -1.898568,-6.243365 z"
       id="path20832" /></g></svg>
