<?xml version="1.0" encoding="UTF-8" standalone="no"?>
<!-- Created with Inkscape (http://www.inkscape.org/) -->

<svg
   width="340"
   height="176"
   viewBox="0 0 89.958331 46.566671"
   version="1.1"
   id="svg5"
   inkscape:version="1.2.2 (732a01da63, 2022-12-09)"
   sodipodi:docname="water_dagger.svg"
   xml:space="preserve"
   xmlns:inkscape="http://www.inkscape.org/namespaces/inkscape"
   xmlns:sodipodi="http://sodipodi.sourceforge.net/DTD/sodipodi-0.dtd"
   xmlns="http://www.w3.org/2000/svg"
   xmlns:svg="http://www.w3.org/2000/svg"><sodipodi:namedview
     id="namedview7"
     pagecolor="#505050"
     bordercolor="#eeeeee"
     borderopacity="1"
     inkscape:pageshadow="0"
     inkscape:pageopacity="0"
     inkscape:pagecheckerboard="0"
     inkscape:document-units="px"
     showgrid="false"
     inkscape:zoom="0.90583674"
     inkscape:cx="168.90461"
     inkscape:cy="253.35691"
     inkscape:window-width="1620"
     inkscape:window-height="1018"
     inkscape:window-x="-6"
     inkscape:window-y="-6"
     inkscape:window-maximized="1"
     inkscape:current-layer="layer1"
     units="px"
     width="64px"
     inkscape:showpageshadow="0"
     inkscape:deskcolor="#505050"
     inkscape:lockguides="false" /><defs
     id="defs2" /><g
     inkscape:label="Layer 1"
     inkscape:groupmode="layer"
     id="layer1"
     transform="translate(-8.4705715,-23.074867)"><path
       style="fill:#2b8ce7;fill-opacity:1;stroke:none;stroke-width:1.30774;stroke-linejoin:round;stroke-dasharray:none;stroke-opacity:1"
       d="m 63.224213,59.259564 c 0,0 -2.032093,2.865773 -2.032093,4.012081 0,1.14631 0.468945,2.501039 2.032093,2.501039 1.563148,0 1.927883,-1.198415 1.875778,-2.292618 -0.05211,-1.094204 -1.875778,-4.220502 -1.875778,-4.220502 z"
       id="path39306" /><path
       style="fill:#489cea;fill-opacity:1;stroke:none;stroke-width:1.09037;stroke-linejoin:round;stroke-dasharray:none;stroke-opacity:1"
       d="m 63.188793,59.421731 c 0,0 -1.701922,2.522334 -1.701922,3.551922 0,1.029589 0.362963,2.246374 1.572836,2.246374 1.209874,0 1.492179,-1.076388 1.451848,-2.059175 -0.04032,-0.982789 -1.322762,-3.739121 -1.322762,-3.739121 z"
       id="path39377"
       sodipodi:nodetypes="csssc" /><path
       style="fill:#2b8ce7;fill-opacity:1;stroke:none;stroke-width:0.79375;stroke-linecap:round;stroke-linejoin:round;stroke-dasharray:none;stroke-opacity:1"
       d="m 46.234421,64.129887 c 1.239222,-5.266688 3.594408,-8.093443 6.918985,-11.256258 1.904152,-1.811503 7.072382,-2.262455 10.223575,0.929415 C 63.067175,42.546786 72.258065,35.00819 72.258065,35.00819 l 1.135954,-8.674548 -10.017038,1.032684 -21.892909,22.40925 -5.060154,-5.679764 -3.614393,2.375174 5.989569,5.163421 -9.29416,8.364744 c 1.858833,2.065369 2.68498,4.750348 2.581712,5.989569 3.304589,-3.407858 10.53338,-5.989571 14.147775,-1.858833 z"
       id="path36486"
       sodipodi:nodetypes="csccccccscccc" /><path
       style="fill:#489cea;fill-opacity:1;stroke:none;stroke-width:0.79375;stroke-linecap:round;stroke-linejoin:round;stroke-dasharray:none;stroke-opacity:1"
       d="m 32.635384,61.387455 38.10605,-31.187066 -6.092836,-0.619611 -23.132129,20.550418 -4.647079,-4.750348 -1.755563,1.135953 4.956884,5.8863 -8.158206,6.505912 1.239221,2.684978"
       id="path37042" /></g></svg>
