<?xml version="1.0" encoding="UTF-8" standalone="no"?>
<!-- Created with Inkscape (http://www.inkscape.org/) -->

<svg
   width="1080"
   height="800"
   viewBox="0 0 285.74999 211.66668"
   version="1.1"
   id="svg5"
   inkscape:version="1.2.2 (732a01da63, 2022-12-09)"
   sodipodi:docname="splash.svg"
   xml:space="preserve"
   inkscape:export-filename="splash.png"
   inkscape:export-xdpi="384"
   inkscape:export-ydpi="384"
   xmlns:inkscape="http://www.inkscape.org/namespaces/inkscape"
   xmlns:sodipodi="http://sodipodi.sourceforge.net/DTD/sodipodi-0.dtd"
   xmlns="http://www.w3.org/2000/svg"
   xmlns:svg="http://www.w3.org/2000/svg"><sodipodi:namedview
     id="namedview7"
     pagecolor="#505050"
     bordercolor="#eeeeee"
     borderopacity="1"
     inkscape:pageshadow="0"
     inkscape:pageopacity="0"
     inkscape:pagecheckerboard="0"
     inkscape:document-units="px"
     showgrid="false"
     inkscape:zoom="0.22645918"
     inkscape:cx="-264.94841"
     inkscape:cy="589.5102"
     inkscape:window-width="1620"
     inkscape:window-height="1018"
     inkscape:window-x="-6"
     inkscape:window-y="-6"
     inkscape:window-maximized="1"
     inkscape:current-layer="layer1"
     units="px"
     width="64px"
     inkscape:showpageshadow="0"
     inkscape:deskcolor="#505050" /><defs
     id="defs2" /><g
     inkscape:label="Layer 1"
     inkscape:groupmode="layer"
     id="layer1"
     transform="translate(-0.06119738,14.298667)"><rect
       style="fill:#121212;fill-opacity:1;stroke-width:0.840502;stroke-linejoin:round"
       id="rect500"
       width="285.75"
       height="211.66667"
       x="0.061197381"
       y="-14.298667"
       ry="4.7703891" /><g
       id="g604"
       transform="matrix(1.4960099,0,0,1.4960097,-2.2196337,134.99668)"><path
         style="fill:none;stroke:#ffffff;stroke-width:0.873125;stroke-linejoin:round"
         d="m 60.217564,-93.49223 c -11.979138,16.729485 -6.918985,34.285119 0.826147,25.094228"
         id="path22111" /><path
         style="fill:none;stroke:#ffffff;stroke-width:0.873125;stroke-linejoin:round"
         d="m 66.826743,-78.001966 c 1.652295,3.407858 1.369652,10.083511 -0.938274,11.183237 -4.347934,2.071788 -3.089194,-7.362305 0.938274,-11.183237 z"
         id="path22113"
         sodipodi:nodetypes="csc" /><path
         style="fill:none;stroke:#ffffff;stroke-width:0.873125;stroke-linejoin:round"
         d="m 67.531904,-70.395538 c 0.722879,3.304589 1.87655,4.475978 3.115771,4.269442"
         id="path22115"
         sodipodi:nodetypes="cc" /><path
         style="fill:none;stroke:#ffffff;stroke-width:0.873125;stroke-linejoin:round"
         d="M 73.053096,-65.529393 C 72.330217,-77.198726 72.949827,-77.921605 72.949827,-77.921605"
         id="path22117" /><path
         style="fill:none;stroke:#ffffff;stroke-width:0.873125;stroke-linejoin:round"
         d="m 72.828842,-74.166356 c 0.206537,-2.168637 5.163421,-8.984354 4.440542,0.206537"
         id="path22119"
         sodipodi:nodetypes="cc" /><path
         style="fill:none;stroke:#ffffff;stroke-width:0.873125;stroke-linejoin:round"
         d="m 82.628964,-78.533877 c -4.067206,7.515688 -3.039712,10.08487 -1.077609,13.595997 3.198279,-5.7152 0.826145,-20.653686 -2.065371,-26.023645"
         id="path22121"
         sodipodi:nodetypes="ccc" /><path
         style="fill:none;stroke:#ffffff;stroke-width:0.873125;stroke-linejoin:round"
         d="m 85.135503,-77.52625 c -1.239223,5.163422 1.798945,12.395176 1.798945,12.395176 0.764741,-4.531728 0.837764,-6.065186 0.837764,-6.065186 -0.511154,2.336698 1.825543,5.695701 1.825543,5.695701 1.460437,-8.543551 0.438132,-12.194642 0.438132,-12.194642"
         id="path22123"
         sodipodi:nodetypes="ccccc" /><path
         style="fill:none;stroke:#ffffff;stroke-width:0.873125;stroke-linejoin:round"
         d="m 93.175826,-65.427537 c -1.314392,-1.314393 -1.825546,-7.813334 0.584173,-11.683489 1.241371,2.409719 2.190657,8.105421 -0.584173,11.683489 z"
         id="path22127"
         sodipodi:nodetypes="ccc" /><path
         style="fill:none;stroke:#ffffff;stroke-width:0.873125;stroke-linejoin:round"
         d="m 97.557135,-77.476135 c -0.657196,3.578068 0.292085,11.31838 0.292085,12.705794"
         id="path22129"
         sodipodi:nodetypes="cc" /><path
         style="fill:none;stroke:#ffffff;stroke-width:0.873125;stroke-linejoin:round"
         d="m 97.484113,-73.532958 c 2.221586,-5.30299 5.015717,-6.950841 3.578067,0.80324"
         id="path22131"
         sodipodi:nodetypes="cc" /><path
         style="fill:none;stroke:#ffffff;stroke-width:0.873125;stroke-linejoin:round"
         d="m 104.62603,-90.488847 c -0.92942,9.294158 -2.27191,22.099444 -0.51634,25.713839"
         id="path22133" /><path
         style="fill:none;stroke:#ffffff;stroke-width:0.873125;stroke-linejoin:round"
         d="m 103.58815,-76.563179 c 0.10327,5.473227 1.9673,8.999923 4.2392,11.271829"
         id="path22135"
         sodipodi:nodetypes="cc" /><path
         style="fill:none;stroke:#ffffff;stroke-width:0.873125;stroke-linejoin:round"
         d="m 103.43585,-74.571906 c 1.9621,-4.64708 3.84491,-6.821981 4.36125,-0.93568"
         id="path22137"
         sodipodi:nodetypes="cc" /><path
         style="fill:none;stroke:#ffffff;stroke-width:0.873125;stroke-linejoin:round"
         d="m 126.83304,-91.781224 c -11.95964,12.76681 -11.47748,31.275656 -1.77024,25.492624"
         id="path22139"
         sodipodi:nodetypes="cc" /><path
         style="fill:none;stroke:#ffffff;stroke-width:0.873125;stroke-linejoin:round"
         d="m 127.23295,-74.245704 c -0.36473,4.847599 0.67521,13.773952 2.61908,8.288391"
         id="path22141" /><path
         style="fill:none;stroke:#ffffff;stroke-width:0.873125;stroke-linejoin:round"
         d="m 131.00303,-74.222858 c -0.95779,6.957395 -3.46178,33.942696 -9.20837,16.673882"
         id="path22143" /><path
         style="fill:none;stroke:#ffffff;stroke-width:0.873125;stroke-linejoin:round"
         d="m 134.99373,-74.316112 c -2.8147,3.877868 -3.10947,12.49435 0.12178,8.921585"
         id="path22145" /><path
         style="fill:none;stroke:#ffffff;stroke-width:0.873125;stroke-linejoin:round"
         d="m 138.58951,-91.796847 c -2.59723,22.501255 -0.0761,26.975298 0.40204,27.599701"
         id="path22147" /><path
         style="fill:none;stroke:#ffffff;stroke-width:0.873125;stroke-linejoin:round"
         d="m 141.89555,-68.199065 c 3.56276,-5.421593 0.2676,-9.659607 -0.3098,-3.356224 -0.61961,6.764081 -0.41308,9.035987 2.06537,5.989568"
         id="path22149"
         sodipodi:nodetypes="csc" /></g></g></svg>
