<?xml version="1.0" encoding="UTF-8" standalone="no"?>
<!-- Created with Inkscape (http://www.inkscape.org/) -->

<svg
   width="345.27066"
   height="159.91014"
   viewBox="0 0 91.35286 42.30956"
   version="1.1"
   id="svg5"
   inkscape:version="1.2.2 (732a01da63, 2022-12-09)"
   sodipodi:docname="title.svg"
   xmlns:inkscape="http://www.inkscape.org/namespaces/inkscape"
   xmlns:sodipodi="http://sodipodi.sourceforge.net/DTD/sodipodi-0.dtd"
   xmlns="http://www.w3.org/2000/svg"
   xmlns:svg="http://www.w3.org/2000/svg">
  <sodipodi:namedview
     id="namedview7"
     pagecolor="#505050"
     bordercolor="#eeeeee"
     borderopacity="1"
     inkscape:pageshadow="0"
     inkscape:pageopacity="0"
     inkscape:pagecheckerboard="0"
     inkscape:document-units="px"
     showgrid="false"
     inkscape:zoom="2.5620932"
     inkscape:cx="249.40545"
     inkscape:cy="114.55477"
     inkscape:window-width="1620"
     inkscape:window-height="1018"
     inkscape:window-x="-6"
     inkscape:window-y="-6"
     inkscape:window-maximized="1"
     inkscape:current-layer="layer1"
     units="px"
     width="64px"
     inkscape:showpageshadow="0"
     inkscape:deskcolor="#505050" />
  <defs
     id="defs2" />
  <g
     inkscape:label="Layer 1"
     inkscape:groupmode="layer"
     id="layer1"
     transform="translate(-0.06119738,14.298667)">
    <path
       style="fill:none;stroke:#ffffff;stroke-width:0.873125;stroke-linejoin:round"
       d="M 7.6418638,-14.044506 C -4.3372742,2.6849793 0.72287902,20.240613 8.4680112,11.049722"
       id="path22111" />
    <path
       style="fill:none;stroke:#ffffff;stroke-width:0.873125;stroke-linejoin:round"
       d="M 14.251043,1.445758 C 15.903338,4.8536162 15.620695,11.529269 13.312769,12.628995 8.9648353,14.700783 10.223575,5.2666899 14.251043,1.445758 Z"
       id="path22113"
       sodipodi:nodetypes="csc" />
    <path
       style="fill:none;stroke:#ffffff;stroke-width:0.873125;stroke-linejoin:round"
       d="m 14.956204,9.0521857 c 0.722879,3.3045893 1.87655,4.4759783 3.115771,4.2694423"
       id="path22115"
       sodipodi:nodetypes="cc" />
    <path
       style="fill:none;stroke:#ffffff;stroke-width:0.873125;stroke-linejoin:round"
       d="M 20.477396,13.918331 C 19.754517,2.2489979 20.374127,1.5261189 20.374127,1.5261189"
       id="path22117" />
    <path
       style="fill:none;stroke:#ffffff;stroke-width:0.873125;stroke-linejoin:round"
       d="m 20.253142,5.2813681 c 0.206537,-2.168637 5.163421,-8.9843536 4.440542,0.2065369"
       id="path22119"
       sodipodi:nodetypes="cc" />
    <path
       style="fill:none;stroke:#ffffff;stroke-width:0.873125;stroke-linejoin:round"
       d="M 30.053264,0.91384734 C 25.986058,8.4295351 27.013552,10.998717 28.975655,14.509844 32.173934,8.7946442 29.8018,-6.1438419 26.910284,-11.513801"
       id="path22121"
       sodipodi:nodetypes="ccc" />
    <path
       style="fill:none;stroke:#ffffff;stroke-width:0.873125;stroke-linejoin:round"
       d="M 32.559803,1.9214745 C 31.32058,7.084896 34.358748,14.31665 34.358748,14.31665 35.123489,9.7849222 35.196512,8.2514643 35.196512,8.2514643 34.685358,10.588162 37.022055,13.947165 37.022055,13.947165 38.482492,5.4036138 37.460187,1.7525233 37.460187,1.7525233"
       id="path22123"
       sodipodi:nodetypes="ccccc" />
    <path
       style="fill:none;stroke:#ffffff;stroke-width:0.873125;stroke-linejoin:round"
       d="M 40.600126,14.020187 C 39.285734,12.705794 38.77458,6.2068536 41.184299,2.3366978 42.42567,4.7464174 43.374956,10.442119 40.600126,14.020187 Z"
       id="path22127"
       sodipodi:nodetypes="ccc" />
    <path
       style="fill:none;stroke:#ffffff;stroke-width:0.873125;stroke-linejoin:round"
       d="M 44.981435,1.9715888 C 44.324239,5.5496573 45.27352,13.289969 45.27352,14.677383"
       id="path22129"
       sodipodi:nodetypes="cc" />
    <path
       style="fill:none;stroke:#ffffff;stroke-width:0.873125;stroke-linejoin:round"
       d="m 44.908413,5.9147664 c 2.221586,-5.30298995 5.015722,-6.9508415 3.578069,0.80324"
       id="path22131"
       sodipodi:nodetypes="cc" />
    <path
       style="fill:none;stroke:#ffffff;stroke-width:0.873125;stroke-linejoin:round"
       d="m 52.050328,-11.041123 c -0.929415,9.2941577 -2.271905,22.099444 -0.516342,25.713839"
       id="path22133" />
    <path
       style="fill:none;stroke:#ffffff;stroke-width:0.873125;stroke-linejoin:round"
       d="m 51.012454,2.8845455 c 0.10327,5.4732271 1.967292,8.9999225 4.239195,11.2718285"
       id="path22135"
       sodipodi:nodetypes="cc" />
    <path
       style="fill:none;stroke:#ffffff;stroke-width:0.873125;stroke-linejoin:round"
       d="m 50.860147,4.8758178 c 1.9621,-4.64707943 3.844915,-6.8219806 4.361257,-0.9356801"
       id="path22137"
       sodipodi:nodetypes="cc" />
    <path
       style="fill:none;stroke:#ffffff;stroke-width:0.873125;stroke-linejoin:round"
       d="M 74.257339,-12.3335 C 62.2977,0.43331008 62.779865,18.942156 72.4871,13.159124"
       id="path22139"
       sodipodi:nodetypes="cc" />
    <path
       style="fill:none;stroke:#ffffff;stroke-width:0.873125;stroke-linejoin:round"
       d="m 74.657249,5.20202 c -0.364727,4.847599 0.675211,13.773952 2.619086,8.288391"
       id="path22141" />
    <path
       style="fill:none;stroke:#ffffff;stroke-width:0.873125;stroke-linejoin:round"
       d="M 78.427329,5.2248665 C 77.469544,12.182261 74.965555,39.167562 69.218957,21.898748"
       id="path22143" />
    <path
       style="fill:none;stroke:#ffffff;stroke-width:0.873125;stroke-linejoin:round"
       d="M 82.418031,5.1316124 C 79.603333,9.0094803 79.308556,17.625962 82.539814,14.053197"
       id="path22145" />
    <path
       style="fill:none;stroke:#ffffff;stroke-width:0.873125;stroke-linejoin:round"
       d="m 86.013806,-12.349123 c -2.59723,22.501255 -0.07613,26.975298 0.402046,27.599701"
       id="path22147" />
    <path
       style="fill:none;stroke:#ffffff;stroke-width:0.873125;stroke-linejoin:round"
       d="M 89.319854,11.248659 C 92.882613,5.8270663 89.587455,1.5890521 89.010047,7.8924351 88.390438,14.656516 88.596975,16.928422 91.075416,13.882003"
       id="path22149"
       sodipodi:nodetypes="csc" />
  </g>
</svg>
